<?xml version="1.0" encoding="UTF-8" standalone="no"?>
<!DOCTYPE svg PUBLIC "-//W3C//DTD SVG 1.1//EN"
 "http://www.w3.org/Graphics/SVG/1.1/DTD/svg11.dtd">
<!-- Generated by graphviz version 2.26.3 (20100126.1600)
 -->
<!-- Title: G Pages: 1 -->
<svg width="946pt" height="2644pt"
 viewBox="0.00 0.00 946.00 2644.00" xmlns="http://www.w3.org/2000/svg" xmlns:xlink="http://www.w3.org/1999/xlink">
<g id="graph1" class="graph" transform="scale(1 1) rotate(0) translate(4 2640)">
<title>G</title>
<polygon fill="white" stroke="white" points="-4,5 -4,-2640 943,-2640 943,5 -4,5"/>
<g id="graph2" class="cluster"><title>cluster_Global</title>
<polyline fill="none" stroke="gray" points="712,-8 918,-8 "/>
<path fill="none" stroke="gray" d="M918,-8C924,-8 930,-14 930,-20"/>
<polyline fill="none" stroke="gray" points="930,-20 930,-2616 "/>
<path fill="none" stroke="gray" d="M930,-2616C930,-2622 924,-2628 918,-2628"/>
<polyline fill="none" stroke="gray" points="918,-2628 712,-2628 "/>
<path fill="none" stroke="gray" d="M712,-2628C706,-2628 700,-2622 700,-2616"/>
<polyline fill="none" stroke="gray" points="700,-2616 700,-20 "/>
<path fill="none" stroke="gray" d="M700,-20C700,-14 706,-8 712,-8"/>
<text text-anchor="middle" x="815" y="-2614.1" font-family="Times Roman,serif" font-size="11.00" fill="gray">Global</text>
</g>
<g id="graph3" class="cluster"><title>cluster_\Glsr</title>
<polyline fill="none" stroke="gray" points="720,-16 910,-16 "/>
<path fill="none" stroke="gray" d="M910,-16C916,-16 922,-22 922,-28"/>
<polyline fill="none" stroke="gray" points="922,-28 922,-2586 "/>
<path fill="none" stroke="gray" d="M922,-2586C922,-2592 916,-2598 910,-2598"/>
<polyline fill="none" stroke="gray" points="910,-2598 720,-2598 "/>
<path fill="none" stroke="gray" d="M720,-2598C714,-2598 708,-2592 708,-2586"/>
<polyline fill="none" stroke="gray" points="708,-2586 708,-28 "/>
<path fill="none" stroke="gray" d="M708,-28C708,-22 714,-16 720,-16"/>
<text text-anchor="middle" x="815" y="-2584.1" font-family="Times Roman,serif" font-size="11.00" fill="gray">Glsr</text>
</g>
<g id="graph4" class="cluster"><title>cluster_\Glsr\UserBundle</title>
<polyline fill="none" stroke="gray" points="742,-2138 888,-2138 "/>
<path fill="none" stroke="gray" d="M888,-2138C894,-2138 900,-2144 900,-2150"/>
<polyline fill="none" stroke="gray" points="900,-2150 900,-2556 "/>
<path fill="none" stroke="gray" d="M900,-2556C900,-2562 894,-2568 888,-2568"/>
<polyline fill="none" stroke="gray" points="888,-2568 742,-2568 "/>
<path fill="none" stroke="gray" d="M742,-2568C736,-2568 730,-2562 730,-2556"/>
<polyline fill="none" stroke="gray" points="730,-2556 730,-2150 "/>
<path fill="none" stroke="gray" d="M730,-2150C730,-2144 736,-2138 742,-2138"/>
<text text-anchor="middle" x="815" y="-2554.1" font-family="Times Roman,serif" font-size="11.00" fill="gray">UserBundle</text>
</g>
<g id="graph5" class="cluster"><title>cluster_\Glsr\UserBundle\DependencyInjection</title>
<polyline fill="none" stroke="gray" points="753,-2410 877,-2410 "/>
<path fill="none" stroke="gray" d="M877,-2410C883,-2410 889,-2416 889,-2422"/>
<polyline fill="none" stroke="gray" points="889,-2422 889,-2526 "/>
<path fill="none" stroke="gray" d="M889,-2526C889,-2532 883,-2538 877,-2538"/>
<polyline fill="none" stroke="gray" points="877,-2538 753,-2538 "/>
<path fill="none" stroke="gray" d="M753,-2538C747,-2538 741,-2532 741,-2526"/>
<polyline fill="none" stroke="gray" points="741,-2526 741,-2422 "/>
<path fill="none" stroke="gray" d="M741,-2422C741,-2416 747,-2410 753,-2410"/>
<text text-anchor="middle" x="815" y="-2524.1" font-family="Times Roman,serif" font-size="11.00" fill="gray">DependencyInjection</text>
</g>
<g id="graph6" class="cluster"><title>cluster_\Glsr\UserBundle\Controller</title>
<polyline fill="none" stroke="gray" points="750,-2328 880,-2328 "/>
<path fill="none" stroke="gray" d="M880,-2328C886,-2328 892,-2334 892,-2340"/>
<polyline fill="none" stroke="gray" points="892,-2340 892,-2390 "/>
<path fill="none" stroke="gray" d="M892,-2390C892,-2396 886,-2402 880,-2402"/>
<polyline fill="none" stroke="gray" points="880,-2402 750,-2402 "/>
<path fill="none" stroke="gray" d="M750,-2402C744,-2402 738,-2396 738,-2390"/>
<polyline fill="none" stroke="gray" points="738,-2390 738,-2340 "/>
<path fill="none" stroke="gray" d="M738,-2340C738,-2334 744,-2328 750,-2328"/>
<text text-anchor="middle" x="815" y="-2388.1" font-family="Times Roman,serif" font-size="11.00" fill="gray">Controller</text>
</g>
<g id="graph7" class="cluster"><title>cluster_\Glsr\UserBundle\Entity</title>
<polyline fill="none" stroke="gray" points="763,-2192 867,-2192 "/>
<path fill="none" stroke="gray" d="M867,-2192C873,-2192 879,-2198 879,-2204"/>
<polyline fill="none" stroke="gray" points="879,-2204 879,-2308 "/>
<path fill="none" stroke="gray" d="M879,-2308C879,-2314 873,-2320 867,-2320"/>
<polyline fill="none" stroke="gray" points="867,-2320 763,-2320 "/>
<path fill="none" stroke="gray" d="M763,-2320C757,-2320 751,-2314 751,-2308"/>
<polyline fill="none" stroke="gray" points="751,-2308 751,-2204 "/>
<path fill="none" stroke="gray" d="M751,-2204C751,-2198 757,-2192 763,-2192"/>
<text text-anchor="middle" x="815" y="-2306.1" font-family="Times Roman,serif" font-size="11.00" fill="gray">Entity</text>
</g>
<g id="graph8" class="cluster"><title>cluster_\Glsr\GestockBundle</title>
<polyline fill="none" stroke="gray" points="728,-24 902,-24 "/>
<path fill="none" stroke="gray" d="M902,-24C908,-24 914,-30 914,-36"/>
<polyline fill="none" stroke="gray" points="914,-36 914,-2118 "/>
<path fill="none" stroke="gray" d="M914,-2118C914,-2124 908,-2130 902,-2130"/>
<polyline fill="none" stroke="gray" points="902,-2130 728,-2130 "/>
<path fill="none" stroke="gray" d="M728,-2130C722,-2130 716,-2124 716,-2118"/>
<polyline fill="none" stroke="gray" points="716,-2118 716,-36 "/>
<path fill="none" stroke="gray" d="M716,-36C716,-30 722,-24 728,-24"/>
<text text-anchor="middle" x="815" y="-2116.1" font-family="Times Roman,serif" font-size="11.00" fill="gray">GestockBundle</text>
</g>
<g id="graph9" class="cluster"><title>cluster_\Glsr\GestockBundle\DependencyInjection</title>
<polyline fill="none" stroke="gray" points="743,-1972 887,-1972 "/>
<path fill="none" stroke="gray" d="M887,-1972C893,-1972 899,-1978 899,-1984"/>
<polyline fill="none" stroke="gray" points="899,-1984 899,-2088 "/>
<path fill="none" stroke="gray" d="M899,-2088C899,-2094 893,-2100 887,-2100"/>
<polyline fill="none" stroke="gray" points="887,-2100 743,-2100 "/>
<path fill="none" stroke="gray" d="M743,-2100C737,-2100 731,-2094 731,-2088"/>
<polyline fill="none" stroke="gray" points="731,-2088 731,-1984 "/>
<path fill="none" stroke="gray" d="M731,-1984C731,-1978 737,-1972 743,-1972"/>
<text text-anchor="middle" x="815" y="-2086.1" font-family="Times Roman,serif" font-size="11.00" fill="gray">DependencyInjection</text>
</g>
<g id="graph10" class="cluster"><title>cluster_\Glsr\GestockBundle\Controller</title>
<polyline fill="none" stroke="gray" points="750,-1728 880,-1728 "/>
<path fill="none" stroke="gray" d="M880,-1728C886,-1728 892,-1734 892,-1740"/>
<polyline fill="none" stroke="gray" points="892,-1740 892,-1952 "/>
<path fill="none" stroke="gray" d="M892,-1952C892,-1958 886,-1964 880,-1964"/>
<polyline fill="none" stroke="gray" points="880,-1964 750,-1964 "/>
<path fill="none" stroke="gray" d="M750,-1964C744,-1964 738,-1958 738,-1952"/>
<polyline fill="none" stroke="gray" points="738,-1952 738,-1740 "/>
<path fill="none" stroke="gray" d="M738,-1740C738,-1734 744,-1728 750,-1728"/>
<text text-anchor="middle" x="815" y="-1950.1" font-family="Times Roman,serif" font-size="11.00" fill="gray">Controller</text>
</g>
<g id="graph11" class="cluster"><title>cluster_\Glsr\GestockBundle\Entity</title>
<polyline fill="none" stroke="gray" points="736,-728 894,-728 "/>
<path fill="none" stroke="gray" d="M894,-728C900,-728 906,-734 906,-740"/>
<polyline fill="none" stroke="gray" points="906,-740 906,-1708 "/>
<path fill="none" stroke="gray" d="M906,-1708C906,-1714 900,-1720 894,-1720"/>
<polyline fill="none" stroke="gray" points="894,-1720 736,-1720 "/>
<path fill="none" stroke="gray" d="M736,-1720C730,-1720 724,-1714 724,-1708"/>
<polyline fill="none" stroke="gray" points="724,-1708 724,-740 "/>
<path fill="none" stroke="gray" d="M724,-740C724,-734 730,-728 736,-728"/>
<text text-anchor="middle" x="815" y="-1706.1" font-family="Times Roman,serif" font-size="11.00" fill="gray">Entity</text>
</g>
<g id="graph12" class="cluster"><title>cluster_\Glsr\GestockBundle\Form</title>
<polyline fill="none" stroke="gray" points="746,-160 884,-160 "/>
<path fill="none" stroke="gray" d="M884,-160C890,-160 896,-166 896,-172"/>
<polyline fill="none" stroke="gray" points="896,-172 896,-708 "/>
<path fill="none" stroke="gray" d="M896,-708C896,-714 890,-720 884,-720"/>
<polyline fill="none" stroke="gray" points="884,-720 746,-720 "/>
<path fill="none" stroke="gray" d="M746,-720C740,-720 734,-714 734,-708"/>
<polyline fill="none" stroke="gray" points="734,-708 734,-172 "/>
<path fill="none" stroke="gray" d="M734,-172C734,-166 740,-160 746,-160"/>
<text text-anchor="middle" x="815" y="-706.1" font-family="Times Roman,serif" font-size="11.00" fill="gray">Form</text>
</g>
<g id="graph13" class="cluster"><title>cluster_\Glsr\GestockBundle\Listener</title>
<polyline fill="none" stroke="gray" points="746,-78 884,-78 "/>
<path fill="none" stroke="gray" d="M884,-78C890,-78 896,-84 896,-90"/>
<polyline fill="none" stroke="gray" points="896,-90 896,-140 "/>
<path fill="none" stroke="gray" d="M896,-140C896,-146 890,-152 884,-152"/>
<polyline fill="none" stroke="gray" points="884,-152 746,-152 "/>
<path fill="none" stroke="gray" d="M746,-152C740,-152 734,-146 734,-140"/>
<polyline fill="none" stroke="gray" points="734,-140 734,-90 "/>
<path fill="none" stroke="gray" d="M734,-90C734,-84 740,-78 746,-78"/>
<text text-anchor="middle" x="815" y="-138.1" font-family="Times Roman,serif" font-size="11.00" fill="gray">Listener</text>
</g>
<!-- \\Glsr\\UserBundle\\DependencyInjection\\GlsrUserExtension -->
<g id="node5" class="node"><title>\\Glsr\\UserBundle\\DependencyInjection\\GlsrUserExtension</title>
<polygon fill="none" stroke="black" points="880,-2508 750,-2508 750,-2472 880,-2472 880,-2508"/>
<text text-anchor="middle" x="815" y="-2487.1" font-family="Courier,monospace" font-size="11.00">GlsrUserExtension</text>
</g>
<!-- \\Symfony\\Component\\HttpKernel\\DependencyInjection\\Extension -->
<g id="node56" class="node"><title>\\Symfony\\Component\\HttpKernel\\DependencyInjection\\Extension</title>
<ellipse fill="none" stroke="black" cx="330" cy="-2313" rx="329.012" ry="18.3848"/>
<text text-anchor="middle" x="330" y="-2309.4" font-family="Times Roman,serif" font-size="14.00" fill="gray">\Symfony\Component\HttpKernel\DependencyInjection\Extension</text>
</g>
<!-- \\Glsr\\UserBundle\\DependencyInjection\\GlsrUserExtension&#45;&gt;\\Symfony\\Component\\HttpKernel\\DependencyInjection\\Extension -->
<g id="edge14" class="edge"><title>\\Glsr\\UserBundle\\DependencyInjection\\GlsrUserExtension&#45;&gt;\\Symfony\\Component\\HttpKernel\\DependencyInjection\\Extension</title>
<path fill="none" stroke="black" d="M749.486,-2486.36C731.631,-2482.46 713.511,-2475.42 700,-2463 657.685,-2424.09 705.093,-2375.65 660,-2340 595.185,-2288.75 499.119,-2286.54 427.329,-2294.46"/>
<polygon fill="none" stroke="black" points="426.885,-2290.99 417.366,-2295.64 427.708,-2297.94 426.885,-2290.99"/>
</g>
<!-- \\Glsr\\UserBundle\\DependencyInjection\\Configuration -->
<g id="node6" class="node"><title>\\Glsr\\UserBundle\\DependencyInjection\\Configuration</title>
<polygon fill="none" stroke="black" points="867,-2454 763,-2454 763,-2418 867,-2418 867,-2454"/>
<text text-anchor="middle" x="815" y="-2433.1" font-family="Courier,monospace" font-size="11.00">Configuration</text>
</g>
<!-- \\Symfony\\Component\\Config\\Definition\\ConfigurationInterface -->
<g id="node58" class="node"><title>\\Symfony\\Component\\Config\\Definition\\ConfigurationInterface</title>
<ellipse fill="none" stroke="black" cx="330" cy="-2101" rx="314.162" ry="18.3848"/>
<text text-anchor="middle" x="330" y="-2097.4" font-family="Times Roman,serif" font-size="14.00" fill="gray">\Symfony\Component\Config\Definition\ConfigurationInterface</text>
</g>
<!-- \\Glsr\\UserBundle\\DependencyInjection\\Configuration&#45;&gt;\\Symfony\\Component\\Config\\Definition\\ConfigurationInterface -->
<g id="edge16" class="edge"><title>\\Glsr\\UserBundle\\DependencyInjection\\Configuration&#45;&gt;\\Symfony\\Component\\Config\\Definition\\ConfigurationInterface</title>
<path fill="none" stroke="black" stroke-dasharray="1,5" d="M762.938,-2434.08C740.77,-2430.6 716.316,-2422.8 700,-2406 644.717,-2349.08 711.689,-2292.21 660,-2232 607.27,-2170.58 521.799,-2137.7 451.055,-2120.25"/>
<polygon fill="none" stroke="black" points="451.715,-2116.81 441.175,-2117.88 450.087,-2123.61 451.715,-2116.81"/>
</g>
<!-- \\Glsr\\UserBundle\\Controller\\SecurityController -->
<g id="node8" class="node"><title>\\Glsr\\UserBundle\\Controller\\SecurityController</title>
<polygon fill="none" stroke="black" points="884,-2372 746,-2372 746,-2336 884,-2336 884,-2372"/>
<text text-anchor="middle" x="815" y="-2351.1" font-family="Courier,monospace" font-size="11.00">SecurityController</text>
</g>
<!-- \\FOS\\UserBundle\\Controller\\SecurityController -->
<g id="node60" class="node"><title>\\FOS\\UserBundle\\Controller\\SecurityController</title>
<ellipse fill="none" stroke="black" cx="330" cy="-2367" rx="239.002" ry="18.3848"/>
<text text-anchor="middle" x="330" y="-2363.4" font-family="Times Roman,serif" font-size="14.00" fill="gray">\FOS\UserBundle\Controller\SecurityController</text>
</g>
<!-- \\Glsr\\UserBundle\\Controller\\SecurityController&#45;&gt;\\FOS\\UserBundle\\Controller\\SecurityController -->
<g id="edge18" class="edge"><title>\\Glsr\\UserBundle\\Controller\\SecurityController&#45;&gt;\\FOS\\UserBundle\\Controller\\SecurityController</title>
<path fill="none" stroke="black" d="M745.769,-2355.86C697.971,-2357.14 631.374,-2358.92 565.47,-2360.69"/>
<polygon fill="none" stroke="black" points="565.231,-2357.19 555.329,-2360.96 565.419,-2364.19 565.231,-2357.19"/>
</g>
<!-- \\Glsr\\UserBundle\\Entity\\UserRepository -->
<g id="node10" class="node"><title>\\Glsr\\UserBundle\\Entity\\UserRepository</title>
<polygon fill="none" stroke="black" points="870,-2236 760,-2236 760,-2200 870,-2200 870,-2236"/>
<text text-anchor="middle" x="815" y="-2215.1" font-family="Courier,monospace" font-size="11.00">UserRepository</text>
</g>
<!-- \\Doctrine\\ORM\\EntityRepository -->
<g id="node62" class="node"><title>\\Doctrine\\ORM\\EntityRepository</title>
<ellipse fill="none" stroke="black" cx="330" cy="-1375" rx="167.084" ry="18.3848"/>
<text text-anchor="middle" x="330" y="-1371.4" font-family="Times Roman,serif" font-size="14.00" fill="gray">\Doctrine\ORM\EntityRepository</text>
</g>
<!-- \\Glsr\\UserBundle\\Entity\\UserRepository&#45;&gt;\\Doctrine\\ORM\\EntityRepository -->
<g id="edge20" class="edge"><title>\\Glsr\\UserBundle\\Entity\\UserRepository&#45;&gt;\\Doctrine\\ORM\\EntityRepository</title>
<path fill="none" stroke="black" d="M759.309,-2220.69C737.837,-2218.68 714.908,-2212.25 700,-2196 641.409,-2132.12 691.907,-1888.59 660,-1808 589.456,-1629.82 423.648,-1462.26 357.731,-1400.28"/>
<polygon fill="none" stroke="black" points="359.899,-1397.51 350.2,-1393.25 355.122,-1402.63 359.899,-1397.51"/>
</g>
<!-- \\Glsr\\UserBundle\\Entity\\User -->
<g id="node11" class="node"><title>\\Glsr\\UserBundle\\Entity\\User</title>
<polygon fill="none" stroke="black" points="842,-2290 788,-2290 788,-2254 842,-2254 842,-2290"/>
<text text-anchor="middle" x="815" y="-2269.1" font-family="Courier,monospace" font-size="11.00">User</text>
</g>
<!-- \\FOS\\UserBundle\\Entity\\User -->
<g id="node64" class="node"><title>\\FOS\\UserBundle\\Entity\\User</title>
<ellipse fill="none" stroke="black" cx="330" cy="-2259" rx="152.234" ry="18.3848"/>
<text text-anchor="middle" x="330" y="-2255.4" font-family="Times Roman,serif" font-size="14.00" fill="gray">\FOS\UserBundle\Entity\User</text>
</g>
<!-- \\Glsr\\UserBundle\\Entity\\User&#45;&gt;\\FOS\\UserBundle\\Entity\\User -->
<g id="edge22" class="edge"><title>\\Glsr\\UserBundle\\Entity\\User&#45;&gt;\\FOS\\UserBundle\\Entity\\User</title>
<path fill="none" stroke="black" d="M787.885,-2271.27C731.446,-2269.76 597.571,-2266.17 489.071,-2263.26"/>
<polygon fill="none" stroke="black" points="489.077,-2259.76 478.987,-2262.99 488.889,-2266.76 489.077,-2259.76"/>
</g>
<!-- \\Glsr\\UserBundle\\GlsrUserBundle -->
<g id="node12" class="node"><title>\\Glsr\\UserBundle\\GlsrUserBundle</title>
<polygon fill="none" stroke="black" points="870,-2182 760,-2182 760,-2146 870,-2146 870,-2182"/>
<text text-anchor="middle" x="815" y="-2161.1" font-family="Courier,monospace" font-size="11.00">GlsrUserBundle</text>
</g>
<!-- \\Symfony\\Component\\HttpKernel\\Bundle\\Bundle -->
<g id="node66" class="node"><title>\\Symfony\\Component\\HttpKernel\\Bundle\\Bundle</title>
<ellipse fill="none" stroke="black" cx="330" cy="-915" rx="246.78" ry="18.3848"/>
<text text-anchor="middle" x="330" y="-911.4" font-family="Times Roman,serif" font-size="14.00" fill="gray">\Symfony\Component\HttpKernel\Bundle\Bundle</text>
</g>
<!-- \\Glsr\\UserBundle\\GlsrUserBundle&#45;&gt;\\Symfony\\Component\\HttpKernel\\Bundle\\Bundle -->
<g id="edge24" class="edge"><title>\\Glsr\\UserBundle\\GlsrUserBundle&#45;&gt;\\Symfony\\Component\\HttpKernel\\Bundle\\Bundle</title>
<path fill="none" stroke="black" d="M759.422,-2148.42C737.145,-2139.23 713.579,-2125.12 700,-2104 609.019,-1962.49 718.009,-1505.92 660,-1348 593.92,-1168.11 425.505,-1001.55 358.31,-940.054"/>
<polygon fill="none" stroke="black" points="360.387,-937.213 350.631,-933.081 355.681,-942.395 360.387,-937.213"/>
</g>
<!-- \\Glsr\\GestockBundle\\DependencyInjection\\Configuration -->
<g id="node15" class="node"><title>\\Glsr\\GestockBundle\\DependencyInjection\\Configuration</title>
<polygon fill="none" stroke="black" points="867,-2016 763,-2016 763,-1980 867,-1980 867,-2016"/>
<text text-anchor="middle" x="815" y="-1995.1" font-family="Courier,monospace" font-size="11.00">Configuration</text>
</g>
<!-- \\Glsr\\GestockBundle\\DependencyInjection\\Configuration&#45;&gt;\\Symfony\\Component\\Config\\Definition\\ConfigurationInterface -->
<g id="edge28" class="edge"><title>\\Glsr\\GestockBundle\\DependencyInjection\\Configuration&#45;&gt;\\Symfony\\Component\\Config\\Definition\\ConfigurationInterface</title>
<path fill="none" stroke="black" stroke-dasharray="1,5" d="M762.636,-2009.12C681.091,-2026.44 522.677,-2060.08 421.834,-2081.5"/>
<polygon fill="none" stroke="black" points="421.011,-2078.09 411.956,-2083.59 422.465,-2084.94 421.011,-2078.09"/>
</g>
<!-- \\Glsr\\GestockBundle\\DependencyInjection\\GlsrGestockExtension -->
<g id="node16" class="node"><title>\\Glsr\\GestockBundle\\DependencyInjection\\GlsrGestockExtension</title>
<polygon fill="none" stroke="black" points="891,-2070 739,-2070 739,-2034 891,-2034 891,-2070"/>
<text text-anchor="middle" x="815" y="-2049.1" font-family="Courier,monospace" font-size="11.00">GlsrGestockExtension</text>
</g>
<!-- \\Glsr\\GestockBundle\\DependencyInjection\\GlsrGestockExtension&#45;&gt;\\Symfony\\Component\\HttpKernel\\DependencyInjection\\Extension -->
<g id="edge30" class="edge"><title>\\Glsr\\GestockBundle\\DependencyInjection\\GlsrGestockExtension&#45;&gt;\\Symfony\\Component\\HttpKernel\\DependencyInjection\\Extension</title>
<path fill="none" stroke="black" d="M777.304,-2070C751.839,-2084.03 719.437,-2105.85 700,-2134 660.306,-2191.48 713.538,-2241.13 660,-2286 594.886,-2340.57 494.962,-2341.13 422.127,-2331.85"/>
<polygon fill="none" stroke="black" points="422.415,-2328.36 412.036,-2330.48 421.474,-2335.3 422.415,-2328.36"/>
</g>
<!-- \\Glsr\\GestockBundle\\Controller\\ArticleController -->
<g id="node18" class="node"><title>\\Glsr\\GestockBundle\\Controller\\ArticleController</title>
<polygon fill="none" stroke="black" points="880,-1934 750,-1934 750,-1898 880,-1898 880,-1934"/>
<text text-anchor="middle" x="815" y="-1913.1" font-family="Courier,monospace" font-size="11.00">ArticleController</text>
</g>
<!-- \\Symfony\\Bundle\\FrameworkBundle\\Controller\\Controller -->
<g id="node71" class="node"><title>\\Symfony\\Bundle\\FrameworkBundle\\Controller\\Controller</title>
<ellipse fill="none" stroke="black" cx="330" cy="-1835" rx="290.121" ry="18.3848"/>
<text text-anchor="middle" x="330" y="-1831.4" font-family="Times Roman,serif" font-size="14.00" fill="gray">\Symfony\Bundle\FrameworkBundle\Controller\Controller</text>
</g>
<!-- \\Glsr\\GestockBundle\\Controller\\ArticleController&#45;&gt;\\Symfony\\Bundle\\FrameworkBundle\\Controller\\Controller -->
<g id="edge32" class="edge"><title>\\Glsr\\GestockBundle\\Controller\\ArticleController&#45;&gt;\\Symfony\\Bundle\\FrameworkBundle\\Controller\\Controller</title>
<path fill="none" stroke="black" d="M749.339,-1905.03C670.358,-1891.84 536.535,-1869.49 441.316,-1853.59"/>
<polygon fill="none" stroke="black" points="441.796,-1850.12 431.356,-1851.93 440.643,-1857.03 441.796,-1850.12"/>
</g>
<!-- \\Glsr\\GestockBundle\\Controller\\SupplierController -->
<g id="node19" class="node"><title>\\Glsr\\GestockBundle\\Controller\\SupplierController</title>
<polygon fill="none" stroke="black" points="884,-1880 746,-1880 746,-1844 884,-1844 884,-1880"/>
<text text-anchor="middle" x="815" y="-1859.1" font-family="Courier,monospace" font-size="11.00">SupplierController</text>
</g>
<!-- \\Glsr\\GestockBundle\\Controller\\SupplierController&#45;&gt;\\Symfony\\Bundle\\FrameworkBundle\\Controller\\Controller -->
<g id="edge34" class="edge"><title>\\Glsr\\GestockBundle\\Controller\\SupplierController&#45;&gt;\\Symfony\\Bundle\\FrameworkBundle\\Controller\\Controller</title>
<path fill="none" stroke="black" d="M745.769,-1858.15C695.753,-1855.36 625.152,-1851.43 556.3,-1847.6"/>
<polygon fill="none" stroke="black" points="556.336,-1844.09 546.157,-1847.03 555.947,-1851.08 556.336,-1844.09"/>
</g>
<!-- \\Glsr\\GestockBundle\\Controller\\GestockController -->
<g id="node20" class="node"><title>\\Glsr\\GestockBundle\\Controller\\GestockController</title>
<polygon fill="none" stroke="black" points="880,-1826 750,-1826 750,-1790 880,-1790 880,-1826"/>
<text text-anchor="middle" x="815" y="-1805.1" font-family="Courier,monospace" font-size="11.00">GestockController</text>
</g>
<!-- \\Glsr\\GestockBundle\\Controller\\GestockController&#45;&gt;\\Symfony\\Bundle\\FrameworkBundle\\Controller\\Controller -->
<g id="edge36" class="edge"><title>\\Glsr\\GestockBundle\\Controller\\GestockController&#45;&gt;\\Symfony\\Bundle\\FrameworkBundle\\Controller\\Controller</title>
<path fill="none" stroke="black" d="M749.339,-1811.66C699.207,-1814.45 626.979,-1818.47 556.552,-1822.39"/>
<polygon fill="none" stroke="black" points="555.967,-1818.91 546.177,-1822.97 556.356,-1825.9 555.967,-1818.91"/>
</g>
<!-- \\Glsr\\GestockBundle\\Controller\\SettingsController -->
<g id="node21" class="node"><title>\\Glsr\\GestockBundle\\Controller\\SettingsController</title>
<polygon fill="none" stroke="black" points="884,-1772 746,-1772 746,-1736 884,-1736 884,-1772"/>
<text text-anchor="middle" x="815" y="-1751.1" font-family="Courier,monospace" font-size="11.00">SettingsController</text>
</g>
<!-- \\Glsr\\GestockBundle\\Controller\\SettingsController&#45;&gt;\\Symfony\\Bundle\\FrameworkBundle\\Controller\\Controller -->
<g id="edge38" class="edge"><title>\\Glsr\\GestockBundle\\Controller\\SettingsController&#45;&gt;\\Symfony\\Bundle\\FrameworkBundle\\Controller\\Controller</title>
<path fill="none" stroke="black" d="M745.769,-1765.56C666.35,-1778.83 535.03,-1800.76 441.224,-1816.42"/>
<polygon fill="none" stroke="black" points="440.411,-1813.01 431.124,-1818.11 441.564,-1819.92 440.411,-1813.01"/>
</g>
<!-- \\Glsr\\GestockBundle\\Entity\\Article -->
<g id="node23" class="node"><title>\\Glsr\\GestockBundle\\Entity\\Article</title>
<polygon fill="none" stroke="black" points="847,-1690 783,-1690 783,-1654 847,-1654 847,-1690"/>
<text text-anchor="middle" x="815" y="-1669.1" font-family="Courier,monospace" font-size="11.00">Article</text>
</g>
<!-- \\Glsr\\GestockBundle\\Entity\\Settings -->
<g id="node24" class="node"><title>\\Glsr\\GestockBundle\\Entity\\Settings</title>
<polygon fill="none" stroke="black" points="850,-1636 780,-1636 780,-1600 850,-1600 850,-1636"/>
<text text-anchor="middle" x="815" y="-1615.1" font-family="Courier,monospace" font-size="11.00">Settings</text>
</g>
<!-- \\Glsr\\GestockBundle\\Entity\\SubFamilyLogRepository -->
<g id="node25" class="node"><title>\\Glsr\\GestockBundle\\Entity\\SubFamilyLogRepository</title>
<polygon fill="none" stroke="black" points="897,-1582 733,-1582 733,-1546 897,-1546 897,-1582"/>
<text text-anchor="middle" x="815" y="-1561.1" font-family="Courier,monospace" font-size="11.00">SubFamilyLogRepository</text>
</g>
<!-- \\Glsr\\GestockBundle\\Entity\\SubFamilyLogRepository&#45;&gt;\\Doctrine\\ORM\\EntityRepository -->
<g id="edge40" class="edge"><title>\\Glsr\\GestockBundle\\Entity\\SubFamilyLogRepository&#45;&gt;\\Doctrine\\ORM\\EntityRepository</title>
<path fill="none" stroke="black" d="M732.199,-1546.47C721.283,-1543.61 710.312,-1540.44 700,-1537 578.482,-1496.51 442.007,-1431.33 373.783,-1397.3"/>
<polygon fill="none" stroke="black" points="375.127,-1394.06 364.618,-1392.71 371.993,-1400.32 375.127,-1394.06"/>
</g>
<!-- \\Glsr\\GestockBundle\\Entity\\CompanyRepository -->
<g id="node26" class="node"><title>\\Glsr\\GestockBundle\\Entity\\CompanyRepository</title>
<polygon fill="none" stroke="black" points="880,-1528 750,-1528 750,-1492 880,-1492 880,-1528"/>
<text text-anchor="middle" x="815" y="-1507.1" font-family="Courier,monospace" font-size="11.00">CompanyRepository</text>
</g>
<!-- \\Glsr\\GestockBundle\\Entity\\CompanyRepository&#45;&gt;\\Doctrine\\ORM\\EntityRepository -->
<g id="edge42" class="edge"><title>\\Glsr\\GestockBundle\\Entity\\CompanyRepository&#45;&gt;\\Doctrine\\ORM\\EntityRepository</title>
<path fill="none" stroke="black" d="M749.473,-1495.25C733.262,-1491.43 715.966,-1487.2 700,-1483 592.236,-1454.64 468.112,-1417.48 394.51,-1394.97"/>
<polygon fill="none" stroke="black" points="395.494,-1391.61 384.908,-1392.02 393.444,-1398.3 395.494,-1391.61"/>
</g>
<!-- \\Glsr\\GestockBundle\\Entity\\ArticleRepository -->
<g id="node27" class="node"><title>\\Glsr\\GestockBundle\\Entity\\ArticleRepository</title>
<polygon fill="none" stroke="black" points="880,-1474 750,-1474 750,-1438 880,-1438 880,-1474"/>
<text text-anchor="middle" x="815" y="-1453.1" font-family="Courier,monospace" font-size="11.00">ArticleRepository</text>
</g>
<!-- \\Glsr\\GestockBundle\\Entity\\ArticleRepository&#45;&gt;\\Doctrine\\ORM\\EntityRepository -->
<g id="edge44" class="edge"><title>\\Glsr\\GestockBundle\\Entity\\ArticleRepository&#45;&gt;\\Doctrine\\ORM\\EntityRepository</title>
<path fill="none" stroke="black" d="M749.339,-1445.03C667.359,-1431.34 526.292,-1407.78 430.64,-1391.81"/>
<polygon fill="none" stroke="black" points="431.1,-1388.34 420.66,-1390.14 429.947,-1395.24 431.1,-1388.34"/>
</g>
<!-- \\Glsr\\GestockBundle\\Entity\\TvaRepository -->
<g id="node28" class="node"><title>\\Glsr\\GestockBundle\\Entity\\TvaRepository</title>
<polygon fill="none" stroke="black" points="867,-1420 763,-1420 763,-1384 867,-1384 867,-1420"/>
<text text-anchor="middle" x="815" y="-1399.1" font-family="Courier,monospace" font-size="11.00">TvaRepository</text>
</g>
<!-- \\Glsr\\GestockBundle\\Entity\\TvaRepository&#45;&gt;\\Doctrine\\ORM\\EntityRepository -->
<g id="edge46" class="edge"><title>\\Glsr\\GestockBundle\\Entity\\TvaRepository&#45;&gt;\\Doctrine\\ORM\\EntityRepository</title>
<path fill="none" stroke="black" d="M762.636,-1399.08C697.645,-1395.47 583.826,-1389.13 489.241,-1383.86"/>
<polygon fill="none" stroke="black" points="489.16,-1380.36 478.981,-1383.29 488.771,-1387.34 489.16,-1380.36"/>
</g>
<!-- \\Glsr\\GestockBundle\\Entity\\SettingsRepository -->
<g id="node29" class="node"><title>\\Glsr\\GestockBundle\\Entity\\SettingsRepository</title>
<polygon fill="none" stroke="black" points="884,-1366 746,-1366 746,-1330 884,-1330 884,-1366"/>
<text text-anchor="middle" x="815" y="-1345.1" font-family="Courier,monospace" font-size="11.00">SettingsRepository</text>
</g>
<!-- \\Glsr\\GestockBundle\\Entity\\SettingsRepository&#45;&gt;\\Doctrine\\ORM\\EntityRepository -->
<g id="edge48" class="edge"><title>\\Glsr\\GestockBundle\\Entity\\SettingsRepository&#45;&gt;\\Doctrine\\ORM\\EntityRepository</title>
<path fill="none" stroke="black" d="M745.769,-1351.85C679.116,-1355.56 575.907,-1361.31 488.997,-1366.15"/>
<polygon fill="none" stroke="black" points="488.543,-1362.67 478.753,-1366.72 488.933,-1369.66 488.543,-1362.67"/>
</g>
<!-- \\Glsr\\GestockBundle\\Entity\\ZoneStorageRepository -->
<g id="node30" class="node"><title>\\Glsr\\GestockBundle\\Entity\\ZoneStorageRepository</title>
<polygon fill="none" stroke="black" points="894,-1312 736,-1312 736,-1276 894,-1276 894,-1312"/>
<text text-anchor="middle" x="815" y="-1291.1" font-family="Courier,monospace" font-size="11.00">ZoneStorageRepository</text>
</g>
<!-- \\Glsr\\GestockBundle\\Entity\\ZoneStorageRepository&#45;&gt;\\Doctrine\\ORM\\EntityRepository -->
<g id="edge50" class="edge"><title>\\Glsr\\GestockBundle\\Entity\\ZoneStorageRepository&#45;&gt;\\Doctrine\\ORM\\EntityRepository</title>
<path fill="none" stroke="black" d="M735.997,-1307.19C652.818,-1321.09 521.603,-1343 430.967,-1358.14"/>
<polygon fill="none" stroke="black" points="430.237,-1354.71 420.95,-1359.81 431.39,-1361.62 430.237,-1354.71"/>
</g>
<!-- \\Glsr\\GestockBundle\\Entity\\ZoneStorage -->
<g id="node31" class="node"><title>\\Glsr\\GestockBundle\\Entity\\ZoneStorage</title>
<polygon fill="none" stroke="black" points="860,-1258 770,-1258 770,-1222 860,-1222 860,-1258"/>
<text text-anchor="middle" x="815" y="-1237.1" font-family="Courier,monospace" font-size="11.00">ZoneStorage</text>
</g>
<!-- \\Glsr\\GestockBundle\\Entity\\Supplier -->
<g id="node32" class="node"><title>\\Glsr\\GestockBundle\\Entity\\Supplier</title>
<polygon fill="none" stroke="black" points="850,-1204 780,-1204 780,-1168 850,-1168 850,-1204"/>
<text text-anchor="middle" x="815" y="-1183.1" font-family="Courier,monospace" font-size="11.00">Supplier</text>
</g>
<!-- \\Glsr\\GestockBundle\\Entity\\UnitStorage -->
<g id="node33" class="node"><title>\\Glsr\\GestockBundle\\Entity\\UnitStorage</title>
<polygon fill="none" stroke="black" points="860,-1150 770,-1150 770,-1114 860,-1114 860,-1150"/>
<text text-anchor="middle" x="815" y="-1129.1" font-family="Courier,monospace" font-size="11.00">UnitStorage</text>
</g>
<!-- \\Glsr\\GestockBundle\\Entity\\UnitStorageRepository -->
<g id="node34" class="node"><title>\\Glsr\\GestockBundle\\Entity\\UnitStorageRepository</title>
<polygon fill="none" stroke="black" points="894,-1096 736,-1096 736,-1060 894,-1060 894,-1096"/>
<text text-anchor="middle" x="815" y="-1075.1" font-family="Courier,monospace" font-size="11.00">UnitStorageRepository</text>
</g>
<!-- \\Glsr\\GestockBundle\\Entity\\UnitStorageRepository&#45;&gt;\\Doctrine\\ORM\\EntityRepository -->
<g id="edge52" class="edge"><title>\\Glsr\\GestockBundle\\Entity\\UnitStorageRepository&#45;&gt;\\Doctrine\\ORM\\EntityRepository</title>
<path fill="none" stroke="black" d="M735.96,-1092.13C723.644,-1095.58 711.275,-1099.82 700,-1105 556.786,-1170.77 413.57,-1296.52 356.182,-1349.97"/>
<polygon fill="none" stroke="black" points="353.565,-1347.62 348.663,-1357.01 358.352,-1352.73 353.565,-1347.62"/>
</g>
<!-- \\Glsr\\GestockBundle\\Entity\\FamilyLog -->
<g id="node35" class="node"><title>\\Glsr\\GestockBundle\\Entity\\FamilyLog</title>
<polygon fill="none" stroke="black" points="853,-1042 777,-1042 777,-1006 853,-1006 853,-1042"/>
<text text-anchor="middle" x="815" y="-1021.1" font-family="Courier,monospace" font-size="11.00">FamilyLog</text>
</g>
<!-- \\Glsr\\GestockBundle\\Entity\\Company -->
<g id="node36" class="node"><title>\\Glsr\\GestockBundle\\Entity\\Company</title>
<polygon fill="none" stroke="black" points="847,-988 783,-988 783,-952 847,-952 847,-988"/>
<text text-anchor="middle" x="815" y="-967.1" font-family="Courier,monospace" font-size="11.00">Company</text>
</g>
<!-- \\Glsr\\GestockBundle\\Entity\\SubFamilyLog -->
<g id="node37" class="node"><title>\\Glsr\\GestockBundle\\Entity\\SubFamilyLog</title>
<polygon fill="none" stroke="black" points="864,-934 766,-934 766,-898 864,-898 864,-934"/>
<text text-anchor="middle" x="815" y="-913.1" font-family="Courier,monospace" font-size="11.00">SubFamilyLog</text>
</g>
<!-- \\Glsr\\GestockBundle\\Entity\\SupplierRepository -->
<g id="node38" class="node"><title>\\Glsr\\GestockBundle\\Entity\\SupplierRepository</title>
<polygon fill="none" stroke="black" points="884,-880 746,-880 746,-844 884,-844 884,-880"/>
<text text-anchor="middle" x="815" y="-859.1" font-family="Courier,monospace" font-size="11.00">SupplierRepository</text>
</g>
<!-- \\Glsr\\GestockBundle\\Entity\\SupplierRepository&#45;&gt;\\Doctrine\\ORM\\EntityRepository -->
<g id="edge54" class="edge"><title>\\Glsr\\GestockBundle\\Entity\\SupplierRepository&#45;&gt;\\Doctrine\\ORM\\EntityRepository</title>
<path fill="none" stroke="black" d="M745.864,-870.114C729.927,-874.124 713.66,-880.1 700,-889 675.274,-905.11 677.833,-918.486 660,-942 542.788,-1096.55 401.429,-1281.57 349.964,-1348.89"/>
<polygon fill="none" stroke="black" points="347.156,-1346.8 343.863,-1356.87 352.717,-1351.05 347.156,-1346.8"/>
</g>
<!-- \\Glsr\\GestockBundle\\Entity\\FamilyLogRepository -->
<g id="node39" class="node"><title>\\Glsr\\GestockBundle\\Entity\\FamilyLogRepository</title>
<polygon fill="none" stroke="black" points="887,-826 743,-826 743,-790 887,-790 887,-826"/>
<text text-anchor="middle" x="815" y="-805.1" font-family="Courier,monospace" font-size="11.00">FamilyLogRepository</text>
</g>
<!-- \\Glsr\\GestockBundle\\Entity\\FamilyLogRepository&#45;&gt;\\Doctrine\\ORM\\EntityRepository -->
<g id="edge56" class="edge"><title>\\Glsr\\GestockBundle\\Entity\\FamilyLogRepository&#45;&gt;\\Doctrine\\ORM\\EntityRepository</title>
<path fill="none" stroke="black" d="M742.338,-813.837C726.98,-817.966 711.853,-824.566 700,-835 661.892,-868.547 684.54,-897.555 660,-942 566.901,-1110.62 412.912,-1285.16 353.967,-1349.35"/>
<polygon fill="none" stroke="black" points="351.145,-1347.25 346.937,-1356.97 356.29,-1351.99 351.145,-1347.25"/>
</g>
<!-- \\Glsr\\GestockBundle\\Entity\\Tva -->
<g id="node40" class="node"><title>\\Glsr\\GestockBundle\\Entity\\Tva</title>
<polygon fill="none" stroke="black" points="842,-772 788,-772 788,-736 842,-736 842,-772"/>
<text text-anchor="middle" x="815" y="-751.1" font-family="Courier,monospace" font-size="11.00">Tva</text>
</g>
<!-- \\Glsr\\GestockBundle\\Form\\SettingsType -->
<g id="node42" class="node"><title>\\Glsr\\GestockBundle\\Form\\SettingsType</title>
<polygon fill="none" stroke="black" points="864,-474 766,-474 766,-438 864,-438 864,-474"/>
<text text-anchor="middle" x="815" y="-453.1" font-family="Courier,monospace" font-size="11.00">SettingsType</text>
</g>
<!-- \\Symfony\\Component\\Form\\AbstractType -->
<g id="node85" class="node"><title>\\Symfony\\Component\\Form\\AbstractType</title>
<ellipse fill="none" stroke="black" cx="330" cy="-429" rx="210.217" ry="18.3848"/>
<text text-anchor="middle" x="330" y="-425.4" font-family="Times Roman,serif" font-size="14.00" fill="gray">\Symfony\Component\Form\AbstractType</text>
</g>
<!-- \\Glsr\\GestockBundle\\Form\\SettingsType&#45;&gt;\\Symfony\\Component\\Form\\AbstractType -->
<g id="edge58" class="edge"><title>\\Glsr\\GestockBundle\\Form\\SettingsType&#45;&gt;\\Symfony\\Component\\Form\\AbstractType</title>
<path fill="none" stroke="black" d="M765.827,-453.263C707.448,-450.013 606.652,-444.401 516.691,-439.393"/>
<polygon fill="none" stroke="black" points="516.801,-435.894 506.622,-438.833 516.412,-442.883 516.801,-435.894"/>
</g>
<!-- \\Glsr\\GestockBundle\\Form\\FamilyLogType -->
<g id="node43" class="node"><title>\\Glsr\\GestockBundle\\Form\\FamilyLogType</title>
<polygon fill="none" stroke="black" points="867,-420 763,-420 763,-384 867,-384 867,-420"/>
<text text-anchor="middle" x="815" y="-399.1" font-family="Courier,monospace" font-size="11.00">FamilyLogType</text>
</g>
<!-- \\Glsr\\GestockBundle\\Form\\FamilyLogType&#45;&gt;\\Symfony\\Component\\Form\\AbstractType -->
<g id="edge60" class="edge"><title>\\Glsr\\GestockBundle\\Form\\FamilyLogType&#45;&gt;\\Symfony\\Component\\Form\\AbstractType</title>
<path fill="none" stroke="black" d="M762.636,-404.915C703.849,-408.188 605.114,-413.684 516.798,-418.601"/>
<polygon fill="none" stroke="black" points="516.426,-415.116 506.636,-419.167 516.815,-422.105 516.426,-415.116"/>
</g>
<!-- \\Glsr\\GestockBundle\\Form\\TvaType -->
<g id="node44" class="node"><title>\\Glsr\\GestockBundle\\Form\\TvaType</title>
<polygon fill="none" stroke="black" points="847,-366 783,-366 783,-330 847,-330 847,-366"/>
<text text-anchor="middle" x="815" y="-345.1" font-family="Courier,monospace" font-size="11.00">TvaType</text>
</g>
<!-- \\Glsr\\GestockBundle\\Form\\TvaType&#45;&gt;\\Symfony\\Component\\Form\\AbstractType -->
<g id="edge62" class="edge"><title>\\Glsr\\GestockBundle\\Form\\TvaType&#45;&gt;\\Symfony\\Component\\Form\\AbstractType</title>
<path fill="none" stroke="black" d="M782.802,-353.377C713.355,-364.976 546.839,-392.786 436.264,-411.253"/>
<polygon fill="none" stroke="black" points="435.364,-407.855 426.077,-412.954 436.517,-414.759 435.364,-407.855"/>
</g>
<!-- \\Glsr\\GestockBundle\\Form\\SubFamilyLogType -->
<g id="node45" class="node"><title>\\Glsr\\GestockBundle\\Form\\SubFamilyLogType</title>
<polygon fill="none" stroke="black" points="877,-312 753,-312 753,-276 877,-276 877,-312"/>
<text text-anchor="middle" x="815" y="-291.1" font-family="Courier,monospace" font-size="11.00">SubFamilyLogType</text>
</g>
<!-- \\Glsr\\GestockBundle\\Form\\SubFamilyLogType&#45;&gt;\\Symfony\\Component\\Form\\AbstractType -->
<g id="edge64" class="edge"><title>\\Glsr\\GestockBundle\\Form\\SubFamilyLogType&#45;&gt;\\Symfony\\Component\\Form\\AbstractType</title>
<path fill="none" stroke="black" d="M752.48,-308.039C735.415,-312.045 716.957,-316.538 700,-321 592.856,-349.194 469.539,-386.093 395.784,-408.645"/>
<polygon fill="none" stroke="black" points="394.692,-405.319 386.155,-411.593 396.742,-412.012 394.692,-405.319"/>
</g>
<!-- \\Glsr\\GestockBundle\\Form\\ArticleReassignType -->
<g id="node46" class="node"><title>\\Glsr\\GestockBundle\\Form\\ArticleReassignType</title>
<polygon fill="none" stroke="black" points="887,-258 743,-258 743,-222 887,-222 887,-258"/>
<text text-anchor="middle" x="815" y="-237.1" font-family="Courier,monospace" font-size="11.00">ArticleReassignType</text>
</g>
<!-- \\Glsr\\GestockBundle\\Form\\ArticleReassignType&#45;&gt;\\Symfony\\Component\\Form\\AbstractType -->
<g id="edge66" class="edge"><title>\\Glsr\\GestockBundle\\Form\\ArticleReassignType&#45;&gt;\\Symfony\\Component\\Form\\AbstractType</title>
<path fill="none" stroke="black" d="M742.356,-254.936C728.178,-258.445 713.522,-262.494 700,-267 578.641,-307.439 442.364,-372.505 374.051,-406.566"/>
<polygon fill="none" stroke="black" points="372.247,-403.555 364.872,-411.161 375.38,-409.815 372.247,-403.555"/>
</g>
<!-- \\Glsr\\GestockBundle\\Form\\ZoneStorageType -->
<g id="node47" class="node"><title>\\Glsr\\GestockBundle\\Form\\ZoneStorageType</title>
<polygon fill="none" stroke="black" points="874,-204 756,-204 756,-168 874,-168 874,-204"/>
<text text-anchor="middle" x="815" y="-183.1" font-family="Courier,monospace" font-size="11.00">ZoneStorageType</text>
</g>
<!-- \\Glsr\\GestockBundle\\Form\\ZoneStorageType&#45;&gt;\\Symfony\\Component\\Form\\AbstractType -->
<g id="edge68" class="edge"><title>\\Glsr\\GestockBundle\\Form\\ZoneStorageType&#45;&gt;\\Symfony\\Component\\Form\\AbstractType</title>
<path fill="none" stroke="black" d="M755.754,-196.372C737.521,-200.498 717.62,-205.972 700,-213 567.37,-265.898 425.593,-360.924 362.969,-405.15"/>
<polygon fill="none" stroke="black" points="360.795,-402.401 354.667,-411.043 364.848,-408.109 360.795,-402.401"/>
</g>
<!-- \\Glsr\\GestockBundle\\Form\\UnitStorageType -->
<g id="node48" class="node"><title>\\Glsr\\GestockBundle\\Form\\UnitStorageType</title>
<polygon fill="none" stroke="black" points="874,-690 756,-690 756,-654 874,-654 874,-690"/>
<text text-anchor="middle" x="815" y="-669.1" font-family="Courier,monospace" font-size="11.00">UnitStorageType</text>
</g>
<!-- \\Glsr\\GestockBundle\\Form\\UnitStorageType&#45;&gt;\\Symfony\\Component\\Form\\AbstractType -->
<g id="edge70" class="edge"><title>\\Glsr\\GestockBundle\\Form\\UnitStorageType&#45;&gt;\\Symfony\\Component\\Form\\AbstractType</title>
<path fill="none" stroke="black" d="M755.754,-661.628C737.521,-657.502 717.62,-652.028 700,-645 567.37,-592.102 425.593,-497.076 362.969,-452.85"/>
<polygon fill="none" stroke="black" points="364.848,-449.891 354.667,-446.957 360.795,-455.599 364.848,-449.891"/>
</g>
<!-- \\Glsr\\GestockBundle\\Form\\CompanyType -->
<g id="node49" class="node"><title>\\Glsr\\GestockBundle\\Form\\CompanyType</title>
<polygon fill="none" stroke="black" points="860,-636 770,-636 770,-600 860,-600 860,-636"/>
<text text-anchor="middle" x="815" y="-615.1" font-family="Courier,monospace" font-size="11.00">CompanyType</text>
</g>
<!-- \\Glsr\\GestockBundle\\Form\\CompanyType&#45;&gt;\\Symfony\\Component\\Form\\AbstractType -->
<g id="edge72" class="edge"><title>\\Glsr\\GestockBundle\\Form\\CompanyType&#45;&gt;\\Symfony\\Component\\Form\\AbstractType</title>
<path fill="none" stroke="black" d="M769.411,-609.295C748.076,-604.715 722.472,-598.488 700,-591 578.641,-550.561 442.364,-485.495 374.051,-451.434"/>
<polygon fill="none" stroke="black" points="375.38,-448.185 364.872,-446.839 372.247,-454.445 375.38,-448.185"/>
</g>
<!-- \\Glsr\\GestockBundle\\Form\\SupplierType -->
<g id="node50" class="node"><title>\\Glsr\\GestockBundle\\Form\\SupplierType</title>
<polygon fill="none" stroke="black" points="864,-582 766,-582 766,-546 864,-546 864,-582"/>
<text text-anchor="middle" x="815" y="-561.1" font-family="Courier,monospace" font-size="11.00">SupplierType</text>
</g>
<!-- \\Glsr\\GestockBundle\\Form\\SupplierType&#45;&gt;\\Symfony\\Component\\Form\\AbstractType -->
<g id="edge74" class="edge"><title>\\Glsr\\GestockBundle\\Form\\SupplierType&#45;&gt;\\Symfony\\Component\\Form\\AbstractType</title>
<path fill="none" stroke="black" d="M765.893,-553.078C745.455,-548.375 721.519,-542.662 700,-537 592.856,-508.806 469.539,-471.907 395.784,-449.355"/>
<polygon fill="none" stroke="black" points="396.742,-445.988 386.155,-446.407 394.692,-452.681 396.742,-445.988"/>
</g>
<!-- \\Glsr\\GestockBundle\\Form\\ArticleType -->
<g id="node51" class="node"><title>\\Glsr\\GestockBundle\\Form\\ArticleType</title>
<polygon fill="none" stroke="black" points="860,-528 770,-528 770,-492 860,-492 860,-528"/>
<text text-anchor="middle" x="815" y="-507.1" font-family="Courier,monospace" font-size="11.00">ArticleType</text>
</g>
<!-- \\Glsr\\GestockBundle\\Form\\ArticleType&#45;&gt;\\Symfony\\Component\\Form\\AbstractType -->
<g id="edge76" class="edge"><title>\\Glsr\\GestockBundle\\Form\\ArticleType&#45;&gt;\\Symfony\\Component\\Form\\AbstractType</title>
<path fill="none" stroke="black" d="M769.372,-502.38C693.645,-489.732 540.058,-464.082 436.076,-446.716"/>
<polygon fill="none" stroke="black" points="436.612,-443.257 426.172,-445.062 435.459,-450.161 436.612,-443.257"/>
</g>
<!-- \\Glsr\\GestockBundle\\Listener\\GlsrRequestListener -->
<g id="node53" class="node"><title>\\Glsr\\GestockBundle\\Listener\\GlsrRequestListener</title>
<polygon fill="none" stroke="black" points="887,-122 743,-122 743,-86 887,-86 887,-122"/>
<text text-anchor="middle" x="815" y="-101.1" font-family="Courier,monospace" font-size="11.00">GlsrRequestListener</text>
</g>
<!-- \\Glsr\\GestockBundle\\GlsrGestockBundle -->
<g id="node54" class="node"><title>\\Glsr\\GestockBundle\\GlsrGestockBundle</title>
<polygon fill="none" stroke="black" points="880,-68 750,-68 750,-32 880,-32 880,-68"/>
<text text-anchor="middle" x="815" y="-47.1" font-family="Courier,monospace" font-size="11.00">GlsrGestockBundle</text>
</g>
<!-- \\Glsr\\GestockBundle\\GlsrGestockBundle&#45;&gt;\\Symfony\\Component\\HttpKernel\\Bundle\\Bundle -->
<g id="edge26" class="edge"><title>\\Glsr\\GestockBundle\\GlsrGestockBundle&#45;&gt;\\Symfony\\Component\\HttpKernel\\Bundle\\Bundle</title>
<path fill="none" stroke="black" d="M749.368,-49.7865C730.968,-53.061 712.578,-60.0766 700,-74 642.783,-137.335 690.374,-376.234 660,-456 588.514,-643.733 420.387,-824.685 355.85,-889.691"/>
<polygon fill="none" stroke="black" points="353.102,-887.489 348.507,-897.036 358.052,-892.439 353.102,-887.489"/>
</g>
</g>
</svg>
