<?xml version="1.0" encoding="UTF-8" standalone="no"?>
<!DOCTYPE svg PUBLIC "-//W3C//DTD SVG 1.1//EN"
 "http://www.w3.org/Graphics/SVG/1.1/DTD/svg11.dtd">
<!-- Generated by graphviz version 2.26.3 (20100126.1600)
 -->
<!-- Title: G Pages: 1 -->
<svg width="946pt" height="2752pt"
 viewBox="0.00 0.00 946.00 2752.00" xmlns="http://www.w3.org/2000/svg" xmlns:xlink="http://www.w3.org/1999/xlink">
<g id="graph1" class="graph" transform="scale(1 1) rotate(0) translate(4 2748)">
<title>G</title>
<polygon fill="white" stroke="white" points="-4,5 -4,-2748 943,-2748 943,5 -4,5"/>
<g id="graph2" class="cluster"><title>cluster_Global</title>
<polyline fill="none" stroke="gray" points="712,-8 918,-8 "/>
<path fill="none" stroke="gray" d="M918,-8C924,-8 930,-14 930,-20"/>
<polyline fill="none" stroke="gray" points="930,-20 930,-2724 "/>
<path fill="none" stroke="gray" d="M930,-2724C930,-2730 924,-2736 918,-2736"/>
<polyline fill="none" stroke="gray" points="918,-2736 712,-2736 "/>
<path fill="none" stroke="gray" d="M712,-2736C706,-2736 700,-2730 700,-2724"/>
<polyline fill="none" stroke="gray" points="700,-2724 700,-20 "/>
<path fill="none" stroke="gray" d="M700,-20C700,-14 706,-8 712,-8"/>
<text text-anchor="middle" x="815" y="-2722.1" font-family="Times Roman,serif" font-size="11.00" fill="gray">Global</text>
</g>
<g id="graph3" class="cluster"><title>cluster_\Glsr</title>
<polyline fill="none" stroke="gray" points="720,-16 910,-16 "/>
<path fill="none" stroke="gray" d="M910,-16C916,-16 922,-22 922,-28"/>
<polyline fill="none" stroke="gray" points="922,-28 922,-2694 "/>
<path fill="none" stroke="gray" d="M922,-2694C922,-2700 916,-2706 910,-2706"/>
<polyline fill="none" stroke="gray" points="910,-2706 720,-2706 "/>
<path fill="none" stroke="gray" d="M720,-2706C714,-2706 708,-2700 708,-2694"/>
<polyline fill="none" stroke="gray" points="708,-2694 708,-28 "/>
<path fill="none" stroke="gray" d="M708,-28C708,-22 714,-16 720,-16"/>
<text text-anchor="middle" x="815" y="-2692.1" font-family="Times Roman,serif" font-size="11.00" fill="gray">Glsr</text>
</g>
<g id="graph4" class="cluster"><title>cluster_\Glsr\UserBundle</title>
<polyline fill="none" stroke="gray" points="742,-2246 888,-2246 "/>
<path fill="none" stroke="gray" d="M888,-2246C894,-2246 900,-2252 900,-2258"/>
<polyline fill="none" stroke="gray" points="900,-2258 900,-2664 "/>
<path fill="none" stroke="gray" d="M900,-2664C900,-2670 894,-2676 888,-2676"/>
<polyline fill="none" stroke="gray" points="888,-2676 742,-2676 "/>
<path fill="none" stroke="gray" d="M742,-2676C736,-2676 730,-2670 730,-2664"/>
<polyline fill="none" stroke="gray" points="730,-2664 730,-2258 "/>
<path fill="none" stroke="gray" d="M730,-2258C730,-2252 736,-2246 742,-2246"/>
<text text-anchor="middle" x="815" y="-2662.1" font-family="Times Roman,serif" font-size="11.00" fill="gray">UserBundle</text>
</g>
<g id="graph5" class="cluster"><title>cluster_\Glsr\UserBundle\Entity</title>
<polyline fill="none" stroke="gray" points="763,-2518 867,-2518 "/>
<path fill="none" stroke="gray" d="M867,-2518C873,-2518 879,-2524 879,-2530"/>
<polyline fill="none" stroke="gray" points="879,-2530 879,-2634 "/>
<path fill="none" stroke="gray" d="M879,-2634C879,-2640 873,-2646 867,-2646"/>
<polyline fill="none" stroke="gray" points="867,-2646 763,-2646 "/>
<path fill="none" stroke="gray" d="M763,-2646C757,-2646 751,-2640 751,-2634"/>
<polyline fill="none" stroke="gray" points="751,-2634 751,-2530 "/>
<path fill="none" stroke="gray" d="M751,-2530C751,-2524 757,-2518 763,-2518"/>
<text text-anchor="middle" x="815" y="-2632.1" font-family="Times Roman,serif" font-size="11.00" fill="gray">Entity</text>
</g>
<g id="graph6" class="cluster"><title>cluster_\Glsr\UserBundle\DependencyInjection</title>
<polyline fill="none" stroke="gray" points="753,-2382 877,-2382 "/>
<path fill="none" stroke="gray" d="M877,-2382C883,-2382 889,-2388 889,-2394"/>
<polyline fill="none" stroke="gray" points="889,-2394 889,-2498 "/>
<path fill="none" stroke="gray" d="M889,-2498C889,-2504 883,-2510 877,-2510"/>
<polyline fill="none" stroke="gray" points="877,-2510 753,-2510 "/>
<path fill="none" stroke="gray" d="M753,-2510C747,-2510 741,-2504 741,-2498"/>
<polyline fill="none" stroke="gray" points="741,-2498 741,-2394 "/>
<path fill="none" stroke="gray" d="M741,-2394C741,-2388 747,-2382 753,-2382"/>
<text text-anchor="middle" x="815" y="-2496.1" font-family="Times Roman,serif" font-size="11.00" fill="gray">DependencyInjection</text>
</g>
<g id="graph7" class="cluster"><title>cluster_\Glsr\UserBundle\Controller</title>
<polyline fill="none" stroke="gray" points="750,-2300 880,-2300 "/>
<path fill="none" stroke="gray" d="M880,-2300C886,-2300 892,-2306 892,-2312"/>
<polyline fill="none" stroke="gray" points="892,-2312 892,-2362 "/>
<path fill="none" stroke="gray" d="M892,-2362C892,-2368 886,-2374 880,-2374"/>
<polyline fill="none" stroke="gray" points="880,-2374 750,-2374 "/>
<path fill="none" stroke="gray" d="M750,-2374C744,-2374 738,-2368 738,-2362"/>
<polyline fill="none" stroke="gray" points="738,-2362 738,-2312 "/>
<path fill="none" stroke="gray" d="M738,-2312C738,-2306 744,-2300 750,-2300"/>
<text text-anchor="middle" x="815" y="-2360.1" font-family="Times Roman,serif" font-size="11.00" fill="gray">Controller</text>
</g>
<g id="graph8" class="cluster"><title>cluster_\Glsr\GestockBundle</title>
<polyline fill="none" stroke="gray" points="728,-24 902,-24 "/>
<path fill="none" stroke="gray" d="M902,-24C908,-24 914,-30 914,-36"/>
<polyline fill="none" stroke="gray" points="914,-36 914,-2226 "/>
<path fill="none" stroke="gray" d="M914,-2226C914,-2232 908,-2238 902,-2238"/>
<polyline fill="none" stroke="gray" points="902,-2238 728,-2238 "/>
<path fill="none" stroke="gray" d="M728,-2238C722,-2238 716,-2232 716,-2226"/>
<polyline fill="none" stroke="gray" points="716,-2226 716,-36 "/>
<path fill="none" stroke="gray" d="M716,-36C716,-30 722,-24 728,-24"/>
<text text-anchor="middle" x="815" y="-2224.1" font-family="Times Roman,serif" font-size="11.00" fill="gray">GestockBundle</text>
</g>
<g id="graph9" class="cluster"><title>cluster_\Glsr\GestockBundle\Listener</title>
<polyline fill="none" stroke="gray" points="746,-2134 884,-2134 "/>
<path fill="none" stroke="gray" d="M884,-2134C890,-2134 896,-2140 896,-2146"/>
<polyline fill="none" stroke="gray" points="896,-2146 896,-2196 "/>
<path fill="none" stroke="gray" d="M896,-2196C896,-2202 890,-2208 884,-2208"/>
<polyline fill="none" stroke="gray" points="884,-2208 746,-2208 "/>
<path fill="none" stroke="gray" d="M746,-2208C740,-2208 734,-2202 734,-2196"/>
<polyline fill="none" stroke="gray" points="734,-2196 734,-2146 "/>
<path fill="none" stroke="gray" d="M734,-2146C734,-2140 740,-2134 746,-2134"/>
<text text-anchor="middle" x="815" y="-2194.1" font-family="Times Roman,serif" font-size="11.00" fill="gray">Listener</text>
</g>
<g id="graph10" class="cluster"><title>cluster_\Glsr\GestockBundle\Form</title>
<polyline fill="none" stroke="gray" points="746,-330 884,-330 "/>
<path fill="none" stroke="gray" d="M884,-330C890,-330 896,-336 896,-342"/>
<polyline fill="none" stroke="gray" points="896,-342 896,-878 "/>
<path fill="none" stroke="gray" d="M896,-878C896,-884 890,-890 884,-890"/>
<polyline fill="none" stroke="gray" points="884,-890 746,-890 "/>
<path fill="none" stroke="gray" d="M746,-890C740,-890 734,-884 734,-878"/>
<polyline fill="none" stroke="gray" points="734,-878 734,-342 "/>
<path fill="none" stroke="gray" d="M734,-342C734,-336 740,-330 746,-330"/>
<text text-anchor="middle" x="815" y="-876.1" font-family="Times Roman,serif" font-size="11.00" fill="gray">Form</text>
</g>
<g id="graph11" class="cluster"><title>cluster_\Glsr\GestockBundle\Entity</title>
<polyline fill="none" stroke="gray" points="736,-1080 894,-1080 "/>
<path fill="none" stroke="gray" d="M894,-1080C900,-1080 906,-1086 906,-1092"/>
<polyline fill="none" stroke="gray" points="906,-1092 906,-2114 "/>
<path fill="none" stroke="gray" d="M906,-2114C906,-2120 900,-2126 894,-2126"/>
<polyline fill="none" stroke="gray" points="894,-2126 736,-2126 "/>
<path fill="none" stroke="gray" d="M736,-2126C730,-2126 724,-2120 724,-2114"/>
<polyline fill="none" stroke="gray" points="724,-2114 724,-1092 "/>
<path fill="none" stroke="gray" d="M724,-1092C724,-1086 730,-1080 736,-1080"/>
<text text-anchor="middle" x="815" y="-2112.1" font-family="Times Roman,serif" font-size="11.00" fill="gray">Entity</text>
</g>
<g id="graph12" class="cluster"><title>cluster_\Glsr\GestockBundle\DependencyInjection</title>
<polyline fill="none" stroke="gray" points="743,-944 887,-944 "/>
<path fill="none" stroke="gray" d="M887,-944C893,-944 899,-950 899,-956"/>
<polyline fill="none" stroke="gray" points="899,-956 899,-1060 "/>
<path fill="none" stroke="gray" d="M899,-1060C899,-1066 893,-1072 887,-1072"/>
<polyline fill="none" stroke="gray" points="887,-1072 743,-1072 "/>
<path fill="none" stroke="gray" d="M743,-1072C737,-1072 731,-1066 731,-1060"/>
<polyline fill="none" stroke="gray" points="731,-1060 731,-956 "/>
<path fill="none" stroke="gray" d="M731,-956C731,-950 737,-944 743,-944"/>
<text text-anchor="middle" x="815" y="-1058.1" font-family="Times Roman,serif" font-size="11.00" fill="gray">DependencyInjection</text>
</g>
<g id="graph13" class="cluster"><title>cluster_\Glsr\GestockBundle\Controller</title>
<polyline fill="none" stroke="gray" points="746,-32 884,-32 "/>
<path fill="none" stroke="gray" d="M884,-32C890,-32 896,-38 896,-44"/>
<polyline fill="none" stroke="gray" points="896,-44 896,-310 "/>
<path fill="none" stroke="gray" d="M896,-310C896,-316 890,-322 884,-322"/>
<polyline fill="none" stroke="gray" points="884,-322 746,-322 "/>
<path fill="none" stroke="gray" d="M746,-322C740,-322 734,-316 734,-310"/>
<polyline fill="none" stroke="gray" points="734,-310 734,-44 "/>
<path fill="none" stroke="gray" d="M734,-44C734,-38 740,-32 746,-32"/>
<text text-anchor="middle" x="815" y="-308.1" font-family="Times Roman,serif" font-size="11.00" fill="gray">Controller</text>
</g>
<!-- \\Glsr\\UserBundle\\Entity\\UserRepository -->
<g id="node5" class="node"><title>\\Glsr\\UserBundle\\Entity\\UserRepository</title>
<polygon fill="none" stroke="black" points="870,-2562 760,-2562 760,-2526 870,-2526 870,-2562"/>
<text text-anchor="middle" x="815" y="-2541.1" font-family="Courier,monospace" font-size="11.00">UserRepository</text>
</g>
<!-- \\Doctrine\\ORM\\EntityRepository -->
<g id="node60" class="node"><title>\\Doctrine\\ORM\\EntityRepository</title>
<ellipse fill="none" stroke="black" cx="330" cy="-1700" rx="167.084" ry="18.3848"/>
<text text-anchor="middle" x="330" y="-1696.4" font-family="Times Roman,serif" font-size="14.00" fill="gray">\Doctrine\ORM\EntityRepository</text>
</g>
<!-- \\Glsr\\UserBundle\\Entity\\UserRepository&#45;&gt;\\Doctrine\\ORM\\EntityRepository -->
<g id="edge16" class="edge"><title>\\Glsr\\UserBundle\\Entity\\UserRepository&#45;&gt;\\Doctrine\\ORM\\EntityRepository</title>
<path fill="none" stroke="black" d="M759.36,-2541.87C738.026,-2538.2 715.186,-2530.31 700,-2514 633.764,-2442.87 692.756,-2390.51 660,-2299 575.429,-2062.74 405.567,-1808.3 348.893,-1726.74"/>
<polygon fill="none" stroke="black" points="351.45,-1724.29 342.856,-1718.09 345.71,-1728.3 351.45,-1724.29"/>
</g>
<!-- \\Glsr\\UserBundle\\Entity\\User -->
<g id="node6" class="node"><title>\\Glsr\\UserBundle\\Entity\\User</title>
<polygon fill="none" stroke="black" points="842,-2616 788,-2616 788,-2580 842,-2580 842,-2616"/>
<text text-anchor="middle" x="815" y="-2595.1" font-family="Courier,monospace" font-size="11.00">User</text>
</g>
<!-- \\FOS\\UserBundle\\Entity\\User -->
<g id="node62" class="node"><title>\\FOS\\UserBundle\\Entity\\User</title>
<ellipse fill="none" stroke="black" cx="330" cy="-2598" rx="152.234" ry="18.3848"/>
<text text-anchor="middle" x="330" y="-2594.4" font-family="Times Roman,serif" font-size="14.00" fill="gray">\FOS\UserBundle\Entity\User</text>
</g>
<!-- \\Glsr\\UserBundle\\Entity\\User&#45;&gt;\\FOS\\UserBundle\\Entity\\User -->
<g id="edge18" class="edge"><title>\\Glsr\\UserBundle\\Entity\\User&#45;&gt;\\FOS\\UserBundle\\Entity\\User</title>
<path fill="none" stroke="black" d="M787.885,-2598C732.075,-2598 600.544,-2598 492.706,-2598"/>
<polygon fill="none" stroke="black" points="492.679,-2594.5 482.679,-2598 492.679,-2601.5 492.679,-2594.5"/>
</g>
<!-- \\Glsr\\UserBundle\\DependencyInjection\\GlsrUserExtension -->
<g id="node8" class="node"><title>\\Glsr\\UserBundle\\DependencyInjection\\GlsrUserExtension</title>
<polygon fill="none" stroke="black" points="880,-2480 750,-2480 750,-2444 880,-2444 880,-2480"/>
<text text-anchor="middle" x="815" y="-2459.1" font-family="Courier,monospace" font-size="11.00">GlsrUserExtension</text>
</g>
<!-- \\Symfony\\Component\\HttpKernel\\DependencyInjection\\Extension -->
<g id="node64" class="node"><title>\\Symfony\\Component\\HttpKernel\\DependencyInjection\\Extension</title>
<ellipse fill="none" stroke="black" cx="330" cy="-1362" rx="329.012" ry="18.3848"/>
<text text-anchor="middle" x="330" y="-1358.4" font-family="Times Roman,serif" font-size="14.00" fill="gray">\Symfony\Component\HttpKernel\DependencyInjection\Extension</text>
</g>
<!-- \\Glsr\\UserBundle\\DependencyInjection\\GlsrUserExtension&#45;&gt;\\Symfony\\Component\\HttpKernel\\DependencyInjection\\Extension -->
<g id="edge20" class="edge"><title>\\Glsr\\UserBundle\\DependencyInjection\\GlsrUserExtension&#45;&gt;\\Symfony\\Component\\HttpKernel\\DependencyInjection\\Extension</title>
<path fill="none" stroke="black" d="M749.382,-2460.9C730.755,-2457.2 712.233,-2449.63 700,-2435 645.62,-2369.95 695.631,-1749.93 660,-1673 596.702,-1536.33 443.706,-1430.24 370.433,-1385.36"/>
<polygon fill="none" stroke="black" points="371.849,-1382.12 361.482,-1379.93 368.223,-1388.11 371.849,-1382.12"/>
</g>
<!-- \\Glsr\\UserBundle\\DependencyInjection\\Configuration -->
<g id="node9" class="node"><title>\\Glsr\\UserBundle\\DependencyInjection\\Configuration</title>
<polygon fill="none" stroke="black" points="867,-2426 763,-2426 763,-2390 867,-2390 867,-2426"/>
<text text-anchor="middle" x="815" y="-2405.1" font-family="Courier,monospace" font-size="11.00">Configuration</text>
</g>
<!-- \\Symfony\\Component\\Config\\Definition\\ConfigurationInterface -->
<g id="node66" class="node"><title>\\Symfony\\Component\\Config\\Definition\\ConfigurationInterface</title>
<ellipse fill="none" stroke="black" cx="330" cy="-1139" rx="314.162" ry="18.3848"/>
<text text-anchor="middle" x="330" y="-1135.4" font-family="Times Roman,serif" font-size="14.00" fill="gray">\Symfony\Component\Config\Definition\ConfigurationInterface</text>
</g>
<!-- \\Glsr\\UserBundle\\DependencyInjection\\Configuration&#45;&gt;\\Symfony\\Component\\Config\\Definition\\ConfigurationInterface -->
<g id="edge22" class="edge"><title>\\Glsr\\UserBundle\\DependencyInjection\\Configuration&#45;&gt;\\Symfony\\Component\\Config\\Definition\\ConfigurationInterface</title>
<path fill="none" stroke="black" stroke-dasharray="1,5" d="M762.89,-2407.64C740.011,-2404.57 714.994,-2396.66 700,-2378 627.35,-2287.6 719.287,-1434.67 660,-1335 603.813,-1240.54 483.032,-1186.43 404.222,-1159.9"/>
<polygon fill="none" stroke="black" points="404.941,-1156.45 394.348,-1156.64 402.75,-1163.1 404.941,-1156.45"/>
</g>
<!-- \\Glsr\\UserBundle\\Controller\\SecurityController -->
<g id="node11" class="node"><title>\\Glsr\\UserBundle\\Controller\\SecurityController</title>
<polygon fill="none" stroke="black" points="884,-2344 746,-2344 746,-2308 884,-2308 884,-2344"/>
<text text-anchor="middle" x="815" y="-2323.1" font-family="Courier,monospace" font-size="11.00">SecurityController</text>
</g>
<!-- \\FOS\\UserBundle\\Controller\\SecurityController -->
<g id="node68" class="node"><title>\\FOS\\UserBundle\\Controller\\SecurityController</title>
<ellipse fill="none" stroke="black" cx="330" cy="-2326" rx="239.002" ry="18.3848"/>
<text text-anchor="middle" x="330" y="-2322.4" font-family="Times Roman,serif" font-size="14.00" fill="gray">\FOS\UserBundle\Controller\SecurityController</text>
</g>
<!-- \\Glsr\\UserBundle\\Controller\\SecurityController&#45;&gt;\\FOS\\UserBundle\\Controller\\SecurityController -->
<g id="edge24" class="edge"><title>\\Glsr\\UserBundle\\Controller\\SecurityController&#45;&gt;\\FOS\\UserBundle\\Controller\\SecurityController</title>
<path fill="none" stroke="black" d="M745.769,-2326C701.329,-2326 640.637,-2326 579.361,-2326"/>
<polygon fill="none" stroke="black" points="579.125,-2322.5 569.125,-2326 579.125,-2329.5 579.125,-2322.5"/>
</g>
<!-- \\Glsr\\UserBundle\\GlsrUserBundle -->
<g id="node12" class="node"><title>\\Glsr\\UserBundle\\GlsrUserBundle</title>
<polygon fill="none" stroke="black" points="870,-2290 760,-2290 760,-2254 870,-2254 870,-2290"/>
<text text-anchor="middle" x="815" y="-2269.1" font-family="Courier,monospace" font-size="11.00">GlsrUserBundle</text>
</g>
<!-- \\Symfony\\Component\\HttpKernel\\Bundle\\Bundle -->
<g id="node58" class="node"><title>\\Symfony\\Component\\HttpKernel\\Bundle\\Bundle</title>
<ellipse fill="none" stroke="black" cx="330" cy="-1000" rx="246.78" ry="18.3848"/>
<text text-anchor="middle" x="330" y="-996.4" font-family="Times Roman,serif" font-size="14.00" fill="gray">\Symfony\Component\HttpKernel\Bundle\Bundle</text>
</g>
<!-- \\Glsr\\UserBundle\\GlsrUserBundle&#45;&gt;\\Symfony\\Component\\HttpKernel\\Bundle\\Bundle -->
<g id="edge14" class="edge"><title>\\Glsr\\UserBundle\\GlsrUserBundle&#45;&gt;\\Symfony\\Component\\HttpKernel\\Bundle\\Bundle</title>
<path fill="none" stroke="black" d="M759.255,-2256.53C736.948,-2247.35 713.404,-2233.23 700,-2212 634.71,-2108.58 733.036,-1210.1 660,-1112 620.903,-1059.49 555.897,-1031.36 493.869,-1016.38"/>
<polygon fill="none" stroke="black" points="494.476,-1012.93 483.944,-1014.09 492.9,-1019.75 494.476,-1012.93"/>
</g>
<!-- \\Glsr\\GestockBundle\\Listener\\GlsrRequestListener -->
<g id="node15" class="node"><title>\\Glsr\\GestockBundle\\Listener\\GlsrRequestListener</title>
<polygon fill="none" stroke="black" points="887,-2178 743,-2178 743,-2142 887,-2142 887,-2178"/>
<text text-anchor="middle" x="815" y="-2157.1" font-family="Courier,monospace" font-size="11.00">GlsrRequestListener</text>
</g>
<!-- \\Glsr\\GestockBundle\\Form\\ZoneStorageType -->
<g id="node17" class="node"><title>\\Glsr\\GestockBundle\\Form\\ZoneStorageType</title>
<polygon fill="none" stroke="black" points="874,-428 756,-428 756,-392 874,-392 874,-428"/>
<text text-anchor="middle" x="815" y="-407.1" font-family="Courier,monospace" font-size="11.00">ZoneStorageType</text>
</g>
<!-- \\Symfony\\Component\\Form\\AbstractType -->
<g id="node71" class="node"><title>\\Symfony\\Component\\Form\\AbstractType</title>
<ellipse fill="none" stroke="black" cx="330" cy="-599" rx="210.217" ry="18.3848"/>
<text text-anchor="middle" x="330" y="-595.4" font-family="Times Roman,serif" font-size="14.00" fill="gray">\Symfony\Component\Form\AbstractType</text>
</g>
<!-- \\Glsr\\GestockBundle\\Form\\ZoneStorageType&#45;&gt;\\Symfony\\Component\\Form\\AbstractType -->
<g id="edge28" class="edge"><title>\\Glsr\\GestockBundle\\Form\\ZoneStorageType&#45;&gt;\\Symfony\\Component\\Form\\AbstractType</title>
<path fill="none" stroke="black" d="M755.92,-421.701C737.787,-425.871 717.9,-431.035 700,-437 578.641,-477.439 442.364,-542.505 374.051,-576.566"/>
<polygon fill="none" stroke="black" points="372.247,-573.555 364.872,-581.161 375.38,-579.815 372.247,-573.555"/>
</g>
<!-- \\Glsr\\GestockBundle\\Form\\UnitStorageType -->
<g id="node18" class="node"><title>\\Glsr\\GestockBundle\\Form\\UnitStorageType</title>
<polygon fill="none" stroke="black" points="874,-374 756,-374 756,-338 874,-338 874,-374"/>
<text text-anchor="middle" x="815" y="-353.1" font-family="Courier,monospace" font-size="11.00">UnitStorageType</text>
</g>
<!-- \\Glsr\\GestockBundle\\Form\\UnitStorageType&#45;&gt;\\Symfony\\Component\\Form\\AbstractType -->
<g id="edge30" class="edge"><title>\\Glsr\\GestockBundle\\Form\\UnitStorageType&#45;&gt;\\Symfony\\Component\\Form\\AbstractType</title>
<path fill="none" stroke="black" d="M755.754,-366.372C737.521,-370.498 717.62,-375.972 700,-383 567.37,-435.898 425.593,-530.924 362.969,-575.15"/>
<polygon fill="none" stroke="black" points="360.795,-572.401 354.667,-581.043 364.848,-578.109 360.795,-572.401"/>
</g>
<!-- \\Glsr\\GestockBundle\\Form\\TvaType -->
<g id="node19" class="node"><title>\\Glsr\\GestockBundle\\Form\\TvaType</title>
<polygon fill="none" stroke="black" points="847,-860 783,-860 783,-824 847,-824 847,-860"/>
<text text-anchor="middle" x="815" y="-839.1" font-family="Courier,monospace" font-size="11.00">TvaType</text>
</g>
<!-- \\Glsr\\GestockBundle\\Form\\TvaType&#45;&gt;\\Symfony\\Component\\Form\\AbstractType -->
<g id="edge32" class="edge"><title>\\Glsr\\GestockBundle\\Form\\TvaType&#45;&gt;\\Symfony\\Component\\Form\\AbstractType</title>
<path fill="none" stroke="black" d="M782.988,-837.124C759.474,-832.916 727.05,-825.788 700,-815 567.37,-762.102 425.593,-667.076 362.969,-622.85"/>
<polygon fill="none" stroke="black" points="364.848,-619.891 354.667,-616.957 360.795,-625.599 364.848,-619.891"/>
</g>
<!-- \\Glsr\\GestockBundle\\Form\\SupplierType -->
<g id="node20" class="node"><title>\\Glsr\\GestockBundle\\Form\\SupplierType</title>
<polygon fill="none" stroke="black" points="864,-806 766,-806 766,-770 864,-770 864,-806"/>
<text text-anchor="middle" x="815" y="-785.1" font-family="Courier,monospace" font-size="11.00">SupplierType</text>
</g>
<!-- \\Glsr\\GestockBundle\\Form\\SupplierType&#45;&gt;\\Symfony\\Component\\Form\\AbstractType -->
<g id="edge34" class="edge"><title>\\Glsr\\GestockBundle\\Form\\SupplierType&#45;&gt;\\Symfony\\Component\\Form\\AbstractType</title>
<path fill="none" stroke="black" d="M765.769,-778.507C745.204,-774.011 721.207,-768.067 700,-761 578.641,-720.561 442.364,-655.495 374.051,-621.434"/>
<polygon fill="none" stroke="black" points="375.38,-618.185 364.872,-616.839 372.247,-624.445 375.38,-618.185"/>
</g>
<!-- \\Glsr\\GestockBundle\\Form\\SubFamilyLogType -->
<g id="node21" class="node"><title>\\Glsr\\GestockBundle\\Form\\SubFamilyLogType</title>
<polygon fill="none" stroke="black" points="877,-752 753,-752 753,-716 877,-716 877,-752"/>
<text text-anchor="middle" x="815" y="-731.1" font-family="Courier,monospace" font-size="11.00">SubFamilyLogType</text>
</g>
<!-- \\Glsr\\GestockBundle\\Form\\SubFamilyLogType&#45;&gt;\\Symfony\\Component\\Form\\AbstractType -->
<g id="edge36" class="edge"><title>\\Glsr\\GestockBundle\\Form\\SubFamilyLogType&#45;&gt;\\Symfony\\Component\\Form\\AbstractType</title>
<path fill="none" stroke="black" d="M752.48,-719.961C735.415,-715.955 716.957,-711.462 700,-707 592.856,-678.806 469.539,-641.907 395.784,-619.355"/>
<polygon fill="none" stroke="black" points="396.742,-615.988 386.155,-616.407 394.692,-622.681 396.742,-615.988"/>
</g>
<!-- \\Glsr\\GestockBundle\\Form\\SettingsType -->
<g id="node22" class="node"><title>\\Glsr\\GestockBundle\\Form\\SettingsType</title>
<polygon fill="none" stroke="black" points="864,-698 766,-698 766,-662 864,-662 864,-698"/>
<text text-anchor="middle" x="815" y="-677.1" font-family="Courier,monospace" font-size="11.00">SettingsType</text>
</g>
<!-- \\Glsr\\GestockBundle\\Form\\SettingsType&#45;&gt;\\Symfony\\Component\\Form\\AbstractType -->
<g id="edge38" class="edge"><title>\\Glsr\\GestockBundle\\Form\\SettingsType&#45;&gt;\\Symfony\\Component\\Form\\AbstractType</title>
<path fill="none" stroke="black" d="M765.827,-671.788C689.033,-658.962 538.839,-633.878 436.463,-616.78"/>
<polygon fill="none" stroke="black" points="436.839,-613.295 426.399,-615.1 435.686,-620.199 436.839,-613.295"/>
</g>
<!-- \\Glsr\\GestockBundle\\Form\\FamilyLogType -->
<g id="node23" class="node"><title>\\Glsr\\GestockBundle\\Form\\FamilyLogType</title>
<polygon fill="none" stroke="black" points="867,-644 763,-644 763,-608 867,-608 867,-644"/>
<text text-anchor="middle" x="815" y="-623.1" font-family="Courier,monospace" font-size="11.00">FamilyLogType</text>
</g>
<!-- \\Glsr\\GestockBundle\\Form\\FamilyLogType&#45;&gt;\\Symfony\\Component\\Form\\AbstractType -->
<g id="edge40" class="edge"><title>\\Glsr\\GestockBundle\\Form\\FamilyLogType&#45;&gt;\\Symfony\\Component\\Form\\AbstractType</title>
<path fill="none" stroke="black" d="M762.636,-623.085C703.849,-619.812 605.114,-614.316 516.798,-609.399"/>
<polygon fill="none" stroke="black" points="516.815,-605.895 506.636,-608.833 516.426,-612.884 516.815,-605.895"/>
</g>
<!-- \\Glsr\\GestockBundle\\Form\\CompanyType -->
<g id="node24" class="node"><title>\\Glsr\\GestockBundle\\Form\\CompanyType</title>
<polygon fill="none" stroke="black" points="860,-590 770,-590 770,-554 860,-554 860,-590"/>
<text text-anchor="middle" x="815" y="-569.1" font-family="Courier,monospace" font-size="11.00">CompanyType</text>
</g>
<!-- \\Glsr\\GestockBundle\\Form\\CompanyType&#45;&gt;\\Symfony\\Component\\Form\\AbstractType -->
<g id="edge42" class="edge"><title>\\Glsr\\GestockBundle\\Form\\CompanyType&#45;&gt;\\Symfony\\Component\\Form\\AbstractType</title>
<path fill="none" stroke="black" d="M769.372,-574.54C711.583,-577.757 608.451,-583.499 516.624,-588.611"/>
<polygon fill="none" stroke="black" points="516.424,-585.116 506.634,-589.167 516.814,-592.105 516.424,-585.116"/>
</g>
<!-- \\Glsr\\GestockBundle\\Form\\ArticleType -->
<g id="node25" class="node"><title>\\Glsr\\GestockBundle\\Form\\ArticleType</title>
<polygon fill="none" stroke="black" points="860,-536 770,-536 770,-500 860,-500 860,-536"/>
<text text-anchor="middle" x="815" y="-515.1" font-family="Courier,monospace" font-size="11.00">ArticleType</text>
</g>
<!-- \\Glsr\\GestockBundle\\Form\\ArticleType&#45;&gt;\\Symfony\\Component\\Form\\AbstractType -->
<g id="edge44" class="edge"><title>\\Glsr\\GestockBundle\\Form\\ArticleType&#45;&gt;\\Symfony\\Component\\Form\\AbstractType</title>
<path fill="none" stroke="black" d="M769.372,-525.62C693.645,-538.268 540.058,-563.918 436.076,-581.284"/>
<polygon fill="none" stroke="black" points="435.459,-577.839 426.172,-582.938 436.612,-584.743 435.459,-577.839"/>
</g>
<!-- \\Glsr\\GestockBundle\\Form\\ArticleReassignType -->
<g id="node26" class="node"><title>\\Glsr\\GestockBundle\\Form\\ArticleReassignType</title>
<polygon fill="none" stroke="black" points="887,-482 743,-482 743,-446 887,-446 887,-482"/>
<text text-anchor="middle" x="815" y="-461.1" font-family="Courier,monospace" font-size="11.00">ArticleReassignType</text>
</g>
<!-- \\Glsr\\GestockBundle\\Form\\ArticleReassignType&#45;&gt;\\Symfony\\Component\\Form\\AbstractType -->
<g id="edge46" class="edge"><title>\\Glsr\\GestockBundle\\Form\\ArticleReassignType&#45;&gt;\\Symfony\\Component\\Form\\AbstractType</title>
<path fill="none" stroke="black" d="M742.466,-480.409C728.347,-483.778 713.685,-487.399 700,-491 592.856,-519.194 469.539,-556.093 395.784,-578.645"/>
<polygon fill="none" stroke="black" points="394.692,-575.319 386.155,-581.593 396.742,-582.012 394.692,-575.319"/>
</g>
<!-- \\Glsr\\GestockBundle\\Entity\\ZoneStorageRepository -->
<g id="node28" class="node"><title>\\Glsr\\GestockBundle\\Entity\\ZoneStorageRepository</title>
<polygon fill="none" stroke="black" points="894,-1880 736,-1880 736,-1844 894,-1844 894,-1880"/>
<text text-anchor="middle" x="815" y="-1859.1" font-family="Courier,monospace" font-size="11.00">ZoneStorageRepository</text>
</g>
<!-- \\Glsr\\GestockBundle\\Entity\\ZoneStorageRepository&#45;&gt;\\Doctrine\\ORM\\EntityRepository -->
<g id="edge48" class="edge"><title>\\Glsr\\GestockBundle\\Entity\\ZoneStorageRepository&#45;&gt;\\Doctrine\\ORM\\EntityRepository</title>
<path fill="none" stroke="black" d="M735.797,-1844.72C723.742,-1841.71 711.496,-1838.43 700,-1835 584.861,-1800.61 453.444,-1749.82 382.354,-1721.35"/>
<polygon fill="none" stroke="black" points="383.316,-1717.96 372.732,-1717.49 380.707,-1724.46 383.316,-1717.96"/>
</g>
<!-- \\Glsr\\GestockBundle\\Entity\\ZoneStorage -->
<g id="node29" class="node"><title>\\Glsr\\GestockBundle\\Entity\\ZoneStorage</title>
<polygon fill="none" stroke="black" points="860,-2042 770,-2042 770,-2006 860,-2006 860,-2042"/>
<text text-anchor="middle" x="815" y="-2021.1" font-family="Courier,monospace" font-size="11.00">ZoneStorage</text>
</g>
<!-- \\Glsr\\GestockBundle\\Entity\\UnitStorageRepository -->
<g id="node30" class="node"><title>\\Glsr\\GestockBundle\\Entity\\UnitStorageRepository</title>
<polygon fill="none" stroke="black" points="894,-1772 736,-1772 736,-1736 894,-1736 894,-1772"/>
<text text-anchor="middle" x="815" y="-1751.1" font-family="Courier,monospace" font-size="11.00">UnitStorageRepository</text>
</g>
<!-- \\Glsr\\GestockBundle\\Entity\\UnitStorageRepository&#45;&gt;\\Doctrine\\ORM\\EntityRepository -->
<g id="edge50" class="edge"><title>\\Glsr\\GestockBundle\\Entity\\UnitStorageRepository&#45;&gt;\\Doctrine\\ORM\\EntityRepository</title>
<path fill="none" stroke="black" d="M735.997,-1745.2C660.398,-1736.79 545.118,-1723.95 456.688,-1714.11"/>
<polygon fill="none" stroke="black" points="456.914,-1710.61 446.588,-1712.98 456.139,-1717.57 456.914,-1710.61"/>
</g>
<!-- \\Glsr\\GestockBundle\\Entity\\UnitStorage -->
<g id="node31" class="node"><title>\\Glsr\\GestockBundle\\Entity\\UnitStorage</title>
<polygon fill="none" stroke="black" points="860,-1934 770,-1934 770,-1898 860,-1898 860,-1934"/>
<text text-anchor="middle" x="815" y="-1913.1" font-family="Courier,monospace" font-size="11.00">UnitStorage</text>
</g>
<!-- \\Glsr\\GestockBundle\\Entity\\TvaRepository -->
<g id="node32" class="node"><title>\\Glsr\\GestockBundle\\Entity\\TvaRepository</title>
<polygon fill="none" stroke="black" points="867,-1664 763,-1664 763,-1628 867,-1628 867,-1664"/>
<text text-anchor="middle" x="815" y="-1643.1" font-family="Courier,monospace" font-size="11.00">TvaRepository</text>
</g>
<!-- \\Glsr\\GestockBundle\\Entity\\TvaRepository&#45;&gt;\\Doctrine\\ORM\\EntityRepository -->
<g id="edge52" class="edge"><title>\\Glsr\\GestockBundle\\Entity\\TvaRepository&#45;&gt;\\Doctrine\\ORM\\EntityRepository</title>
<path fill="none" stroke="black" d="M762.636,-1651.83C689.935,-1659.92 556.135,-1674.82 456.506,-1685.91"/>
<polygon fill="none" stroke="black" points="455.917,-1682.46 446.366,-1687.04 456.692,-1689.42 455.917,-1682.46"/>
</g>
<!-- \\Glsr\\GestockBundle\\Entity\\Tva -->
<g id="node33" class="node"><title>\\Glsr\\GestockBundle\\Entity\\Tva</title>
<polygon fill="none" stroke="black" points="842,-1826 788,-1826 788,-1790 842,-1790 842,-1826"/>
<text text-anchor="middle" x="815" y="-1805.1" font-family="Courier,monospace" font-size="11.00">Tva</text>
</g>
<!-- \\Glsr\\GestockBundle\\Entity\\SupplierRepository -->
<g id="node34" class="node"><title>\\Glsr\\GestockBundle\\Entity\\SupplierRepository</title>
<polygon fill="none" stroke="black" points="884,-1556 746,-1556 746,-1520 884,-1520 884,-1556"/>
<text text-anchor="middle" x="815" y="-1535.1" font-family="Courier,monospace" font-size="11.00">SupplierRepository</text>
</g>
<!-- \\Glsr\\GestockBundle\\Entity\\SupplierRepository&#45;&gt;\\Doctrine\\ORM\\EntityRepository -->
<g id="edge54" class="edge"><title>\\Glsr\\GestockBundle\\Entity\\SupplierRepository&#45;&gt;\\Doctrine\\ORM\\EntityRepository</title>
<path fill="none" stroke="black" d="M745.93,-1552.8C730.711,-1556.46 714.738,-1560.6 700,-1565 584.861,-1599.39 453.444,-1650.18 382.354,-1678.65"/>
<polygon fill="none" stroke="black" points="380.707,-1675.54 372.732,-1682.51 383.316,-1682.04 380.707,-1675.54"/>
</g>
<!-- \\Glsr\\GestockBundle\\Entity\\Supplier -->
<g id="node35" class="node"><title>\\Glsr\\GestockBundle\\Entity\\Supplier</title>
<polygon fill="none" stroke="black" points="850,-1718 780,-1718 780,-1682 850,-1682 850,-1718"/>
<text text-anchor="middle" x="815" y="-1697.1" font-family="Courier,monospace" font-size="11.00">Supplier</text>
</g>
<!-- \\Glsr\\GestockBundle\\Entity\\SubFamilyLogRepository -->
<g id="node36" class="node"><title>\\Glsr\\GestockBundle\\Entity\\SubFamilyLogRepository</title>
<polygon fill="none" stroke="black" points="897,-1394 733,-1394 733,-1358 897,-1358 897,-1394"/>
<text text-anchor="middle" x="815" y="-1373.1" font-family="Courier,monospace" font-size="11.00">SubFamilyLogRepository</text>
</g>
<!-- \\Glsr\\GestockBundle\\Entity\\SubFamilyLogRepository&#45;&gt;\\Doctrine\\ORM\\EntityRepository -->
<g id="edge56" class="edge"><title>\\Glsr\\GestockBundle\\Entity\\SubFamilyLogRepository&#45;&gt;\\Doctrine\\ORM\\EntityRepository</title>
<path fill="none" stroke="black" d="M732.395,-1390.66C721.23,-1393.99 710.139,-1398.06 700,-1403 551.491,-1475.38 408.573,-1616.65 353.643,-1674.43"/>
<polygon fill="none" stroke="black" points="350.803,-1672.34 346.484,-1682.02 355.894,-1677.15 350.803,-1672.34"/>
</g>
<!-- \\Glsr\\GestockBundle\\Entity\\SubFamilyLog -->
<g id="node37" class="node"><title>\\Glsr\\GestockBundle\\Entity\\SubFamilyLog</title>
<polygon fill="none" stroke="black" points="864,-1610 766,-1610 766,-1574 864,-1574 864,-1610"/>
<text text-anchor="middle" x="815" y="-1589.1" font-family="Courier,monospace" font-size="11.00">SubFamilyLog</text>
</g>
<!-- \\Glsr\\GestockBundle\\Entity\\SettingsRepository -->
<g id="node38" class="node"><title>\\Glsr\\GestockBundle\\Entity\\SettingsRepository</title>
<polygon fill="none" stroke="black" points="884,-1286 746,-1286 746,-1250 884,-1250 884,-1286"/>
<text text-anchor="middle" x="815" y="-1265.1" font-family="Courier,monospace" font-size="11.00">SettingsRepository</text>
</g>
<!-- \\Glsr\\GestockBundle\\Entity\\SettingsRepository&#45;&gt;\\Doctrine\\ORM\\EntityRepository -->
<g id="edge58" class="edge"><title>\\Glsr\\GestockBundle\\Entity\\SettingsRepository&#45;&gt;\\Doctrine\\ORM\\EntityRepository</title>
<path fill="none" stroke="black" d="M745.971,-1273.38C729.491,-1277.43 712.946,-1284.11 700,-1295 665.26,-1324.23 685.961,-1351.75 660,-1389 572.765,-1514.17 428.489,-1628.06 363.528,-1676.01"/>
<polygon fill="none" stroke="black" points="361.265,-1673.33 355.271,-1682.07 365.405,-1678.97 361.265,-1673.33"/>
</g>
<!-- \\Glsr\\GestockBundle\\Entity\\Settings -->
<g id="node39" class="node"><title>\\Glsr\\GestockBundle\\Entity\\Settings</title>
<polygon fill="none" stroke="black" points="850,-1502 780,-1502 780,-1466 850,-1466 850,-1502"/>
<text text-anchor="middle" x="815" y="-1481.1" font-family="Courier,monospace" font-size="11.00">Settings</text>
</g>
<!-- \\Glsr\\GestockBundle\\Entity\\Inventory -->
<g id="node40" class="node"><title>\\Glsr\\GestockBundle\\Entity\\Inventory</title>
<polygon fill="none" stroke="black" points="853,-1448 777,-1448 777,-1412 853,-1412 853,-1448"/>
<text text-anchor="middle" x="815" y="-1427.1" font-family="Courier,monospace" font-size="11.00">Inventory</text>
</g>
<!-- \\Glsr\\GestockBundle\\Entity\\FamilyLogRepository -->
<g id="node41" class="node"><title>\\Glsr\\GestockBundle\\Entity\\FamilyLogRepository</title>
<polygon fill="none" stroke="black" points="887,-1178 743,-1178 743,-1142 887,-1142 887,-1178"/>
<text text-anchor="middle" x="815" y="-1157.1" font-family="Courier,monospace" font-size="11.00">FamilyLogRepository</text>
</g>
<!-- \\Glsr\\GestockBundle\\Entity\\FamilyLogRepository&#45;&gt;\\Doctrine\\ORM\\EntityRepository -->
<g id="edge60" class="edge"><title>\\Glsr\\GestockBundle\\Entity\\FamilyLogRepository&#45;&gt;\\Doctrine\\ORM\\EntityRepository</title>
<path fill="none" stroke="black" d="M742.234,-1164.16C726.513,-1168.31 711.253,-1175.34 700,-1187 636.431,-1252.84 704.299,-1308.91 660,-1389 586.732,-1521.46 437.364,-1630.38 367.543,-1676.4"/>
<polygon fill="none" stroke="black" points="365.492,-1673.56 359.033,-1681.96 369.32,-1679.42 365.492,-1673.56"/>
</g>
<!-- \\Glsr\\GestockBundle\\Entity\\FamilyLog -->
<g id="node42" class="node"><title>\\Glsr\\GestockBundle\\Entity\\FamilyLog</title>
<polygon fill="none" stroke="black" points="853,-1340 777,-1340 777,-1304 853,-1304 853,-1340"/>
<text text-anchor="middle" x="815" y="-1319.1" font-family="Courier,monospace" font-size="11.00">FamilyLog</text>
</g>
<!-- \\Glsr\\GestockBundle\\Entity\\CompanyRepository -->
<g id="node43" class="node"><title>\\Glsr\\GestockBundle\\Entity\\CompanyRepository</title>
<polygon fill="none" stroke="black" points="880,-2096 750,-2096 750,-2060 880,-2060 880,-2096"/>
<text text-anchor="middle" x="815" y="-2075.1" font-family="Courier,monospace" font-size="11.00">CompanyRepository</text>
</g>
<!-- \\Glsr\\GestockBundle\\Entity\\CompanyRepository&#45;&gt;\\Doctrine\\ORM\\EntityRepository -->
<g id="edge62" class="edge"><title>\\Glsr\\GestockBundle\\Entity\\CompanyRepository&#45;&gt;\\Doctrine\\ORM\\EntityRepository</title>
<path fill="none" stroke="black" d="M749.25,-2068.82C732.544,-2064.83 715.07,-2059.13 700,-2051 540.414,-1964.89 399.36,-1791.91 349.327,-1726.17"/>
<polygon fill="none" stroke="black" points="351.963,-1723.85 343.144,-1717.98 346.376,-1728.07 351.963,-1723.85"/>
</g>
<!-- \\Glsr\\GestockBundle\\Entity\\Company -->
<g id="node44" class="node"><title>\\Glsr\\GestockBundle\\Entity\\Company</title>
<polygon fill="none" stroke="black" points="847,-1232 783,-1232 783,-1196 847,-1196 847,-1232"/>
<text text-anchor="middle" x="815" y="-1211.1" font-family="Courier,monospace" font-size="11.00">Company</text>
</g>
<!-- \\Glsr\\GestockBundle\\Entity\\ArticleRepository -->
<g id="node45" class="node"><title>\\Glsr\\GestockBundle\\Entity\\ArticleRepository</title>
<polygon fill="none" stroke="black" points="880,-1988 750,-1988 750,-1952 880,-1952 880,-1988"/>
<text text-anchor="middle" x="815" y="-1967.1" font-family="Courier,monospace" font-size="11.00">ArticleRepository</text>
</g>
<!-- \\Glsr\\GestockBundle\\Entity\\ArticleRepository&#45;&gt;\\Doctrine\\ORM\\EntityRepository -->
<g id="edge64" class="edge"><title>\\Glsr\\GestockBundle\\Entity\\ArticleRepository&#45;&gt;\\Doctrine\\ORM\\EntityRepository</title>
<path fill="none" stroke="black" d="M749.252,-1958.74C732.802,-1954.8 715.451,-1949.64 700,-1943 562.093,-1883.74 419.246,-1773.46 359.27,-1724.5"/>
<polygon fill="none" stroke="black" points="361.316,-1721.65 351.366,-1718.01 356.874,-1727.06 361.316,-1721.65"/>
</g>
<!-- \\Glsr\\GestockBundle\\Entity\\Article -->
<g id="node46" class="node"><title>\\Glsr\\GestockBundle\\Entity\\Article</title>
<polygon fill="none" stroke="black" points="847,-1124 783,-1124 783,-1088 847,-1088 847,-1124"/>
<text text-anchor="middle" x="815" y="-1103.1" font-family="Courier,monospace" font-size="11.00">Article</text>
</g>
<!-- \\Glsr\\GestockBundle\\DependencyInjection\\GlsrGestockExtension -->
<g id="node48" class="node"><title>\\Glsr\\GestockBundle\\DependencyInjection\\GlsrGestockExtension</title>
<polygon fill="none" stroke="black" points="891,-1042 739,-1042 739,-1006 891,-1006 891,-1042"/>
<text text-anchor="middle" x="815" y="-1021.1" font-family="Courier,monospace" font-size="11.00">GlsrGestockExtension</text>
</g>
<!-- \\Glsr\\GestockBundle\\DependencyInjection\\GlsrGestockExtension&#45;&gt;\\Symfony\\Component\\HttpKernel\\DependencyInjection\\Extension -->
<g id="edge66" class="edge"><title>\\Glsr\\GestockBundle\\DependencyInjection\\GlsrGestockExtension&#45;&gt;\\Symfony\\Component\\HttpKernel\\DependencyInjection\\Extension</title>
<path fill="none" stroke="black" d="M753.761,-1042.06C734.704,-1050.04 714.826,-1061.08 700,-1076 669.148,-1107.05 689.077,-1133.28 660,-1166 583.747,-1251.8 460.69,-1310.88 388.346,-1340.35"/>
<polygon fill="none" stroke="black" points="386.891,-1337.16 378.918,-1344.14 389.502,-1343.66 386.891,-1337.16"/>
</g>
<!-- \\Glsr\\GestockBundle\\DependencyInjection\\Configuration -->
<g id="node49" class="node"><title>\\Glsr\\GestockBundle\\DependencyInjection\\Configuration</title>
<polygon fill="none" stroke="black" points="867,-988 763,-988 763,-952 867,-952 867,-988"/>
<text text-anchor="middle" x="815" y="-967.1" font-family="Courier,monospace" font-size="11.00">Configuration</text>
</g>
<!-- \\Glsr\\GestockBundle\\DependencyInjection\\Configuration&#45;&gt;\\Symfony\\Component\\Config\\Definition\\ConfigurationInterface -->
<g id="edge68" class="edge"><title>\\Glsr\\GestockBundle\\DependencyInjection\\Configuration&#45;&gt;\\Symfony\\Component\\Config\\Definition\\ConfigurationInterface</title>
<path fill="none" stroke="black" stroke-dasharray="1,5" d="M762.82,-977.528C742.579,-981.647 719.602,-987.842 700,-997 679.867,-1006.41 679.656,-1016.63 660,-1027 580.176,-1069.1 481.337,-1100.16 412.743,-1118.76"/>
<polygon fill="none" stroke="black" points="411.601,-1115.44 402.848,-1121.41 413.413,-1122.2 411.601,-1115.44"/>
</g>
<!-- \\Glsr\\GestockBundle\\Controller\\SupplierController -->
<g id="node51" class="node"><title>\\Glsr\\GestockBundle\\Controller\\SupplierController</title>
<polygon fill="none" stroke="black" points="884,-130 746,-130 746,-94 884,-94 884,-130"/>
<text text-anchor="middle" x="815" y="-109.1" font-family="Courier,monospace" font-size="11.00">SupplierController</text>
</g>
<!-- \\Symfony\\Bundle\\FrameworkBundle\\Controller\\Controller -->
<g id="node93" class="node"><title>\\Symfony\\Bundle\\FrameworkBundle\\Controller\\Controller</title>
<ellipse fill="none" stroke="black" cx="330" cy="-166" rx="290.121" ry="18.3848"/>
<text text-anchor="middle" x="330" y="-162.4" font-family="Times Roman,serif" font-size="14.00" fill="gray">\Symfony\Bundle\FrameworkBundle\Controller\Controller</text>
</g>
<!-- \\Glsr\\GestockBundle\\Controller\\SupplierController&#45;&gt;\\Symfony\\Bundle\\FrameworkBundle\\Controller\\Controller -->
<g id="edge70" class="edge"><title>\\Glsr\\GestockBundle\\Controller\\SupplierController&#45;&gt;\\Symfony\\Bundle\\FrameworkBundle\\Controller\\Controller</title>
<path fill="none" stroke="black" d="M745.769,-119.708C677.221,-127.34 570.009,-139.277 481.626,-149.118"/>
<polygon fill="none" stroke="black" points="481.045,-145.661 471.494,-150.246 481.82,-152.618 481.045,-145.661"/>
</g>
<!-- \\Glsr\\GestockBundle\\Controller\\SettingsController -->
<g id="node52" class="node"><title>\\Glsr\\GestockBundle\\Controller\\SettingsController</title>
<polygon fill="none" stroke="black" points="884,-76 746,-76 746,-40 884,-40 884,-76"/>
<text text-anchor="middle" x="815" y="-55.1" font-family="Courier,monospace" font-size="11.00">SettingsController</text>
</g>
<!-- \\Glsr\\GestockBundle\\Controller\\SettingsController&#45;&gt;\\Symfony\\Bundle\\FrameworkBundle\\Controller\\Controller -->
<g id="edge72" class="edge"><title>\\Glsr\\GestockBundle\\Controller\\SettingsController&#45;&gt;\\Symfony\\Bundle\\FrameworkBundle\\Controller\\Controller</title>
<path fill="none" stroke="black" d="M745.769,-73.4164C659.445,-92.6391 511.801,-125.516 417.665,-146.479"/>
<polygon fill="none" stroke="black" points="416.877,-143.068 407.877,-148.658 418.398,-149.901 416.877,-143.068"/>
</g>
<!-- \\Glsr\\GestockBundle\\Controller\\InventoryController -->
<g id="node53" class="node"><title>\\Glsr\\GestockBundle\\Controller\\InventoryController</title>
<polygon fill="none" stroke="black" points="887,-292 743,-292 743,-256 887,-256 887,-292"/>
<text text-anchor="middle" x="815" y="-271.1" font-family="Courier,monospace" font-size="11.00">InventoryController</text>
</g>
<!-- \\Glsr\\GestockBundle\\Controller\\InventoryController&#45;&gt;\\Symfony\\Bundle\\FrameworkBundle\\Controller\\Controller -->
<g id="edge74" class="edge"><title>\\Glsr\\GestockBundle\\Controller\\InventoryController&#45;&gt;\\Symfony\\Bundle\\FrameworkBundle\\Controller\\Controller</title>
<path fill="none" stroke="black" d="M742.391,-257.831C655.702,-238.528 510.806,-206.262 417.878,-185.569"/>
<polygon fill="none" stroke="black" points="418.454,-182.111 407.932,-183.354 416.932,-188.944 418.454,-182.111"/>
</g>
<!-- \\Glsr\\GestockBundle\\Controller\\GestockController -->
<g id="node54" class="node"><title>\\Glsr\\GestockBundle\\Controller\\GestockController</title>
<polygon fill="none" stroke="black" points="880,-238 750,-238 750,-202 880,-202 880,-238"/>
<text text-anchor="middle" x="815" y="-217.1" font-family="Courier,monospace" font-size="11.00">GestockController</text>
</g>
<!-- \\Glsr\\GestockBundle\\Controller\\GestockController&#45;&gt;\\Symfony\\Bundle\\FrameworkBundle\\Controller\\Controller -->
<g id="edge76" class="edge"><title>\\Glsr\\GestockBundle\\Controller\\GestockController&#45;&gt;\\Symfony\\Bundle\\FrameworkBundle\\Controller\\Controller</title>
<path fill="none" stroke="black" d="M749.339,-212.689C680.932,-205.073 571.384,-192.876 481.41,-182.858"/>
<polygon fill="none" stroke="black" points="481.703,-179.369 471.377,-181.741 480.928,-186.326 481.703,-179.369"/>
</g>
<!-- \\Glsr\\GestockBundle\\Controller\\ArticleController -->
<g id="node55" class="node"><title>\\Glsr\\GestockBundle\\Controller\\ArticleController</title>
<polygon fill="none" stroke="black" points="880,-184 750,-184 750,-148 880,-148 880,-184"/>
<text text-anchor="middle" x="815" y="-163.1" font-family="Courier,monospace" font-size="11.00">ArticleController</text>
</g>
<!-- \\Glsr\\GestockBundle\\Controller\\ArticleController&#45;&gt;\\Symfony\\Bundle\\FrameworkBundle\\Controller\\Controller -->
<g id="edge78" class="edge"><title>\\Glsr\\GestockBundle\\Controller\\ArticleController&#45;&gt;\\Symfony\\Bundle\\FrameworkBundle\\Controller\\Controller</title>
<path fill="none" stroke="black" d="M749.339,-166C716.92,-166 675.26,-166 630.823,-166"/>
<polygon fill="none" stroke="black" points="630.696,-162.5 620.696,-166 630.696,-169.5 630.696,-162.5"/>
</g>
<!-- \\Glsr\\GestockBundle\\GlsrGestockBundle -->
<g id="node56" class="node"><title>\\Glsr\\GestockBundle\\GlsrGestockBundle</title>
<polygon fill="none" stroke="black" points="880,-934 750,-934 750,-898 880,-898 880,-934"/>
<text text-anchor="middle" x="815" y="-913.1" font-family="Courier,monospace" font-size="11.00">GlsrGestockBundle</text>
</g>
<!-- \\Glsr\\GestockBundle\\GlsrGestockBundle&#45;&gt;\\Symfony\\Component\\HttpKernel\\Bundle\\Bundle -->
<g id="edge26" class="edge"><title>\\Glsr\\GestockBundle\\GlsrGestockBundle&#45;&gt;\\Symfony\\Component\\HttpKernel\\Bundle\\Bundle</title>
<path fill="none" stroke="black" d="M749.339,-927.372C668.859,-941.311 531.434,-965.113 435.934,-981.653"/>
<polygon fill="none" stroke="black" points="435.213,-978.225 425.957,-983.381 436.408,-985.123 435.213,-978.225"/>
</g>
</g>
</svg>
