<?xml version="1.0" encoding="UTF-8" standalone="no"?>
<!DOCTYPE svg PUBLIC "-//W3C//DTD SVG 1.1//EN"
 "http://www.w3.org/Graphics/SVG/1.1/DTD/svg11.dtd">
<!-- Generated by graphviz version 2.26.3 (20100126.1600)
 -->
<!-- Title: G Pages: 1 -->
<svg width="946pt" height="2644pt"
 viewBox="0.00 0.00 946.00 2644.00" xmlns="http://www.w3.org/2000/svg" xmlns:xlink="http://www.w3.org/1999/xlink">
<g id="graph1" class="graph" transform="scale(1 1) rotate(0) translate(4 2640)">
<title>G</title>
<polygon fill="white" stroke="white" points="-4,5 -4,-2640 943,-2640 943,5 -4,5"/>
<g id="graph2" class="cluster"><title>cluster_Global</title>
<polyline fill="none" stroke="gray" points="712,-8 918,-8 "/>
<path fill="none" stroke="gray" d="M918,-8C924,-8 930,-14 930,-20"/>
<polyline fill="none" stroke="gray" points="930,-20 930,-2616 "/>
<path fill="none" stroke="gray" d="M930,-2616C930,-2622 924,-2628 918,-2628"/>
<polyline fill="none" stroke="gray" points="918,-2628 712,-2628 "/>
<path fill="none" stroke="gray" d="M712,-2628C706,-2628 700,-2622 700,-2616"/>
<polyline fill="none" stroke="gray" points="700,-2616 700,-20 "/>
<path fill="none" stroke="gray" d="M700,-20C700,-14 706,-8 712,-8"/>
<text text-anchor="middle" x="815" y="-2614.1" font-family="Times Roman,serif" font-size="11.00" fill="gray">Global</text>
</g>
<g id="graph3" class="cluster"><title>cluster_\Glsr</title>
<polyline fill="none" stroke="gray" points="720,-16 910,-16 "/>
<path fill="none" stroke="gray" d="M910,-16C916,-16 922,-22 922,-28"/>
<polyline fill="none" stroke="gray" points="922,-28 922,-2586 "/>
<path fill="none" stroke="gray" d="M922,-2586C922,-2592 916,-2598 910,-2598"/>
<polyline fill="none" stroke="gray" points="910,-2598 720,-2598 "/>
<path fill="none" stroke="gray" d="M720,-2598C714,-2598 708,-2592 708,-2586"/>
<polyline fill="none" stroke="gray" points="708,-2586 708,-28 "/>
<path fill="none" stroke="gray" d="M708,-28C708,-22 714,-16 720,-16"/>
<text text-anchor="middle" x="815" y="-2584.1" font-family="Times Roman,serif" font-size="11.00" fill="gray">Glsr</text>
</g>
<g id="graph4" class="cluster"><title>cluster_\Glsr\GestockBundle</title>
<polyline fill="none" stroke="gray" points="728,-462 902,-462 "/>
<path fill="none" stroke="gray" d="M902,-462C908,-462 914,-468 914,-474"/>
<polyline fill="none" stroke="gray" points="914,-474 914,-2556 "/>
<path fill="none" stroke="gray" d="M914,-2556C914,-2562 908,-2568 902,-2568"/>
<polyline fill="none" stroke="gray" points="902,-2568 728,-2568 "/>
<path fill="none" stroke="gray" d="M728,-2568C722,-2568 716,-2562 716,-2556"/>
<polyline fill="none" stroke="gray" points="716,-2556 716,-474 "/>
<path fill="none" stroke="gray" d="M716,-474C716,-468 722,-462 728,-462"/>
<text text-anchor="middle" x="815" y="-2554.1" font-family="Times Roman,serif" font-size="11.00" fill="gray">GestockBundle</text>
</g>
<g id="graph5" class="cluster"><title>cluster_\Glsr\GestockBundle\Controller</title>
<polyline fill="none" stroke="gray" points="750,-2302 880,-2302 "/>
<path fill="none" stroke="gray" d="M880,-2302C886,-2302 892,-2308 892,-2314"/>
<polyline fill="none" stroke="gray" points="892,-2314 892,-2526 "/>
<path fill="none" stroke="gray" d="M892,-2526C892,-2532 886,-2538 880,-2538"/>
<polyline fill="none" stroke="gray" points="880,-2538 750,-2538 "/>
<path fill="none" stroke="gray" d="M750,-2538C744,-2538 738,-2532 738,-2526"/>
<polyline fill="none" stroke="gray" points="738,-2526 738,-2314 "/>
<path fill="none" stroke="gray" d="M738,-2314C738,-2308 744,-2302 750,-2302"/>
<text text-anchor="middle" x="815" y="-2524.1" font-family="Times Roman,serif" font-size="11.00" fill="gray">Controller</text>
</g>
<g id="graph6" class="cluster"><title>cluster_\Glsr\GestockBundle\Form</title>
<polyline fill="none" stroke="gray" points="746,-1734 884,-1734 "/>
<path fill="none" stroke="gray" d="M884,-1734C890,-1734 896,-1740 896,-1746"/>
<polyline fill="none" stroke="gray" points="896,-1746 896,-2282 "/>
<path fill="none" stroke="gray" d="M896,-2282C896,-2288 890,-2294 884,-2294"/>
<polyline fill="none" stroke="gray" points="884,-2294 746,-2294 "/>
<path fill="none" stroke="gray" d="M746,-2294C740,-2294 734,-2288 734,-2282"/>
<polyline fill="none" stroke="gray" points="734,-2282 734,-1746 "/>
<path fill="none" stroke="gray" d="M734,-1746C734,-1740 740,-1734 746,-1734"/>
<text text-anchor="middle" x="815" y="-2280.1" font-family="Times Roman,serif" font-size="11.00" fill="gray">Form</text>
</g>
<g id="graph7" class="cluster"><title>cluster_\Glsr\GestockBundle\Listener</title>
<polyline fill="none" stroke="gray" points="746,-1652 884,-1652 "/>
<path fill="none" stroke="gray" d="M884,-1652C890,-1652 896,-1658 896,-1664"/>
<polyline fill="none" stroke="gray" points="896,-1664 896,-1714 "/>
<path fill="none" stroke="gray" d="M896,-1714C896,-1720 890,-1726 884,-1726"/>
<polyline fill="none" stroke="gray" points="884,-1726 746,-1726 "/>
<path fill="none" stroke="gray" d="M746,-1726C740,-1726 734,-1720 734,-1714"/>
<polyline fill="none" stroke="gray" points="734,-1714 734,-1664 "/>
<path fill="none" stroke="gray" d="M734,-1664C734,-1658 740,-1652 746,-1652"/>
<text text-anchor="middle" x="815" y="-1712.1" font-family="Times Roman,serif" font-size="11.00" fill="gray">Listener</text>
</g>
<g id="graph8" class="cluster"><title>cluster_\Glsr\GestockBundle\Entity</title>
<polyline fill="none" stroke="gray" points="736,-652 894,-652 "/>
<path fill="none" stroke="gray" d="M894,-652C900,-652 906,-658 906,-664"/>
<polyline fill="none" stroke="gray" points="906,-664 906,-1632 "/>
<path fill="none" stroke="gray" d="M906,-1632C906,-1638 900,-1644 894,-1644"/>
<polyline fill="none" stroke="gray" points="894,-1644 736,-1644 "/>
<path fill="none" stroke="gray" d="M736,-1644C730,-1644 724,-1638 724,-1632"/>
<polyline fill="none" stroke="gray" points="724,-1632 724,-664 "/>
<path fill="none" stroke="gray" d="M724,-664C724,-658 730,-652 736,-652"/>
<text text-anchor="middle" x="815" y="-1630.1" font-family="Times Roman,serif" font-size="11.00" fill="gray">Entity</text>
</g>
<g id="graph9" class="cluster"><title>cluster_\Glsr\GestockBundle\DependencyInjection</title>
<polyline fill="none" stroke="gray" points="743,-516 887,-516 "/>
<path fill="none" stroke="gray" d="M887,-516C893,-516 899,-522 899,-528"/>
<polyline fill="none" stroke="gray" points="899,-528 899,-632 "/>
<path fill="none" stroke="gray" d="M899,-632C899,-638 893,-644 887,-644"/>
<polyline fill="none" stroke="gray" points="887,-644 743,-644 "/>
<path fill="none" stroke="gray" d="M743,-644C737,-644 731,-638 731,-632"/>
<polyline fill="none" stroke="gray" points="731,-632 731,-528 "/>
<path fill="none" stroke="gray" d="M731,-528C731,-522 737,-516 743,-516"/>
<text text-anchor="middle" x="815" y="-630.1" font-family="Times Roman,serif" font-size="11.00" fill="gray">DependencyInjection</text>
</g>
<g id="graph10" class="cluster"><title>cluster_\Glsr\UserBundle</title>
<polyline fill="none" stroke="gray" points="742,-24 888,-24 "/>
<path fill="none" stroke="gray" d="M888,-24C894,-24 900,-30 900,-36"/>
<polyline fill="none" stroke="gray" points="900,-36 900,-442 "/>
<path fill="none" stroke="gray" d="M900,-442C900,-448 894,-454 888,-454"/>
<polyline fill="none" stroke="gray" points="888,-454 742,-454 "/>
<path fill="none" stroke="gray" d="M742,-454C736,-454 730,-448 730,-442"/>
<polyline fill="none" stroke="gray" points="730,-442 730,-36 "/>
<path fill="none" stroke="gray" d="M730,-36C730,-30 736,-24 742,-24"/>
<text text-anchor="middle" x="815" y="-440.1" font-family="Times Roman,serif" font-size="11.00" fill="gray">UserBundle</text>
</g>
<g id="graph11" class="cluster"><title>cluster_\Glsr\UserBundle\Controller</title>
<polyline fill="none" stroke="gray" points="750,-32 880,-32 "/>
<path fill="none" stroke="gray" d="M880,-32C886,-32 892,-38 892,-44"/>
<polyline fill="none" stroke="gray" points="892,-44 892,-94 "/>
<path fill="none" stroke="gray" d="M892,-94C892,-100 886,-106 880,-106"/>
<polyline fill="none" stroke="gray" points="880,-106 750,-106 "/>
<path fill="none" stroke="gray" d="M750,-106C744,-106 738,-100 738,-94"/>
<polyline fill="none" stroke="gray" points="738,-94 738,-44 "/>
<path fill="none" stroke="gray" d="M738,-44C738,-38 744,-32 750,-32"/>
<text text-anchor="middle" x="815" y="-92.1" font-family="Times Roman,serif" font-size="11.00" fill="gray">Controller</text>
</g>
<g id="graph12" class="cluster"><title>cluster_\Glsr\UserBundle\Entity</title>
<polyline fill="none" stroke="gray" points="763,-160 867,-160 "/>
<path fill="none" stroke="gray" d="M867,-160C873,-160 879,-166 879,-172"/>
<polyline fill="none" stroke="gray" points="879,-172 879,-276 "/>
<path fill="none" stroke="gray" d="M879,-276C879,-282 873,-288 867,-288"/>
<polyline fill="none" stroke="gray" points="867,-288 763,-288 "/>
<path fill="none" stroke="gray" d="M763,-288C757,-288 751,-282 751,-276"/>
<polyline fill="none" stroke="gray" points="751,-276 751,-172 "/>
<path fill="none" stroke="gray" d="M751,-172C751,-166 757,-160 763,-160"/>
<text text-anchor="middle" x="815" y="-274.1" font-family="Times Roman,serif" font-size="11.00" fill="gray">Entity</text>
</g>
<g id="graph13" class="cluster"><title>cluster_\Glsr\UserBundle\DependencyInjection</title>
<polyline fill="none" stroke="gray" points="753,-296 877,-296 "/>
<path fill="none" stroke="gray" d="M877,-296C883,-296 889,-302 889,-308"/>
<polyline fill="none" stroke="gray" points="889,-308 889,-412 "/>
<path fill="none" stroke="gray" d="M889,-412C889,-418 883,-424 877,-424"/>
<polyline fill="none" stroke="gray" points="877,-424 753,-424 "/>
<path fill="none" stroke="gray" d="M753,-424C747,-424 741,-418 741,-412"/>
<polyline fill="none" stroke="gray" points="741,-412 741,-308 "/>
<path fill="none" stroke="gray" d="M741,-308C741,-302 747,-296 753,-296"/>
<text text-anchor="middle" x="815" y="-410.1" font-family="Times Roman,serif" font-size="11.00" fill="gray">DependencyInjection</text>
</g>
<!-- \\Glsr\\GestockBundle\\Controller\\SupplierController -->
<g id="node5" class="node"><title>\\Glsr\\GestockBundle\\Controller\\SupplierController</title>
<polygon fill="none" stroke="black" points="884,-2508 746,-2508 746,-2472 884,-2472 884,-2508"/>
<text text-anchor="middle" x="815" y="-2487.1" font-family="Courier,monospace" font-size="11.00">SupplierController</text>
</g>
<!-- \\Symfony\\Bundle\\FrameworkBundle\\Controller\\Controller -->
<g id="node56" class="node"><title>\\Symfony\\Bundle\\FrameworkBundle\\Controller\\Controller</title>
<ellipse fill="none" stroke="black" cx="330" cy="-2409" rx="290.121" ry="18.3848"/>
<text text-anchor="middle" x="330" y="-2405.4" font-family="Times Roman,serif" font-size="14.00" fill="gray">\Symfony\Bundle\FrameworkBundle\Controller\Controller</text>
</g>
<!-- \\Glsr\\GestockBundle\\Controller\\SupplierController&#45;&gt;\\Symfony\\Bundle\\FrameworkBundle\\Controller\\Controller -->
<g id="edge14" class="edge"><title>\\Glsr\\GestockBundle\\Controller\\SupplierController&#45;&gt;\\Symfony\\Bundle\\FrameworkBundle\\Controller\\Controller</title>
<path fill="none" stroke="black" d="M745.769,-2478.44C666.35,-2465.17 535.03,-2443.24 441.224,-2427.58"/>
<polygon fill="none" stroke="black" points="441.564,-2424.08 431.124,-2425.89 440.411,-2430.99 441.564,-2424.08"/>
</g>
<!-- \\Glsr\\GestockBundle\\Controller\\ArticleController -->
<g id="node6" class="node"><title>\\Glsr\\GestockBundle\\Controller\\ArticleController</title>
<polygon fill="none" stroke="black" points="880,-2454 750,-2454 750,-2418 880,-2418 880,-2454"/>
<text text-anchor="middle" x="815" y="-2433.1" font-family="Courier,monospace" font-size="11.00">ArticleController</text>
</g>
<!-- \\Glsr\\GestockBundle\\Controller\\ArticleController&#45;&gt;\\Symfony\\Bundle\\FrameworkBundle\\Controller\\Controller -->
<g id="edge16" class="edge"><title>\\Glsr\\GestockBundle\\Controller\\ArticleController&#45;&gt;\\Symfony\\Bundle\\FrameworkBundle\\Controller\\Controller</title>
<path fill="none" stroke="black" d="M749.339,-2432.34C699.207,-2429.55 626.979,-2425.53 556.552,-2421.61"/>
<polygon fill="none" stroke="black" points="556.356,-2418.1 546.177,-2421.03 555.967,-2425.09 556.356,-2418.1"/>
</g>
<!-- \\Glsr\\GestockBundle\\Controller\\GestockController -->
<g id="node7" class="node"><title>\\Glsr\\GestockBundle\\Controller\\GestockController</title>
<polygon fill="none" stroke="black" points="880,-2400 750,-2400 750,-2364 880,-2364 880,-2400"/>
<text text-anchor="middle" x="815" y="-2379.1" font-family="Courier,monospace" font-size="11.00">GestockController</text>
</g>
<!-- \\Glsr\\GestockBundle\\Controller\\GestockController&#45;&gt;\\Symfony\\Bundle\\FrameworkBundle\\Controller\\Controller -->
<g id="edge18" class="edge"><title>\\Glsr\\GestockBundle\\Controller\\GestockController&#45;&gt;\\Symfony\\Bundle\\FrameworkBundle\\Controller\\Controller</title>
<path fill="none" stroke="black" d="M749.339,-2385.66C699.207,-2388.45 626.979,-2392.47 556.552,-2396.39"/>
<polygon fill="none" stroke="black" points="555.967,-2392.91 546.177,-2396.97 556.356,-2399.9 555.967,-2392.91"/>
</g>
<!-- \\Glsr\\GestockBundle\\Controller\\SettingsController -->
<g id="node8" class="node"><title>\\Glsr\\GestockBundle\\Controller\\SettingsController</title>
<polygon fill="none" stroke="black" points="884,-2346 746,-2346 746,-2310 884,-2310 884,-2346"/>
<text text-anchor="middle" x="815" y="-2325.1" font-family="Courier,monospace" font-size="11.00">SettingsController</text>
</g>
<!-- \\Glsr\\GestockBundle\\Controller\\SettingsController&#45;&gt;\\Symfony\\Bundle\\FrameworkBundle\\Controller\\Controller -->
<g id="edge20" class="edge"><title>\\Glsr\\GestockBundle\\Controller\\SettingsController&#45;&gt;\\Symfony\\Bundle\\FrameworkBundle\\Controller\\Controller</title>
<path fill="none" stroke="black" d="M745.769,-2339.56C666.35,-2352.83 535.03,-2374.76 441.224,-2390.42"/>
<polygon fill="none" stroke="black" points="440.411,-2387.01 431.124,-2392.11 441.564,-2393.92 440.411,-2387.01"/>
</g>
<!-- \\Glsr\\GestockBundle\\Form\\FamilyLogType -->
<g id="node10" class="node"><title>\\Glsr\\GestockBundle\\Form\\FamilyLogType</title>
<polygon fill="none" stroke="black" points="867,-2264 763,-2264 763,-2228 867,-2228 867,-2264"/>
<text text-anchor="middle" x="815" y="-2243.1" font-family="Courier,monospace" font-size="11.00">FamilyLogType</text>
</g>
<!-- \\Symfony\\Component\\Form\\AbstractType -->
<g id="node61" class="node"><title>\\Symfony\\Component\\Form\\AbstractType</title>
<ellipse fill="none" stroke="black" cx="330" cy="-2003" rx="210.217" ry="18.3848"/>
<text text-anchor="middle" x="330" y="-1999.4" font-family="Times Roman,serif" font-size="14.00" fill="gray">\Symfony\Component\Form\AbstractType</text>
</g>
<!-- \\Glsr\\GestockBundle\\Form\\FamilyLogType&#45;&gt;\\Symfony\\Component\\Form\\AbstractType -->
<g id="edge22" class="edge"><title>\\Glsr\\GestockBundle\\Form\\FamilyLogType&#45;&gt;\\Symfony\\Component\\Form\\AbstractType</title>
<path fill="none" stroke="black" d="M762.758,-2237.17C742.723,-2232.9 719.906,-2226.94 700,-2219 567.37,-2166.1 425.593,-2071.08 362.969,-2026.85"/>
<polygon fill="none" stroke="black" points="364.848,-2023.89 354.667,-2020.96 360.795,-2029.6 364.848,-2023.89"/>
</g>
<!-- \\Glsr\\GestockBundle\\Form\\UnitStorageType -->
<g id="node11" class="node"><title>\\Glsr\\GestockBundle\\Form\\UnitStorageType</title>
<polygon fill="none" stroke="black" points="874,-2210 756,-2210 756,-2174 874,-2174 874,-2210"/>
<text text-anchor="middle" x="815" y="-2189.1" font-family="Courier,monospace" font-size="11.00">UnitStorageType</text>
</g>
<!-- \\Glsr\\GestockBundle\\Form\\UnitStorageType&#45;&gt;\\Symfony\\Component\\Form\\AbstractType -->
<g id="edge24" class="edge"><title>\\Glsr\\GestockBundle\\Form\\UnitStorageType&#45;&gt;\\Symfony\\Component\\Form\\AbstractType</title>
<path fill="none" stroke="black" d="M755.92,-2180.3C737.787,-2176.13 717.9,-2170.96 700,-2165 578.641,-2124.56 442.364,-2059.5 374.051,-2025.43"/>
<polygon fill="none" stroke="black" points="375.38,-2022.19 364.872,-2020.84 372.247,-2028.44 375.38,-2022.19"/>
</g>
<!-- \\Glsr\\GestockBundle\\Form\\CompanyType -->
<g id="node12" class="node"><title>\\Glsr\\GestockBundle\\Form\\CompanyType</title>
<polygon fill="none" stroke="black" points="860,-2156 770,-2156 770,-2120 860,-2120 860,-2156"/>
<text text-anchor="middle" x="815" y="-2135.1" font-family="Courier,monospace" font-size="11.00">CompanyType</text>
</g>
<!-- \\Glsr\\GestockBundle\\Form\\CompanyType&#45;&gt;\\Symfony\\Component\\Form\\AbstractType -->
<g id="edge26" class="edge"><title>\\Glsr\\GestockBundle\\Form\\CompanyType&#45;&gt;\\Symfony\\Component\\Form\\AbstractType</title>
<path fill="none" stroke="black" d="M769.251,-2127.85C748.109,-2123.01 722.709,-2116.98 700,-2111 592.856,-2082.81 469.539,-2045.91 395.784,-2023.36"/>
<polygon fill="none" stroke="black" points="396.742,-2019.99 386.155,-2020.41 394.692,-2026.68 396.742,-2019.99"/>
</g>
<!-- \\Glsr\\GestockBundle\\Form\\SupplierType -->
<g id="node13" class="node"><title>\\Glsr\\GestockBundle\\Form\\SupplierType</title>
<polygon fill="none" stroke="black" points="864,-2102 766,-2102 766,-2066 864,-2066 864,-2102"/>
<text text-anchor="middle" x="815" y="-2081.1" font-family="Courier,monospace" font-size="11.00">SupplierType</text>
</g>
<!-- \\Glsr\\GestockBundle\\Form\\SupplierType&#45;&gt;\\Symfony\\Component\\Form\\AbstractType -->
<g id="edge28" class="edge"><title>\\Glsr\\GestockBundle\\Form\\SupplierType&#45;&gt;\\Symfony\\Component\\Form\\AbstractType</title>
<path fill="none" stroke="black" d="M765.827,-2075.79C689.033,-2062.96 538.839,-2037.88 436.463,-2020.78"/>
<polygon fill="none" stroke="black" points="436.839,-2017.29 426.399,-2019.1 435.686,-2024.2 436.839,-2017.29"/>
</g>
<!-- \\Glsr\\GestockBundle\\Form\\SubFamilyLogType -->
<g id="node14" class="node"><title>\\Glsr\\GestockBundle\\Form\\SubFamilyLogType</title>
<polygon fill="none" stroke="black" points="877,-2048 753,-2048 753,-2012 877,-2012 877,-2048"/>
<text text-anchor="middle" x="815" y="-2027.1" font-family="Courier,monospace" font-size="11.00">SubFamilyLogType</text>
</g>
<!-- \\Glsr\\GestockBundle\\Form\\SubFamilyLogType&#45;&gt;\\Symfony\\Component\\Form\\AbstractType -->
<g id="edge30" class="edge"><title>\\Glsr\\GestockBundle\\Form\\SubFamilyLogType&#45;&gt;\\Symfony\\Component\\Form\\AbstractType</title>
<path fill="none" stroke="black" d="M752.092,-2026.5C692.489,-2023.18 599.954,-2018.03 516.698,-2013.39"/>
<polygon fill="none" stroke="black" points="516.773,-2009.89 506.594,-2012.83 516.384,-2016.88 516.773,-2009.89"/>
</g>
<!-- \\Glsr\\GestockBundle\\Form\\ArticleType -->
<g id="node15" class="node"><title>\\Glsr\\GestockBundle\\Form\\ArticleType</title>
<polygon fill="none" stroke="black" points="860,-1994 770,-1994 770,-1958 860,-1958 860,-1994"/>
<text text-anchor="middle" x="815" y="-1973.1" font-family="Courier,monospace" font-size="11.00">ArticleType</text>
</g>
<!-- \\Glsr\\GestockBundle\\Form\\ArticleType&#45;&gt;\\Symfony\\Component\\Form\\AbstractType -->
<g id="edge32" class="edge"><title>\\Glsr\\GestockBundle\\Form\\ArticleType&#45;&gt;\\Symfony\\Component\\Form\\AbstractType</title>
<path fill="none" stroke="black" d="M769.372,-1978.54C711.583,-1981.76 608.451,-1987.5 516.624,-1992.61"/>
<polygon fill="none" stroke="black" points="516.424,-1989.12 506.634,-1993.17 516.814,-1996.11 516.424,-1989.12"/>
</g>
<!-- \\Glsr\\GestockBundle\\Form\\SettingsType -->
<g id="node16" class="node"><title>\\Glsr\\GestockBundle\\Form\\SettingsType</title>
<polygon fill="none" stroke="black" points="864,-1940 766,-1940 766,-1904 864,-1904 864,-1940"/>
<text text-anchor="middle" x="815" y="-1919.1" font-family="Courier,monospace" font-size="11.00">SettingsType</text>
</g>
<!-- \\Glsr\\GestockBundle\\Form\\SettingsType&#45;&gt;\\Symfony\\Component\\Form\\AbstractType -->
<g id="edge34" class="edge"><title>\\Glsr\\GestockBundle\\Form\\SettingsType&#45;&gt;\\Symfony\\Component\\Form\\AbstractType</title>
<path fill="none" stroke="black" d="M765.827,-1930.21C689.033,-1943.04 538.839,-1968.12 436.463,-1985.22"/>
<polygon fill="none" stroke="black" points="435.686,-1981.8 426.399,-1986.9 436.839,-1988.71 435.686,-1981.8"/>
</g>
<!-- \\Glsr\\GestockBundle\\Form\\TvaType -->
<g id="node17" class="node"><title>\\Glsr\\GestockBundle\\Form\\TvaType</title>
<polygon fill="none" stroke="black" points="847,-1886 783,-1886 783,-1850 847,-1850 847,-1886"/>
<text text-anchor="middle" x="815" y="-1865.1" font-family="Courier,monospace" font-size="11.00">TvaType</text>
</g>
<!-- \\Glsr\\GestockBundle\\Form\\TvaType&#45;&gt;\\Symfony\\Component\\Form\\AbstractType -->
<g id="edge36" class="edge"><title>\\Glsr\\GestockBundle\\Form\\TvaType&#45;&gt;\\Symfony\\Component\\Form\\AbstractType</title>
<path fill="none" stroke="black" d="M782.665,-1875.11C759.556,-1880.3 727.766,-1887.69 700,-1895 592.856,-1923.19 469.539,-1960.09 395.784,-1982.64"/>
<polygon fill="none" stroke="black" points="394.692,-1979.32 386.155,-1985.59 396.742,-1986.01 394.692,-1979.32"/>
</g>
<!-- \\Glsr\\GestockBundle\\Form\\ZoneStorageType -->
<g id="node18" class="node"><title>\\Glsr\\GestockBundle\\Form\\ZoneStorageType</title>
<polygon fill="none" stroke="black" points="874,-1832 756,-1832 756,-1796 874,-1796 874,-1832"/>
<text text-anchor="middle" x="815" y="-1811.1" font-family="Courier,monospace" font-size="11.00">ZoneStorageType</text>
</g>
<!-- \\Glsr\\GestockBundle\\Form\\ZoneStorageType&#45;&gt;\\Symfony\\Component\\Form\\AbstractType -->
<g id="edge38" class="edge"><title>\\Glsr\\GestockBundle\\Form\\ZoneStorageType&#45;&gt;\\Symfony\\Component\\Form\\AbstractType</title>
<path fill="none" stroke="black" d="M755.92,-1825.7C737.787,-1829.87 717.9,-1835.04 700,-1841 578.641,-1881.44 442.364,-1946.5 374.051,-1980.57"/>
<polygon fill="none" stroke="black" points="372.247,-1977.56 364.872,-1985.16 375.38,-1983.81 372.247,-1977.56"/>
</g>
<!-- \\Glsr\\GestockBundle\\Form\\ArticleReassignType -->
<g id="node19" class="node"><title>\\Glsr\\GestockBundle\\Form\\ArticleReassignType</title>
<polygon fill="none" stroke="black" points="887,-1778 743,-1778 743,-1742 887,-1742 887,-1778"/>
<text text-anchor="middle" x="815" y="-1757.1" font-family="Courier,monospace" font-size="11.00">ArticleReassignType</text>
</g>
<!-- \\Glsr\\GestockBundle\\Form\\ArticleReassignType&#45;&gt;\\Symfony\\Component\\Form\\AbstractType -->
<g id="edge40" class="edge"><title>\\Glsr\\GestockBundle\\Form\\ArticleReassignType&#45;&gt;\\Symfony\\Component\\Form\\AbstractType</title>
<path fill="none" stroke="black" d="M742.21,-1773.63C727.975,-1777.25 713.334,-1781.68 700,-1787 567.37,-1839.9 425.593,-1934.92 362.969,-1979.15"/>
<polygon fill="none" stroke="black" points="360.795,-1976.4 354.667,-1985.04 364.848,-1982.11 360.795,-1976.4"/>
</g>
<!-- \\Glsr\\GestockBundle\\Listener\\GlsrRequestListener -->
<g id="node21" class="node"><title>\\Glsr\\GestockBundle\\Listener\\GlsrRequestListener</title>
<polygon fill="none" stroke="black" points="887,-1696 743,-1696 743,-1660 887,-1660 887,-1696"/>
<text text-anchor="middle" x="815" y="-1675.1" font-family="Courier,monospace" font-size="11.00">GlsrRequestListener</text>
</g>
<!-- \\Glsr\\GestockBundle\\Entity\\ZoneStorage -->
<g id="node23" class="node"><title>\\Glsr\\GestockBundle\\Entity\\ZoneStorage</title>
<polygon fill="none" stroke="black" points="860,-1614 770,-1614 770,-1578 860,-1578 860,-1614"/>
<text text-anchor="middle" x="815" y="-1593.1" font-family="Courier,monospace" font-size="11.00">ZoneStorage</text>
</g>
<!-- \\Glsr\\GestockBundle\\Entity\\Settings -->
<g id="node24" class="node"><title>\\Glsr\\GestockBundle\\Entity\\Settings</title>
<polygon fill="none" stroke="black" points="850,-1560 780,-1560 780,-1524 850,-1524 850,-1560"/>
<text text-anchor="middle" x="815" y="-1539.1" font-family="Courier,monospace" font-size="11.00">Settings</text>
</g>
<!-- \\Glsr\\GestockBundle\\Entity\\Tva -->
<g id="node25" class="node"><title>\\Glsr\\GestockBundle\\Entity\\Tva</title>
<polygon fill="none" stroke="black" points="842,-1506 788,-1506 788,-1470 842,-1470 842,-1506"/>
<text text-anchor="middle" x="815" y="-1485.1" font-family="Courier,monospace" font-size="11.00">Tva</text>
</g>
<!-- \\Glsr\\GestockBundle\\Entity\\Article -->
<g id="node26" class="node"><title>\\Glsr\\GestockBundle\\Entity\\Article</title>
<polygon fill="none" stroke="black" points="847,-1452 783,-1452 783,-1416 847,-1416 847,-1452"/>
<text text-anchor="middle" x="815" y="-1431.1" font-family="Courier,monospace" font-size="11.00">Article</text>
</g>
<!-- \\Glsr\\GestockBundle\\Entity\\FamilyLogRepository -->
<g id="node27" class="node"><title>\\Glsr\\GestockBundle\\Entity\\FamilyLogRepository</title>
<polygon fill="none" stroke="black" points="887,-1398 743,-1398 743,-1362 887,-1362 887,-1398"/>
<text text-anchor="middle" x="815" y="-1377.1" font-family="Courier,monospace" font-size="11.00">FamilyLogRepository</text>
</g>
<!-- \\Doctrine\\ORM\\EntityRepository -->
<g id="node72" class="node"><title>\\Doctrine\\ORM\\EntityRepository</title>
<ellipse fill="none" stroke="black" cx="330" cy="-975" rx="167.084" ry="18.3848"/>
<text text-anchor="middle" x="330" y="-971.4" font-family="Times Roman,serif" font-size="14.00" fill="gray">\Doctrine\ORM\EntityRepository</text>
</g>
<!-- \\Glsr\\GestockBundle\\Entity\\FamilyLogRepository&#45;&gt;\\Doctrine\\ORM\\EntityRepository -->
<g id="edge42" class="edge"><title>\\Glsr\\GestockBundle\\Entity\\FamilyLogRepository&#45;&gt;\\Doctrine\\ORM\\EntityRepository</title>
<path fill="none" stroke="black" d="M742.41,-1369.52C727.791,-1365.63 712.952,-1360.3 700,-1353 535.02,-1259.99 395.722,-1071.51 347.803,-1001.75"/>
<polygon fill="none" stroke="black" points="350.429,-999.387 341.908,-993.091 344.643,-1003.33 350.429,-999.387"/>
</g>
<!-- \\Glsr\\GestockBundle\\Entity\\UnitStorage -->
<g id="node28" class="node"><title>\\Glsr\\GestockBundle\\Entity\\UnitStorage</title>
<polygon fill="none" stroke="black" points="860,-1344 770,-1344 770,-1308 860,-1308 860,-1344"/>
<text text-anchor="middle" x="815" y="-1323.1" font-family="Courier,monospace" font-size="11.00">UnitStorage</text>
</g>
<!-- \\Glsr\\GestockBundle\\Entity\\ZoneStorageRepository -->
<g id="node29" class="node"><title>\\Glsr\\GestockBundle\\Entity\\ZoneStorageRepository</title>
<polygon fill="none" stroke="black" points="894,-1290 736,-1290 736,-1254 894,-1254 894,-1290"/>
<text text-anchor="middle" x="815" y="-1269.1" font-family="Courier,monospace" font-size="11.00">ZoneStorageRepository</text>
</g>
<!-- \\Glsr\\GestockBundle\\Entity\\ZoneStorageRepository&#45;&gt;\\Doctrine\\ORM\\EntityRepository -->
<g id="edge44" class="edge"><title>\\Glsr\\GestockBundle\\Entity\\ZoneStorageRepository&#45;&gt;\\Doctrine\\ORM\\EntityRepository</title>
<path fill="none" stroke="black" d="M735.96,-1257.87C723.644,-1254.42 711.275,-1250.18 700,-1245 556.786,-1179.23 413.57,-1053.48 356.182,-1000.03"/>
<polygon fill="none" stroke="black" points="358.352,-997.271 348.663,-992.986 353.565,-1002.38 358.352,-997.271"/>
</g>
<!-- \\Glsr\\GestockBundle\\Entity\\SupplierRepository -->
<g id="node30" class="node"><title>\\Glsr\\GestockBundle\\Entity\\SupplierRepository</title>
<polygon fill="none" stroke="black" points="884,-1236 746,-1236 746,-1200 884,-1200 884,-1236"/>
<text text-anchor="middle" x="815" y="-1215.1" font-family="Courier,monospace" font-size="11.00">SupplierRepository</text>
</g>
<!-- \\Glsr\\GestockBundle\\Entity\\SupplierRepository&#45;&gt;\\Doctrine\\ORM\\EntityRepository -->
<g id="edge46" class="edge"><title>\\Glsr\\GestockBundle\\Entity\\SupplierRepository&#45;&gt;\\Doctrine\\ORM\\EntityRepository</title>
<path fill="none" stroke="black" d="M745.86,-1205.29C730.494,-1201.5 714.477,-1196.77 700,-1191 567.37,-1138.1 425.593,-1043.08 362.969,-998.85"/>
<polygon fill="none" stroke="black" points="364.848,-995.891 354.667,-992.957 360.795,-1001.6 364.848,-995.891"/>
</g>
<!-- \\Glsr\\GestockBundle\\Entity\\Supplier -->
<g id="node31" class="node"><title>\\Glsr\\GestockBundle\\Entity\\Supplier</title>
<polygon fill="none" stroke="black" points="850,-1182 780,-1182 780,-1146 850,-1146 850,-1182"/>
<text text-anchor="middle" x="815" y="-1161.1" font-family="Courier,monospace" font-size="11.00">Supplier</text>
</g>
<!-- \\Glsr\\GestockBundle\\Entity\\SubFamilyLog -->
<g id="node32" class="node"><title>\\Glsr\\GestockBundle\\Entity\\SubFamilyLog</title>
<polygon fill="none" stroke="black" points="864,-1128 766,-1128 766,-1092 864,-1092 864,-1128"/>
<text text-anchor="middle" x="815" y="-1107.1" font-family="Courier,monospace" font-size="11.00">SubFamilyLog</text>
</g>
<!-- \\Glsr\\GestockBundle\\Entity\\SubFamilyLogRepository -->
<g id="node33" class="node"><title>\\Glsr\\GestockBundle\\Entity\\SubFamilyLogRepository</title>
<polygon fill="none" stroke="black" points="897,-1074 733,-1074 733,-1038 897,-1038 897,-1074"/>
<text text-anchor="middle" x="815" y="-1053.1" font-family="Courier,monospace" font-size="11.00">SubFamilyLogRepository</text>
</g>
<!-- \\Glsr\\GestockBundle\\Entity\\SubFamilyLogRepository&#45;&gt;\\Doctrine\\ORM\\EntityRepository -->
<g id="edge48" class="edge"><title>\\Glsr\\GestockBundle\\Entity\\SubFamilyLogRepository&#45;&gt;\\Doctrine\\ORM\\EntityRepository</title>
<path fill="none" stroke="black" d="M732.452,-1042.21C649.049,-1028.28 520.08,-1006.75 430.713,-991.82"/>
<polygon fill="none" stroke="black" points="431.273,-988.365 420.834,-990.17 430.12,-995.27 431.273,-988.365"/>
</g>
<!-- \\Glsr\\GestockBundle\\Entity\\TvaRepository -->
<g id="node34" class="node"><title>\\Glsr\\GestockBundle\\Entity\\TvaRepository</title>
<polygon fill="none" stroke="black" points="867,-1020 763,-1020 763,-984 867,-984 867,-1020"/>
<text text-anchor="middle" x="815" y="-999.1" font-family="Courier,monospace" font-size="11.00">TvaRepository</text>
</g>
<!-- \\Glsr\\GestockBundle\\Entity\\TvaRepository&#45;&gt;\\Doctrine\\ORM\\EntityRepository -->
<g id="edge50" class="edge"><title>\\Glsr\\GestockBundle\\Entity\\TvaRepository&#45;&gt;\\Doctrine\\ORM\\EntityRepository</title>
<path fill="none" stroke="black" d="M762.636,-999.085C697.645,-995.467 583.826,-989.131 489.241,-983.865"/>
<polygon fill="none" stroke="black" points="489.16,-980.355 478.981,-983.294 488.771,-987.344 489.16,-980.355"/>
</g>
<!-- \\Glsr\\GestockBundle\\Entity\\UnitStorageRepository -->
<g id="node35" class="node"><title>\\Glsr\\GestockBundle\\Entity\\UnitStorageRepository</title>
<polygon fill="none" stroke="black" points="894,-966 736,-966 736,-930 894,-930 894,-966"/>
<text text-anchor="middle" x="815" y="-945.1" font-family="Courier,monospace" font-size="11.00">UnitStorageRepository</text>
</g>
<!-- \\Glsr\\GestockBundle\\Entity\\UnitStorageRepository&#45;&gt;\\Doctrine\\ORM\\EntityRepository -->
<g id="edge52" class="edge"><title>\\Glsr\\GestockBundle\\Entity\\UnitStorageRepository&#45;&gt;\\Doctrine\\ORM\\EntityRepository</title>
<path fill="none" stroke="black" d="M735.997,-952.398C669.321,-956.11 571.778,-961.54 489.014,-966.148"/>
<polygon fill="none" stroke="black" points="488.787,-962.655 478.997,-966.705 489.176,-969.644 488.787,-962.655"/>
</g>
<!-- \\Glsr\\GestockBundle\\Entity\\SettingsRepository -->
<g id="node36" class="node"><title>\\Glsr\\GestockBundle\\Entity\\SettingsRepository</title>
<polygon fill="none" stroke="black" points="884,-912 746,-912 746,-876 884,-876 884,-912"/>
<text text-anchor="middle" x="815" y="-891.1" font-family="Courier,monospace" font-size="11.00">SettingsRepository</text>
</g>
<!-- \\Glsr\\GestockBundle\\Entity\\SettingsRepository&#45;&gt;\\Doctrine\\ORM\\EntityRepository -->
<g id="edge54" class="edge"><title>\\Glsr\\GestockBundle\\Entity\\SettingsRepository&#45;&gt;\\Doctrine\\ORM\\EntityRepository</title>
<path fill="none" stroke="black" d="M745.769,-905.562C663.446,-919.311 525.357,-942.373 431.089,-958.117"/>
<polygon fill="none" stroke="black" points="430.25,-954.709 420.963,-959.808 431.403,-961.613 430.25,-954.709"/>
</g>
<!-- \\Glsr\\GestockBundle\\Entity\\CompanyRepository -->
<g id="node37" class="node"><title>\\Glsr\\GestockBundle\\Entity\\CompanyRepository</title>
<polygon fill="none" stroke="black" points="880,-858 750,-858 750,-822 880,-822 880,-858"/>
<text text-anchor="middle" x="815" y="-837.1" font-family="Courier,monospace" font-size="11.00">CompanyRepository</text>
</g>
<!-- \\Glsr\\GestockBundle\\Entity\\CompanyRepository&#45;&gt;\\Doctrine\\ORM\\EntityRepository -->
<g id="edge56" class="edge"><title>\\Glsr\\GestockBundle\\Entity\\CompanyRepository&#45;&gt;\\Doctrine\\ORM\\EntityRepository</title>
<path fill="none" stroke="black" d="M749.473,-854.746C733.262,-858.57 715.966,-862.799 700,-867 592.236,-895.357 468.112,-932.52 394.51,-955.034"/>
<polygon fill="none" stroke="black" points="393.444,-951.7 384.908,-957.976 395.494,-958.393 393.444,-951.7"/>
</g>
<!-- \\Glsr\\GestockBundle\\Entity\\FamilyLog -->
<g id="node38" class="node"><title>\\Glsr\\GestockBundle\\Entity\\FamilyLog</title>
<polygon fill="none" stroke="black" points="853,-804 777,-804 777,-768 853,-768 853,-804"/>
<text text-anchor="middle" x="815" y="-783.1" font-family="Courier,monospace" font-size="11.00">FamilyLog</text>
</g>
<!-- \\Glsr\\GestockBundle\\Entity\\Company -->
<g id="node39" class="node"><title>\\Glsr\\GestockBundle\\Entity\\Company</title>
<polygon fill="none" stroke="black" points="847,-750 783,-750 783,-714 847,-714 847,-750"/>
<text text-anchor="middle" x="815" y="-729.1" font-family="Courier,monospace" font-size="11.00">Company</text>
</g>
<!-- \\Glsr\\GestockBundle\\Entity\\ArticleRepository -->
<g id="node40" class="node"><title>\\Glsr\\GestockBundle\\Entity\\ArticleRepository</title>
<polygon fill="none" stroke="black" points="880,-696 750,-696 750,-660 880,-660 880,-696"/>
<text text-anchor="middle" x="815" y="-675.1" font-family="Courier,monospace" font-size="11.00">ArticleRepository</text>
</g>
<!-- \\Glsr\\GestockBundle\\Entity\\ArticleRepository&#45;&gt;\\Doctrine\\ORM\\EntityRepository -->
<g id="edge58" class="edge"><title>\\Glsr\\GestockBundle\\Entity\\ArticleRepository&#45;&gt;\\Doctrine\\ORM\\EntityRepository</title>
<path fill="none" stroke="black" d="M749.319,-688.665C732.784,-692.625 715.375,-697.939 700,-705 556.786,-770.768 413.57,-896.517 356.182,-949.966"/>
<polygon fill="none" stroke="black" points="353.565,-947.621 348.663,-957.014 358.352,-952.729 353.565,-947.621"/>
</g>
<!-- \\Glsr\\GestockBundle\\DependencyInjection\\Configuration -->
<g id="node42" class="node"><title>\\Glsr\\GestockBundle\\DependencyInjection\\Configuration</title>
<polygon fill="none" stroke="black" points="867,-614 763,-614 763,-578 867,-578 867,-614"/>
<text text-anchor="middle" x="815" y="-593.1" font-family="Courier,monospace" font-size="11.00">Configuration</text>
</g>
<!-- \\Symfony\\Component\\Config\\Definition\\ConfigurationInterface -->
<g id="node82" class="node"><title>\\Symfony\\Component\\Config\\Definition\\ConfigurationInterface</title>
<ellipse fill="none" stroke="black" cx="330" cy="-486" rx="314.162" ry="18.3848"/>
<text text-anchor="middle" x="330" y="-482.4" font-family="Times Roman,serif" font-size="14.00" fill="gray">\Symfony\Component\Config\Definition\ConfigurationInterface</text>
</g>
<!-- \\Glsr\\GestockBundle\\DependencyInjection\\Configuration&#45;&gt;\\Symfony\\Component\\Config\\Definition\\ConfigurationInterface -->
<g id="edge60" class="edge"><title>\\Glsr\\GestockBundle\\DependencyInjection\\Configuration&#45;&gt;\\Symfony\\Component\\Config\\Definition\\ConfigurationInterface</title>
<path fill="none" stroke="black" stroke-dasharray="1,5" d="M762.636,-584.124C679.787,-565.333 517.592,-528.547 417.042,-505.741"/>
<polygon fill="none" stroke="black" points="417.734,-502.31 407.207,-503.511 416.185,-509.136 417.734,-502.31"/>
</g>
<!-- \\Glsr\\GestockBundle\\DependencyInjection\\GlsrGestockExtension -->
<g id="node43" class="node"><title>\\Glsr\\GestockBundle\\DependencyInjection\\GlsrGestockExtension</title>
<polygon fill="none" stroke="black" points="891,-560 739,-560 739,-524 891,-524 891,-560"/>
<text text-anchor="middle" x="815" y="-539.1" font-family="Courier,monospace" font-size="11.00">GlsrGestockExtension</text>
</g>
<!-- \\Symfony\\Component\\HttpKernel\\DependencyInjection\\Extension -->
<g id="node84" class="node"><title>\\Symfony\\Component\\HttpKernel\\DependencyInjection\\Extension</title>
<ellipse fill="none" stroke="black" cx="330" cy="-377" rx="329.012" ry="18.3848"/>
<text text-anchor="middle" x="330" y="-373.4" font-family="Times Roman,serif" font-size="14.00" fill="gray">\Symfony\Component\HttpKernel\DependencyInjection\Extension</text>
</g>
<!-- \\Glsr\\GestockBundle\\DependencyInjection\\GlsrGestockExtension&#45;&gt;\\Symfony\\Component\\HttpKernel\\DependencyInjection\\Extension -->
<g id="edge62" class="edge"><title>\\Glsr\\GestockBundle\\DependencyInjection\\GlsrGestockExtension&#45;&gt;\\Symfony\\Component\\HttpKernel\\DependencyInjection\\Extension</title>
<path fill="none" stroke="black" d="M738.919,-536.344C725.186,-532.918 711.572,-527.744 700,-520 673.056,-501.971 686.443,-477.757 660,-459 614.105,-426.444 556.637,-406.764 502.578,-394.884"/>
<polygon fill="none" stroke="black" points="503.036,-391.403 492.527,-392.755 501.585,-398.251 503.036,-391.403"/>
</g>
<!-- \\Glsr\\GestockBundle\\GlsrGestockBundle -->
<g id="node44" class="node"><title>\\Glsr\\GestockBundle\\GlsrGestockBundle</title>
<polygon fill="none" stroke="black" points="880,-506 750,-506 750,-470 880,-470 880,-506"/>
<text text-anchor="middle" x="815" y="-485.1" font-family="Courier,monospace" font-size="11.00">GlsrGestockBundle</text>
</g>
<!-- \\Symfony\\Component\\HttpKernel\\Bundle\\Bundle -->
<g id="node86" class="node"><title>\\Symfony\\Component\\HttpKernel\\Bundle\\Bundle</title>
<ellipse fill="none" stroke="black" cx="330" cy="-309" rx="246.78" ry="18.3848"/>
<text text-anchor="middle" x="330" y="-305.4" font-family="Times Roman,serif" font-size="14.00" fill="gray">\Symfony\Component\HttpKernel\Bundle\Bundle</text>
</g>
<!-- \\Glsr\\GestockBundle\\GlsrGestockBundle&#45;&gt;\\Symfony\\Component\\HttpKernel\\Bundle\\Bundle -->
<g id="edge64" class="edge"><title>\\Glsr\\GestockBundle\\GlsrGestockBundle&#45;&gt;\\Symfony\\Component\\HttpKernel\\Bundle\\Bundle</title>
<path fill="none" stroke="black" d="M764.801,-469.912C742.872,-460.107 718.089,-446.217 700,-428 672.549,-400.355 691.927,-372.327 660,-350 637.041,-333.944 610.928,-322.502 583.682,-314.501"/>
<polygon fill="none" stroke="black" points="584.572,-311.116 574,-311.813 582.699,-317.861 584.572,-311.116"/>
</g>
<!-- \\Glsr\\UserBundle\\Controller\\SecurityController -->
<g id="node47" class="node"><title>\\Glsr\\UserBundle\\Controller\\SecurityController</title>
<polygon fill="none" stroke="black" points="884,-76 746,-76 746,-40 884,-40 884,-76"/>
<text text-anchor="middle" x="815" y="-55.1" font-family="Courier,monospace" font-size="11.00">SecurityController</text>
</g>
<!-- \\FOS\\UserBundle\\Controller\\SecurityController -->
<g id="node88" class="node"><title>\\FOS\\UserBundle\\Controller\\SecurityController</title>
<ellipse fill="none" stroke="black" cx="330" cy="-58" rx="239.002" ry="18.3848"/>
<text text-anchor="middle" x="330" y="-54.4" font-family="Times Roman,serif" font-size="14.00" fill="gray">\FOS\UserBundle\Controller\SecurityController</text>
</g>
<!-- \\Glsr\\UserBundle\\Controller\\SecurityController&#45;&gt;\\FOS\\UserBundle\\Controller\\SecurityController -->
<g id="edge66" class="edge"><title>\\Glsr\\UserBundle\\Controller\\SecurityController&#45;&gt;\\FOS\\UserBundle\\Controller\\SecurityController</title>
<path fill="none" stroke="black" d="M745.769,-58C701.329,-58 640.637,-58 579.361,-58"/>
<polygon fill="none" stroke="black" points="579.125,-54.5001 569.125,-58 579.125,-61.5001 579.125,-54.5001"/>
</g>
<!-- \\Glsr\\UserBundle\\Entity\\User -->
<g id="node49" class="node"><title>\\Glsr\\UserBundle\\Entity\\User</title>
<polygon fill="none" stroke="black" points="842,-204 788,-204 788,-168 842,-168 842,-204"/>
<text text-anchor="middle" x="815" y="-183.1" font-family="Courier,monospace" font-size="11.00">User</text>
</g>
<!-- \\FOS\\UserBundle\\Entity\\User -->
<g id="node91" class="node"><title>\\FOS\\UserBundle\\Entity\\User</title>
<ellipse fill="none" stroke="black" cx="330" cy="-186" rx="152.234" ry="18.3848"/>
<text text-anchor="middle" x="330" y="-182.4" font-family="Times Roman,serif" font-size="14.00" fill="gray">\FOS\UserBundle\Entity\User</text>
</g>
<!-- \\Glsr\\UserBundle\\Entity\\User&#45;&gt;\\FOS\\UserBundle\\Entity\\User -->
<g id="edge70" class="edge"><title>\\Glsr\\UserBundle\\Entity\\User&#45;&gt;\\FOS\\UserBundle\\Entity\\User</title>
<path fill="none" stroke="black" d="M787.885,-186C732.075,-186 600.544,-186 492.706,-186"/>
<polygon fill="none" stroke="black" points="492.679,-182.5 482.679,-186 492.679,-189.5 492.679,-182.5"/>
</g>
<!-- \\Glsr\\UserBundle\\Entity\\UserRepository -->
<g id="node50" class="node"><title>\\Glsr\\UserBundle\\Entity\\UserRepository</title>
<polygon fill="none" stroke="black" points="870,-258 760,-258 760,-222 870,-222 870,-258"/>
<text text-anchor="middle" x="815" y="-237.1" font-family="Courier,monospace" font-size="11.00">UserRepository</text>
</g>
<!-- \\Glsr\\UserBundle\\Entity\\UserRepository&#45;&gt;\\Doctrine\\ORM\\EntityRepository -->
<g id="edge72" class="edge"><title>\\Glsr\\UserBundle\\Entity\\UserRepository&#45;&gt;\\Doctrine\\ORM\\EntityRepository</title>
<path fill="none" stroke="black" d="M759.325,-253.121C737.722,-260.948 714.692,-273.17 700,-292 638.595,-370.696 698.839,-421.048 660,-513 581.315,-699.287 416.804,-883.711 354.566,-949.615"/>
<polygon fill="none" stroke="black" points="351.846,-947.397 347.495,-957.057 356.921,-952.218 351.846,-947.397"/>
</g>
<!-- \\Glsr\\UserBundle\\DependencyInjection\\Configuration -->
<g id="node52" class="node"><title>\\Glsr\\UserBundle\\DependencyInjection\\Configuration</title>
<polygon fill="none" stroke="black" points="867,-394 763,-394 763,-358 867,-358 867,-394"/>
<text text-anchor="middle" x="815" y="-373.1" font-family="Courier,monospace" font-size="11.00">Configuration</text>
</g>
<!-- \\Glsr\\UserBundle\\DependencyInjection\\Configuration&#45;&gt;\\Symfony\\Component\\Config\\Definition\\ConfigurationInterface -->
<g id="edge74" class="edge"><title>\\Glsr\\UserBundle\\DependencyInjection\\Configuration&#45;&gt;\\Symfony\\Component\\Config\\Definition\\ConfigurationInterface</title>
<path fill="none" stroke="black" stroke-dasharray="1,5" d="M762.636,-387.876C679.787,-406.667 517.592,-443.453 417.042,-466.259"/>
<polygon fill="none" stroke="black" points="416.185,-462.864 407.207,-468.489 417.734,-469.69 416.185,-462.864"/>
</g>
<!-- \\Glsr\\UserBundle\\DependencyInjection\\GlsrUserExtension -->
<g id="node53" class="node"><title>\\Glsr\\UserBundle\\DependencyInjection\\GlsrUserExtension</title>
<polygon fill="none" stroke="black" points="880,-340 750,-340 750,-304 880,-304 880,-340"/>
<text text-anchor="middle" x="815" y="-319.1" font-family="Courier,monospace" font-size="11.00">GlsrUserExtension</text>
</g>
<!-- \\Glsr\\UserBundle\\DependencyInjection\\GlsrUserExtension&#45;&gt;\\Symfony\\Component\\HttpKernel\\DependencyInjection\\Extension -->
<g id="edge76" class="edge"><title>\\Glsr\\UserBundle\\DependencyInjection\\GlsrUserExtension&#45;&gt;\\Symfony\\Component\\HttpKernel\\DependencyInjection\\Extension</title>
<path fill="none" stroke="black" d="M749.339,-329.446C681.368,-337.154 572.78,-349.468 483.135,-359.634"/>
<polygon fill="none" stroke="black" points="482.678,-356.163 473.136,-360.768 483.467,-363.119 482.678,-356.163"/>
</g>
<!-- \\Glsr\\UserBundle\\GlsrUserBundle -->
<g id="node54" class="node"><title>\\Glsr\\UserBundle\\GlsrUserBundle</title>
<polygon fill="none" stroke="black" points="870,-150 760,-150 760,-114 870,-114 870,-150"/>
<text text-anchor="middle" x="815" y="-129.1" font-family="Courier,monospace" font-size="11.00">GlsrUserBundle</text>
</g>
<!-- \\Glsr\\UserBundle\\GlsrUserBundle&#45;&gt;\\Symfony\\Component\\HttpKernel\\Bundle\\Bundle -->
<g id="edge68" class="edge"><title>\\Glsr\\UserBundle\\GlsrUserBundle&#45;&gt;\\Symfony\\Component\\HttpKernel\\Bundle\\Bundle</title>
<path fill="none" stroke="black" d="M759.377,-135.138C739.374,-138.365 717.46,-144.503 700,-156 674.152,-173.021 685.171,-194.993 660,-213 602.537,-254.11 527.627,-277.728 463.705,-291.241"/>
<polygon fill="none" stroke="black" points="462.638,-287.887 453.545,-293.325 464.044,-294.745 462.638,-287.887"/>
</g>
</g>
</svg>
