<?xml version="1.0" encoding="UTF-8" standalone="no"?>
<!DOCTYPE svg PUBLIC "-//W3C//DTD SVG 1.1//EN"
 "http://www.w3.org/Graphics/SVG/1.1/DTD/svg11.dtd">
<!-- Generated by graphviz version 2.26.3 (20100126.1600)
 -->
<!-- Title: G Pages: 1 -->
<svg width="946pt" height="2644pt"
 viewBox="0.00 0.00 946.00 2644.00" xmlns="http://www.w3.org/2000/svg" xmlns:xlink="http://www.w3.org/1999/xlink">
<g id="graph1" class="graph" transform="scale(1 1) rotate(0) translate(4 2640)">
<title>G</title>
<polygon fill="white" stroke="white" points="-4,5 -4,-2640 943,-2640 943,5 -4,5"/>
<g id="graph2" class="cluster"><title>cluster_Global</title>
<polyline fill="none" stroke="gray" points="712,-8 918,-8 "/>
<path fill="none" stroke="gray" d="M918,-8C924,-8 930,-14 930,-20"/>
<polyline fill="none" stroke="gray" points="930,-20 930,-2616 "/>
<path fill="none" stroke="gray" d="M930,-2616C930,-2622 924,-2628 918,-2628"/>
<polyline fill="none" stroke="gray" points="918,-2628 712,-2628 "/>
<path fill="none" stroke="gray" d="M712,-2628C706,-2628 700,-2622 700,-2616"/>
<polyline fill="none" stroke="gray" points="700,-2616 700,-20 "/>
<path fill="none" stroke="gray" d="M700,-20C700,-14 706,-8 712,-8"/>
<text text-anchor="middle" x="815" y="-2614.1" font-family="Times Roman,serif" font-size="11.00" fill="gray">Global</text>
</g>
<g id="graph3" class="cluster"><title>cluster_\Glsr</title>
<polyline fill="none" stroke="gray" points="720,-16 910,-16 "/>
<path fill="none" stroke="gray" d="M910,-16C916,-16 922,-22 922,-28"/>
<polyline fill="none" stroke="gray" points="922,-28 922,-2586 "/>
<path fill="none" stroke="gray" d="M922,-2586C922,-2592 916,-2598 910,-2598"/>
<polyline fill="none" stroke="gray" points="910,-2598 720,-2598 "/>
<path fill="none" stroke="gray" d="M720,-2598C714,-2598 708,-2592 708,-2586"/>
<polyline fill="none" stroke="gray" points="708,-2586 708,-28 "/>
<path fill="none" stroke="gray" d="M708,-28C708,-22 714,-16 720,-16"/>
<text text-anchor="middle" x="815" y="-2584.1" font-family="Times Roman,serif" font-size="11.00" fill="gray">Glsr</text>
</g>
<g id="graph4" class="cluster"><title>cluster_\Glsr\UserBundle</title>
<polyline fill="none" stroke="gray" points="742,-2138 888,-2138 "/>
<path fill="none" stroke="gray" d="M888,-2138C894,-2138 900,-2144 900,-2150"/>
<polyline fill="none" stroke="gray" points="900,-2150 900,-2556 "/>
<path fill="none" stroke="gray" d="M900,-2556C900,-2562 894,-2568 888,-2568"/>
<polyline fill="none" stroke="gray" points="888,-2568 742,-2568 "/>
<path fill="none" stroke="gray" d="M742,-2568C736,-2568 730,-2562 730,-2556"/>
<polyline fill="none" stroke="gray" points="730,-2556 730,-2150 "/>
<path fill="none" stroke="gray" d="M730,-2150C730,-2144 736,-2138 742,-2138"/>
<text text-anchor="middle" x="815" y="-2554.1" font-family="Times Roman,serif" font-size="11.00" fill="gray">UserBundle</text>
</g>
<g id="graph5" class="cluster"><title>cluster_\Glsr\UserBundle\Entity</title>
<polyline fill="none" stroke="gray" points="763,-2410 867,-2410 "/>
<path fill="none" stroke="gray" d="M867,-2410C873,-2410 879,-2416 879,-2422"/>
<polyline fill="none" stroke="gray" points="879,-2422 879,-2526 "/>
<path fill="none" stroke="gray" d="M879,-2526C879,-2532 873,-2538 867,-2538"/>
<polyline fill="none" stroke="gray" points="867,-2538 763,-2538 "/>
<path fill="none" stroke="gray" d="M763,-2538C757,-2538 751,-2532 751,-2526"/>
<polyline fill="none" stroke="gray" points="751,-2526 751,-2422 "/>
<path fill="none" stroke="gray" d="M751,-2422C751,-2416 757,-2410 763,-2410"/>
<text text-anchor="middle" x="815" y="-2524.1" font-family="Times Roman,serif" font-size="11.00" fill="gray">Entity</text>
</g>
<g id="graph6" class="cluster"><title>cluster_\Glsr\UserBundle\DependencyInjection</title>
<polyline fill="none" stroke="gray" points="753,-2274 877,-2274 "/>
<path fill="none" stroke="gray" d="M877,-2274C883,-2274 889,-2280 889,-2286"/>
<polyline fill="none" stroke="gray" points="889,-2286 889,-2390 "/>
<path fill="none" stroke="gray" d="M889,-2390C889,-2396 883,-2402 877,-2402"/>
<polyline fill="none" stroke="gray" points="877,-2402 753,-2402 "/>
<path fill="none" stroke="gray" d="M753,-2402C747,-2402 741,-2396 741,-2390"/>
<polyline fill="none" stroke="gray" points="741,-2390 741,-2286 "/>
<path fill="none" stroke="gray" d="M741,-2286C741,-2280 747,-2274 753,-2274"/>
<text text-anchor="middle" x="815" y="-2388.1" font-family="Times Roman,serif" font-size="11.00" fill="gray">DependencyInjection</text>
</g>
<g id="graph7" class="cluster"><title>cluster_\Glsr\UserBundle\Controller</title>
<polyline fill="none" stroke="gray" points="750,-2192 880,-2192 "/>
<path fill="none" stroke="gray" d="M880,-2192C886,-2192 892,-2198 892,-2204"/>
<polyline fill="none" stroke="gray" points="892,-2204 892,-2254 "/>
<path fill="none" stroke="gray" d="M892,-2254C892,-2260 886,-2266 880,-2266"/>
<polyline fill="none" stroke="gray" points="880,-2266 750,-2266 "/>
<path fill="none" stroke="gray" d="M750,-2266C744,-2266 738,-2260 738,-2254"/>
<polyline fill="none" stroke="gray" points="738,-2254 738,-2204 "/>
<path fill="none" stroke="gray" d="M738,-2204C738,-2198 744,-2192 750,-2192"/>
<text text-anchor="middle" x="815" y="-2252.1" font-family="Times Roman,serif" font-size="11.00" fill="gray">Controller</text>
</g>
<g id="graph8" class="cluster"><title>cluster_\Glsr\GestockBundle</title>
<polyline fill="none" stroke="gray" points="728,-24 902,-24 "/>
<path fill="none" stroke="gray" d="M902,-24C908,-24 914,-30 914,-36"/>
<polyline fill="none" stroke="gray" points="914,-36 914,-2118 "/>
<path fill="none" stroke="gray" d="M914,-2118C914,-2124 908,-2130 902,-2130"/>
<polyline fill="none" stroke="gray" points="902,-2130 728,-2130 "/>
<path fill="none" stroke="gray" d="M728,-2130C722,-2130 716,-2124 716,-2118"/>
<polyline fill="none" stroke="gray" points="716,-2118 716,-36 "/>
<path fill="none" stroke="gray" d="M716,-36C716,-30 722,-24 728,-24"/>
<text text-anchor="middle" x="815" y="-2116.1" font-family="Times Roman,serif" font-size="11.00" fill="gray">GestockBundle</text>
</g>
<g id="graph9" class="cluster"><title>cluster_\Glsr\GestockBundle\Listener</title>
<polyline fill="none" stroke="gray" points="746,-2026 884,-2026 "/>
<path fill="none" stroke="gray" d="M884,-2026C890,-2026 896,-2032 896,-2038"/>
<polyline fill="none" stroke="gray" points="896,-2038 896,-2088 "/>
<path fill="none" stroke="gray" d="M896,-2088C896,-2094 890,-2100 884,-2100"/>
<polyline fill="none" stroke="gray" points="884,-2100 746,-2100 "/>
<path fill="none" stroke="gray" d="M746,-2100C740,-2100 734,-2094 734,-2088"/>
<polyline fill="none" stroke="gray" points="734,-2088 734,-2038 "/>
<path fill="none" stroke="gray" d="M734,-2038C734,-2032 740,-2026 746,-2026"/>
<text text-anchor="middle" x="815" y="-2086.1" font-family="Times Roman,serif" font-size="11.00" fill="gray">Listener</text>
</g>
<g id="graph10" class="cluster"><title>cluster_\Glsr\GestockBundle\Form</title>
<polyline fill="none" stroke="gray" points="746,-276 884,-276 "/>
<path fill="none" stroke="gray" d="M884,-276C890,-276 896,-282 896,-288"/>
<polyline fill="none" stroke="gray" points="896,-288 896,-824 "/>
<path fill="none" stroke="gray" d="M896,-824C896,-830 890,-836 884,-836"/>
<polyline fill="none" stroke="gray" points="884,-836 746,-836 "/>
<path fill="none" stroke="gray" d="M746,-836C740,-836 734,-830 734,-824"/>
<polyline fill="none" stroke="gray" points="734,-824 734,-288 "/>
<path fill="none" stroke="gray" d="M734,-288C734,-282 740,-276 746,-276"/>
<text text-anchor="middle" x="815" y="-822.1" font-family="Times Roman,serif" font-size="11.00" fill="gray">Form</text>
</g>
<g id="graph11" class="cluster"><title>cluster_\Glsr\GestockBundle\Entity</title>
<polyline fill="none" stroke="gray" points="736,-1026 894,-1026 "/>
<path fill="none" stroke="gray" d="M894,-1026C900,-1026 906,-1032 906,-1038"/>
<polyline fill="none" stroke="gray" points="906,-1038 906,-2006 "/>
<path fill="none" stroke="gray" d="M906,-2006C906,-2012 900,-2018 894,-2018"/>
<polyline fill="none" stroke="gray" points="894,-2018 736,-2018 "/>
<path fill="none" stroke="gray" d="M736,-2018C730,-2018 724,-2012 724,-2006"/>
<polyline fill="none" stroke="gray" points="724,-2006 724,-1038 "/>
<path fill="none" stroke="gray" d="M724,-1038C724,-1032 730,-1026 736,-1026"/>
<text text-anchor="middle" x="815" y="-2004.1" font-family="Times Roman,serif" font-size="11.00" fill="gray">Entity</text>
</g>
<g id="graph12" class="cluster"><title>cluster_\Glsr\GestockBundle\DependencyInjection</title>
<polyline fill="none" stroke="gray" points="743,-890 887,-890 "/>
<path fill="none" stroke="gray" d="M887,-890C893,-890 899,-896 899,-902"/>
<polyline fill="none" stroke="gray" points="899,-902 899,-1006 "/>
<path fill="none" stroke="gray" d="M899,-1006C899,-1012 893,-1018 887,-1018"/>
<polyline fill="none" stroke="gray" points="887,-1018 743,-1018 "/>
<path fill="none" stroke="gray" d="M743,-1018C737,-1018 731,-1012 731,-1006"/>
<polyline fill="none" stroke="gray" points="731,-1006 731,-902 "/>
<path fill="none" stroke="gray" d="M731,-902C731,-896 737,-890 743,-890"/>
<text text-anchor="middle" x="815" y="-1004.1" font-family="Times Roman,serif" font-size="11.00" fill="gray">DependencyInjection</text>
</g>
<g id="graph13" class="cluster"><title>cluster_\Glsr\GestockBundle\Controller</title>
<polyline fill="none" stroke="gray" points="750,-32 880,-32 "/>
<path fill="none" stroke="gray" d="M880,-32C886,-32 892,-38 892,-44"/>
<polyline fill="none" stroke="gray" points="892,-44 892,-256 "/>
<path fill="none" stroke="gray" d="M892,-256C892,-262 886,-268 880,-268"/>
<polyline fill="none" stroke="gray" points="880,-268 750,-268 "/>
<path fill="none" stroke="gray" d="M750,-268C744,-268 738,-262 738,-256"/>
<polyline fill="none" stroke="gray" points="738,-256 738,-44 "/>
<path fill="none" stroke="gray" d="M738,-44C738,-38 744,-32 750,-32"/>
<text text-anchor="middle" x="815" y="-254.1" font-family="Times Roman,serif" font-size="11.00" fill="gray">Controller</text>
</g>
<!-- \\Glsr\\UserBundle\\Entity\\UserRepository -->
<g id="node5" class="node"><title>\\Glsr\\UserBundle\\Entity\\UserRepository</title>
<polygon fill="none" stroke="black" points="870,-2454 760,-2454 760,-2418 870,-2418 870,-2454"/>
<text text-anchor="middle" x="815" y="-2433.1" font-family="Courier,monospace" font-size="11.00">UserRepository</text>
</g>
<!-- \\Doctrine\\ORM\\EntityRepository -->
<g id="node58" class="node"><title>\\Doctrine\\ORM\\EntityRepository</title>
<ellipse fill="none" stroke="black" cx="330" cy="-1592" rx="167.084" ry="18.3848"/>
<text text-anchor="middle" x="330" y="-1588.4" font-family="Times Roman,serif" font-size="14.00" fill="gray">\Doctrine\ORM\EntityRepository</text>
</g>
<!-- \\Glsr\\UserBundle\\Entity\\UserRepository&#45;&gt;\\Doctrine\\ORM\\EntityRepository -->
<g id="edge16" class="edge"><title>\\Glsr\\UserBundle\\Entity\\UserRepository&#45;&gt;\\Doctrine\\ORM\\EntityRepository</title>
<path fill="none" stroke="black" d="M759.36,-2433.87C738.026,-2430.2 715.186,-2422.31 700,-2406 633.764,-2334.87 692.756,-2282.51 660,-2191 575.429,-1954.74 405.567,-1700.3 348.893,-1618.74"/>
<polygon fill="none" stroke="black" points="351.45,-1616.29 342.856,-1610.09 345.71,-1620.3 351.45,-1616.29"/>
</g>
<!-- \\Glsr\\UserBundle\\Entity\\User -->
<g id="node6" class="node"><title>\\Glsr\\UserBundle\\Entity\\User</title>
<polygon fill="none" stroke="black" points="842,-2508 788,-2508 788,-2472 842,-2472 842,-2508"/>
<text text-anchor="middle" x="815" y="-2487.1" font-family="Courier,monospace" font-size="11.00">User</text>
</g>
<!-- \\FOS\\UserBundle\\Entity\\User -->
<g id="node60" class="node"><title>\\FOS\\UserBundle\\Entity\\User</title>
<ellipse fill="none" stroke="black" cx="330" cy="-2490" rx="152.234" ry="18.3848"/>
<text text-anchor="middle" x="330" y="-2486.4" font-family="Times Roman,serif" font-size="14.00" fill="gray">\FOS\UserBundle\Entity\User</text>
</g>
<!-- \\Glsr\\UserBundle\\Entity\\User&#45;&gt;\\FOS\\UserBundle\\Entity\\User -->
<g id="edge18" class="edge"><title>\\Glsr\\UserBundle\\Entity\\User&#45;&gt;\\FOS\\UserBundle\\Entity\\User</title>
<path fill="none" stroke="black" d="M787.885,-2490C732.075,-2490 600.544,-2490 492.706,-2490"/>
<polygon fill="none" stroke="black" points="492.679,-2486.5 482.679,-2490 492.679,-2493.5 492.679,-2486.5"/>
</g>
<!-- \\Glsr\\UserBundle\\DependencyInjection\\GlsrUserExtension -->
<g id="node8" class="node"><title>\\Glsr\\UserBundle\\DependencyInjection\\GlsrUserExtension</title>
<polygon fill="none" stroke="black" points="880,-2372 750,-2372 750,-2336 880,-2336 880,-2372"/>
<text text-anchor="middle" x="815" y="-2351.1" font-family="Courier,monospace" font-size="11.00">GlsrUserExtension</text>
</g>
<!-- \\Symfony\\Component\\HttpKernel\\DependencyInjection\\Extension -->
<g id="node62" class="node"><title>\\Symfony\\Component\\HttpKernel\\DependencyInjection\\Extension</title>
<ellipse fill="none" stroke="black" cx="330" cy="-1281" rx="329.012" ry="18.3848"/>
<text text-anchor="middle" x="330" y="-1277.4" font-family="Times Roman,serif" font-size="14.00" fill="gray">\Symfony\Component\HttpKernel\DependencyInjection\Extension</text>
</g>
<!-- \\Glsr\\UserBundle\\DependencyInjection\\GlsrUserExtension&#45;&gt;\\Symfony\\Component\\HttpKernel\\DependencyInjection\\Extension -->
<g id="edge20" class="edge"><title>\\Glsr\\UserBundle\\DependencyInjection\\GlsrUserExtension&#45;&gt;\\Symfony\\Component\\HttpKernel\\DependencyInjection\\Extension</title>
<path fill="none" stroke="black" d="M749.382,-2352.9C730.755,-2349.2 712.233,-2341.63 700,-2327 645.62,-2261.95 697.359,-1641.11 660,-1565 597.636,-1437.95 449.961,-1344.82 375.133,-1303.96"/>
<polygon fill="none" stroke="black" points="376.407,-1300.67 365.944,-1299.01 373.085,-1306.83 376.407,-1300.67"/>
</g>
<!-- \\Glsr\\UserBundle\\DependencyInjection\\Configuration -->
<g id="node9" class="node"><title>\\Glsr\\UserBundle\\DependencyInjection\\Configuration</title>
<polygon fill="none" stroke="black" points="867,-2318 763,-2318 763,-2282 867,-2282 867,-2318"/>
<text text-anchor="middle" x="815" y="-2297.1" font-family="Courier,monospace" font-size="11.00">Configuration</text>
</g>
<!-- \\Symfony\\Component\\Config\\Definition\\ConfigurationInterface -->
<g id="node64" class="node"><title>\\Symfony\\Component\\Config\\Definition\\ConfigurationInterface</title>
<ellipse fill="none" stroke="black" cx="330" cy="-1071" rx="314.162" ry="18.3848"/>
<text text-anchor="middle" x="330" y="-1067.4" font-family="Times Roman,serif" font-size="14.00" fill="gray">\Symfony\Component\Config\Definition\ConfigurationInterface</text>
</g>
<!-- \\Glsr\\UserBundle\\DependencyInjection\\Configuration&#45;&gt;\\Symfony\\Component\\Config\\Definition\\ConfigurationInterface -->
<g id="edge22" class="edge"><title>\\Glsr\\UserBundle\\DependencyInjection\\Configuration&#45;&gt;\\Symfony\\Component\\Config\\Definition\\ConfigurationInterface</title>
<path fill="none" stroke="black" stroke-dasharray="1,5" d="M762.899,-2299.63C740.022,-2296.56 715.003,-2288.65 700,-2270 629.183,-2181.97 719.235,-1350.2 660,-1254 605.32,-1165.2 491.038,-1116.07 412.424,-1091.62"/>
<polygon fill="none" stroke="black" points="413.126,-1088.17 402.54,-1088.62 411.091,-1094.87 413.126,-1088.17"/>
</g>
<!-- \\Glsr\\UserBundle\\Controller\\SecurityController -->
<g id="node11" class="node"><title>\\Glsr\\UserBundle\\Controller\\SecurityController</title>
<polygon fill="none" stroke="black" points="884,-2236 746,-2236 746,-2200 884,-2200 884,-2236"/>
<text text-anchor="middle" x="815" y="-2215.1" font-family="Courier,monospace" font-size="11.00">SecurityController</text>
</g>
<!-- \\FOS\\UserBundle\\Controller\\SecurityController -->
<g id="node66" class="node"><title>\\FOS\\UserBundle\\Controller\\SecurityController</title>
<ellipse fill="none" stroke="black" cx="330" cy="-2218" rx="239.002" ry="18.3848"/>
<text text-anchor="middle" x="330" y="-2214.4" font-family="Times Roman,serif" font-size="14.00" fill="gray">\FOS\UserBundle\Controller\SecurityController</text>
</g>
<!-- \\Glsr\\UserBundle\\Controller\\SecurityController&#45;&gt;\\FOS\\UserBundle\\Controller\\SecurityController -->
<g id="edge24" class="edge"><title>\\Glsr\\UserBundle\\Controller\\SecurityController&#45;&gt;\\FOS\\UserBundle\\Controller\\SecurityController</title>
<path fill="none" stroke="black" d="M745.769,-2218C701.329,-2218 640.637,-2218 579.361,-2218"/>
<polygon fill="none" stroke="black" points="579.125,-2214.5 569.125,-2218 579.125,-2221.5 579.125,-2214.5"/>
</g>
<!-- \\Glsr\\UserBundle\\GlsrUserBundle -->
<g id="node12" class="node"><title>\\Glsr\\UserBundle\\GlsrUserBundle</title>
<polygon fill="none" stroke="black" points="870,-2182 760,-2182 760,-2146 870,-2146 870,-2182"/>
<text text-anchor="middle" x="815" y="-2161.1" font-family="Courier,monospace" font-size="11.00">GlsrUserBundle</text>
</g>
<!-- \\Symfony\\Component\\HttpKernel\\Bundle\\Bundle -->
<g id="node56" class="node"><title>\\Symfony\\Component\\HttpKernel\\Bundle\\Bundle</title>
<ellipse fill="none" stroke="black" cx="330" cy="-939" rx="246.78" ry="18.3848"/>
<text text-anchor="middle" x="330" y="-935.4" font-family="Times Roman,serif" font-size="14.00" fill="gray">\Symfony\Component\HttpKernel\Bundle\Bundle</text>
</g>
<!-- \\Glsr\\UserBundle\\GlsrUserBundle&#45;&gt;\\Symfony\\Component\\HttpKernel\\Bundle\\Bundle -->
<g id="edge14" class="edge"><title>\\Glsr\\UserBundle\\GlsrUserBundle&#45;&gt;\\Symfony\\Component\\HttpKernel\\Bundle\\Bundle</title>
<path fill="none" stroke="black" d="M759.269,-2148.52C736.964,-2139.34 713.419,-2125.22 700,-2104 637.013,-2004.38 731.35,-1137.81 660,-1044 623.272,-995.71 564.223,-969.175 506.157,-954.748"/>
<polygon fill="none" stroke="black" points="506.631,-951.264 496.094,-952.364 505.017,-958.075 506.631,-951.264"/>
</g>
<!-- \\Glsr\\GestockBundle\\Listener\\GlsrRequestListener -->
<g id="node15" class="node"><title>\\Glsr\\GestockBundle\\Listener\\GlsrRequestListener</title>
<polygon fill="none" stroke="black" points="887,-2070 743,-2070 743,-2034 887,-2034 887,-2070"/>
<text text-anchor="middle" x="815" y="-2049.1" font-family="Courier,monospace" font-size="11.00">GlsrRequestListener</text>
</g>
<!-- \\Glsr\\GestockBundle\\Form\\ZoneStorageType -->
<g id="node17" class="node"><title>\\Glsr\\GestockBundle\\Form\\ZoneStorageType</title>
<polygon fill="none" stroke="black" points="874,-590 756,-590 756,-554 874,-554 874,-590"/>
<text text-anchor="middle" x="815" y="-569.1" font-family="Courier,monospace" font-size="11.00">ZoneStorageType</text>
</g>
<!-- \\Symfony\\Component\\Form\\AbstractType -->
<g id="node69" class="node"><title>\\Symfony\\Component\\Form\\AbstractType</title>
<ellipse fill="none" stroke="black" cx="330" cy="-545" rx="210.217" ry="18.3848"/>
<text text-anchor="middle" x="330" y="-541.4" font-family="Times Roman,serif" font-size="14.00" fill="gray">\Symfony\Component\Form\AbstractType</text>
</g>
<!-- \\Glsr\\GestockBundle\\Form\\ZoneStorageType&#45;&gt;\\Symfony\\Component\\Form\\AbstractType -->
<g id="edge28" class="edge"><title>\\Glsr\\GestockBundle\\Form\\ZoneStorageType&#45;&gt;\\Symfony\\Component\\Form\\AbstractType</title>
<path fill="none" stroke="black" d="M755.529,-568.689C696.039,-565.377 601.415,-560.11 516.486,-555.382"/>
<polygon fill="none" stroke="black" points="516.626,-551.884 506.447,-554.823 516.237,-558.873 516.626,-551.884"/>
</g>
<!-- \\Glsr\\GestockBundle\\Form\\UnitStorageType -->
<g id="node18" class="node"><title>\\Glsr\\GestockBundle\\Form\\UnitStorageType</title>
<polygon fill="none" stroke="black" points="874,-536 756,-536 756,-500 874,-500 874,-536"/>
<text text-anchor="middle" x="815" y="-515.1" font-family="Courier,monospace" font-size="11.00">UnitStorageType</text>
</g>
<!-- \\Glsr\\GestockBundle\\Form\\UnitStorageType&#45;&gt;\\Symfony\\Component\\Form\\AbstractType -->
<g id="edge30" class="edge"><title>\\Glsr\\GestockBundle\\Form\\UnitStorageType&#45;&gt;\\Symfony\\Component\\Form\\AbstractType</title>
<path fill="none" stroke="black" d="M755.529,-521.311C696.039,-524.623 601.415,-529.89 516.486,-534.618"/>
<polygon fill="none" stroke="black" points="516.237,-531.127 506.447,-535.177 516.626,-538.116 516.237,-531.127"/>
</g>
<!-- \\Glsr\\GestockBundle\\Form\\TvaType -->
<g id="node19" class="node"><title>\\Glsr\\GestockBundle\\Form\\TvaType</title>
<polygon fill="none" stroke="black" points="847,-482 783,-482 783,-446 847,-446 847,-482"/>
<text text-anchor="middle" x="815" y="-461.1" font-family="Courier,monospace" font-size="11.00">TvaType</text>
</g>
<!-- \\Glsr\\GestockBundle\\Form\\TvaType&#45;&gt;\\Symfony\\Component\\Form\\AbstractType -->
<g id="edge32" class="edge"><title>\\Glsr\\GestockBundle\\Form\\TvaType&#45;&gt;\\Symfony\\Component\\Form\\AbstractType</title>
<path fill="none" stroke="black" d="M782.802,-469.377C713.355,-480.976 546.839,-508.786 436.264,-527.253"/>
<polygon fill="none" stroke="black" points="435.364,-523.855 426.077,-528.954 436.517,-530.759 435.364,-523.855"/>
</g>
<!-- \\Glsr\\GestockBundle\\Form\\SupplierType -->
<g id="node20" class="node"><title>\\Glsr\\GestockBundle\\Form\\SupplierType</title>
<polygon fill="none" stroke="black" points="864,-428 766,-428 766,-392 864,-392 864,-428"/>
<text text-anchor="middle" x="815" y="-407.1" font-family="Courier,monospace" font-size="11.00">SupplierType</text>
</g>
<!-- \\Glsr\\GestockBundle\\Form\\SupplierType&#45;&gt;\\Symfony\\Component\\Form\\AbstractType -->
<g id="edge34" class="edge"><title>\\Glsr\\GestockBundle\\Form\\SupplierType&#45;&gt;\\Symfony\\Component\\Form\\AbstractType</title>
<path fill="none" stroke="black" d="M765.893,-420.922C745.455,-425.625 721.519,-431.338 700,-437 592.856,-465.194 469.539,-502.093 395.784,-524.645"/>
<polygon fill="none" stroke="black" points="394.692,-521.319 386.155,-527.593 396.742,-528.012 394.692,-521.319"/>
</g>
<!-- \\Glsr\\GestockBundle\\Form\\SubFamilyLogType -->
<g id="node21" class="node"><title>\\Glsr\\GestockBundle\\Form\\SubFamilyLogType</title>
<polygon fill="none" stroke="black" points="877,-374 753,-374 753,-338 877,-338 877,-374"/>
<text text-anchor="middle" x="815" y="-353.1" font-family="Courier,monospace" font-size="11.00">SubFamilyLogType</text>
</g>
<!-- \\Glsr\\GestockBundle\\Form\\SubFamilyLogType&#45;&gt;\\Symfony\\Component\\Form\\AbstractType -->
<g id="edge36" class="edge"><title>\\Glsr\\GestockBundle\\Form\\SubFamilyLogType&#45;&gt;\\Symfony\\Component\\Form\\AbstractType</title>
<path fill="none" stroke="black" d="M752.351,-368.53C735.201,-372.548 716.733,-377.424 700,-383 578.641,-423.439 442.364,-488.505 374.051,-522.566"/>
<polygon fill="none" stroke="black" points="372.247,-519.555 364.872,-527.161 375.38,-525.815 372.247,-519.555"/>
</g>
<!-- \\Glsr\\GestockBundle\\Form\\SettingsType -->
<g id="node22" class="node"><title>\\Glsr\\GestockBundle\\Form\\SettingsType</title>
<polygon fill="none" stroke="black" points="864,-320 766,-320 766,-284 864,-284 864,-320"/>
<text text-anchor="middle" x="815" y="-299.1" font-family="Courier,monospace" font-size="11.00">SettingsType</text>
</g>
<!-- \\Glsr\\GestockBundle\\Form\\SettingsType&#45;&gt;\\Symfony\\Component\\Form\\AbstractType -->
<g id="edge38" class="edge"><title>\\Glsr\\GestockBundle\\Form\\SettingsType&#45;&gt;\\Symfony\\Component\\Form\\AbstractType</title>
<path fill="none" stroke="black" d="M765.897,-310.174C745.133,-314.482 720.954,-320.643 700,-329 567.37,-381.898 425.593,-476.924 362.969,-521.15"/>
<polygon fill="none" stroke="black" points="360.795,-518.401 354.667,-527.043 364.848,-524.109 360.795,-518.401"/>
</g>
<!-- \\Glsr\\GestockBundle\\Form\\FamilyLogType -->
<g id="node23" class="node"><title>\\Glsr\\GestockBundle\\Form\\FamilyLogType</title>
<polygon fill="none" stroke="black" points="867,-806 763,-806 763,-770 867,-770 867,-806"/>
<text text-anchor="middle" x="815" y="-785.1" font-family="Courier,monospace" font-size="11.00">FamilyLogType</text>
</g>
<!-- \\Glsr\\GestockBundle\\Form\\FamilyLogType&#45;&gt;\\Symfony\\Component\\Form\\AbstractType -->
<g id="edge40" class="edge"><title>\\Glsr\\GestockBundle\\Form\\FamilyLogType&#45;&gt;\\Symfony\\Component\\Form\\AbstractType</title>
<path fill="none" stroke="black" d="M762.758,-779.166C742.723,-774.896 719.906,-768.939 700,-761 567.37,-708.102 425.593,-613.076 362.969,-568.85"/>
<polygon fill="none" stroke="black" points="364.848,-565.891 354.667,-562.957 360.795,-571.599 364.848,-565.891"/>
</g>
<!-- \\Glsr\\GestockBundle\\Form\\CompanyType -->
<g id="node24" class="node"><title>\\Glsr\\GestockBundle\\Form\\CompanyType</title>
<polygon fill="none" stroke="black" points="860,-752 770,-752 770,-716 860,-716 860,-752"/>
<text text-anchor="middle" x="815" y="-731.1" font-family="Courier,monospace" font-size="11.00">CompanyType</text>
</g>
<!-- \\Glsr\\GestockBundle\\Form\\CompanyType&#45;&gt;\\Symfony\\Component\\Form\\AbstractType -->
<g id="edge42" class="edge"><title>\\Glsr\\GestockBundle\\Form\\CompanyType&#45;&gt;\\Symfony\\Component\\Form\\AbstractType</title>
<path fill="none" stroke="black" d="M769.411,-725.295C748.076,-720.715 722.472,-714.488 700,-707 578.641,-666.561 442.364,-601.495 374.051,-567.434"/>
<polygon fill="none" stroke="black" points="375.38,-564.185 364.872,-562.839 372.247,-570.445 375.38,-564.185"/>
</g>
<!-- \\Glsr\\GestockBundle\\Form\\ArticleType -->
<g id="node25" class="node"><title>\\Glsr\\GestockBundle\\Form\\ArticleType</title>
<polygon fill="none" stroke="black" points="860,-698 770,-698 770,-662 860,-662 860,-698"/>
<text text-anchor="middle" x="815" y="-677.1" font-family="Courier,monospace" font-size="11.00">ArticleType</text>
</g>
<!-- \\Glsr\\GestockBundle\\Form\\ArticleType&#45;&gt;\\Symfony\\Component\\Form\\AbstractType -->
<g id="edge44" class="edge"><title>\\Glsr\\GestockBundle\\Form\\ArticleType&#45;&gt;\\Symfony\\Component\\Form\\AbstractType</title>
<path fill="none" stroke="black" d="M769.251,-669.849C748.109,-665.007 722.709,-658.976 700,-653 592.856,-624.806 469.539,-587.907 395.784,-565.355"/>
<polygon fill="none" stroke="black" points="396.742,-561.988 386.155,-562.407 394.692,-568.681 396.742,-561.988"/>
</g>
<!-- \\Glsr\\GestockBundle\\Form\\ArticleReassignType -->
<g id="node26" class="node"><title>\\Glsr\\GestockBundle\\Form\\ArticleReassignType</title>
<polygon fill="none" stroke="black" points="887,-644 743,-644 743,-608 887,-608 887,-644"/>
<text text-anchor="middle" x="815" y="-623.1" font-family="Courier,monospace" font-size="11.00">ArticleReassignType</text>
</g>
<!-- \\Glsr\\GestockBundle\\Form\\ArticleReassignType&#45;&gt;\\Symfony\\Component\\Form\\AbstractType -->
<g id="edge46" class="edge"><title>\\Glsr\\GestockBundle\\Form\\ArticleReassignType&#45;&gt;\\Symfony\\Component\\Form\\AbstractType</title>
<path fill="none" stroke="black" d="M742.391,-613.873C661.184,-600.311 528.898,-578.218 436.102,-562.72"/>
<polygon fill="none" stroke="black" points="436.56,-559.248 426.12,-561.053 435.407,-566.153 436.56,-559.248"/>
</g>
<!-- \\Glsr\\GestockBundle\\Entity\\ZoneStorageRepository -->
<g id="node28" class="node"><title>\\Glsr\\GestockBundle\\Entity\\ZoneStorageRepository</title>
<polygon fill="none" stroke="black" points="894,-1988 736,-1988 736,-1952 894,-1952 894,-1988"/>
<text text-anchor="middle" x="815" y="-1967.1" font-family="Courier,monospace" font-size="11.00">ZoneStorageRepository</text>
</g>
<!-- \\Glsr\\GestockBundle\\Entity\\ZoneStorageRepository&#45;&gt;\\Doctrine\\ORM\\EntityRepository -->
<g id="edge48" class="edge"><title>\\Glsr\\GestockBundle\\Entity\\ZoneStorageRepository&#45;&gt;\\Doctrine\\ORM\\EntityRepository</title>
<path fill="none" stroke="black" d="M735.944,-1957.3C723.503,-1953.66 711.1,-1948.99 700,-1943 540.414,-1856.89 399.36,-1683.91 349.327,-1618.17"/>
<polygon fill="none" stroke="black" points="351.963,-1615.85 343.144,-1609.98 346.376,-1620.07 351.963,-1615.85"/>
</g>
<!-- \\Glsr\\GestockBundle\\Entity\\ZoneStorage -->
<g id="node29" class="node"><title>\\Glsr\\GestockBundle\\Entity\\ZoneStorage</title>
<polygon fill="none" stroke="black" points="860,-1934 770,-1934 770,-1898 860,-1898 860,-1934"/>
<text text-anchor="middle" x="815" y="-1913.1" font-family="Courier,monospace" font-size="11.00">ZoneStorage</text>
</g>
<!-- \\Glsr\\GestockBundle\\Entity\\UnitStorageRepository -->
<g id="node30" class="node"><title>\\Glsr\\GestockBundle\\Entity\\UnitStorageRepository</title>
<polygon fill="none" stroke="black" points="894,-1880 736,-1880 736,-1844 894,-1844 894,-1880"/>
<text text-anchor="middle" x="815" y="-1859.1" font-family="Courier,monospace" font-size="11.00">UnitStorageRepository</text>
</g>
<!-- \\Glsr\\GestockBundle\\Entity\\UnitStorageRepository&#45;&gt;\\Doctrine\\ORM\\EntityRepository -->
<g id="edge50" class="edge"><title>\\Glsr\\GestockBundle\\Entity\\UnitStorageRepository&#45;&gt;\\Doctrine\\ORM\\EntityRepository</title>
<path fill="none" stroke="black" d="M735.871,-1847.3C723.628,-1843.92 711.305,-1839.86 700,-1835 562.093,-1775.74 419.246,-1665.46 359.27,-1616.5"/>
<polygon fill="none" stroke="black" points="361.316,-1613.65 351.366,-1610.01 356.874,-1619.06 361.316,-1613.65"/>
</g>
<!-- \\Glsr\\GestockBundle\\Entity\\UnitStorage -->
<g id="node31" class="node"><title>\\Glsr\\GestockBundle\\Entity\\UnitStorage</title>
<polygon fill="none" stroke="black" points="860,-1826 770,-1826 770,-1790 860,-1790 860,-1826"/>
<text text-anchor="middle" x="815" y="-1805.1" font-family="Courier,monospace" font-size="11.00">UnitStorage</text>
</g>
<!-- \\Glsr\\GestockBundle\\Entity\\TvaRepository -->
<g id="node32" class="node"><title>\\Glsr\\GestockBundle\\Entity\\TvaRepository</title>
<polygon fill="none" stroke="black" points="867,-1772 763,-1772 763,-1736 867,-1736 867,-1772"/>
<text text-anchor="middle" x="815" y="-1751.1" font-family="Courier,monospace" font-size="11.00">TvaRepository</text>
</g>
<!-- \\Glsr\\GestockBundle\\Entity\\TvaRepository&#45;&gt;\\Doctrine\\ORM\\EntityRepository -->
<g id="edge52" class="edge"><title>\\Glsr\\GestockBundle\\Entity\\TvaRepository&#45;&gt;\\Doctrine\\ORM\\EntityRepository</title>
<path fill="none" stroke="black" d="M762.845,-1743.14C743.029,-1738.65 720.338,-1733.07 700,-1727 584.861,-1692.61 453.444,-1641.82 382.354,-1613.35"/>
<polygon fill="none" stroke="black" points="383.316,-1609.96 372.732,-1609.49 380.707,-1616.46 383.316,-1609.96"/>
</g>
<!-- \\Glsr\\GestockBundle\\Entity\\Tva -->
<g id="node33" class="node"><title>\\Glsr\\GestockBundle\\Entity\\Tva</title>
<polygon fill="none" stroke="black" points="842,-1718 788,-1718 788,-1682 842,-1682 842,-1718"/>
<text text-anchor="middle" x="815" y="-1697.1" font-family="Courier,monospace" font-size="11.00">Tva</text>
</g>
<!-- \\Glsr\\GestockBundle\\Entity\\SupplierRepository -->
<g id="node34" class="node"><title>\\Glsr\\GestockBundle\\Entity\\SupplierRepository</title>
<polygon fill="none" stroke="black" points="884,-1664 746,-1664 746,-1628 884,-1628 884,-1664"/>
<text text-anchor="middle" x="815" y="-1643.1" font-family="Courier,monospace" font-size="11.00">SupplierRepository</text>
</g>
<!-- \\Glsr\\GestockBundle\\Entity\\SupplierRepository&#45;&gt;\\Doctrine\\ORM\\EntityRepository -->
<g id="edge54" class="edge"><title>\\Glsr\\GestockBundle\\Entity\\SupplierRepository&#45;&gt;\\Doctrine\\ORM\\EntityRepository</title>
<path fill="none" stroke="black" d="M745.769,-1638.29C670.643,-1629.93 549.075,-1616.39 456.751,-1606.11"/>
<polygon fill="none" stroke="black" points="457.105,-1602.63 446.779,-1605 456.33,-1609.59 457.105,-1602.63"/>
</g>
<!-- \\Glsr\\GestockBundle\\Entity\\Supplier -->
<g id="node35" class="node"><title>\\Glsr\\GestockBundle\\Entity\\Supplier</title>
<polygon fill="none" stroke="black" points="850,-1610 780,-1610 780,-1574 850,-1574 850,-1610"/>
<text text-anchor="middle" x="815" y="-1589.1" font-family="Courier,monospace" font-size="11.00">Supplier</text>
</g>
<!-- \\Glsr\\GestockBundle\\Entity\\SubFamilyLogRepository -->
<g id="node36" class="node"><title>\\Glsr\\GestockBundle\\Entity\\SubFamilyLogRepository</title>
<polygon fill="none" stroke="black" points="897,-1556 733,-1556 733,-1520 897,-1520 897,-1556"/>
<text text-anchor="middle" x="815" y="-1535.1" font-family="Courier,monospace" font-size="11.00">SubFamilyLogRepository</text>
</g>
<!-- \\Glsr\\GestockBundle\\Entity\\SubFamilyLogRepository&#45;&gt;\\Doctrine\\ORM\\EntityRepository -->
<g id="edge56" class="edge"><title>\\Glsr\\GestockBundle\\Entity\\SubFamilyLogRepository&#45;&gt;\\Doctrine\\ORM\\EntityRepository</title>
<path fill="none" stroke="black" d="M732.452,-1547.19C656.814,-1555.61 543.701,-1568.21 456.636,-1577.9"/>
<polygon fill="none" stroke="black" points="456.241,-1574.42 446.689,-1579.01 457.015,-1581.38 456.241,-1574.42"/>
</g>
<!-- \\Glsr\\GestockBundle\\Entity\\SubFamilyLog -->
<g id="node37" class="node"><title>\\Glsr\\GestockBundle\\Entity\\SubFamilyLog</title>
<polygon fill="none" stroke="black" points="864,-1502 766,-1502 766,-1466 864,-1466 864,-1502"/>
<text text-anchor="middle" x="815" y="-1481.1" font-family="Courier,monospace" font-size="11.00">SubFamilyLog</text>
</g>
<!-- \\Glsr\\GestockBundle\\Entity\\SettingsRepository -->
<g id="node38" class="node"><title>\\Glsr\\GestockBundle\\Entity\\SettingsRepository</title>
<polygon fill="none" stroke="black" points="884,-1448 746,-1448 746,-1412 884,-1412 884,-1448"/>
<text text-anchor="middle" x="815" y="-1427.1" font-family="Courier,monospace" font-size="11.00">SettingsRepository</text>
</g>
<!-- \\Glsr\\GestockBundle\\Entity\\SettingsRepository&#45;&gt;\\Doctrine\\ORM\\EntityRepository -->
<g id="edge58" class="edge"><title>\\Glsr\\GestockBundle\\Entity\\SettingsRepository&#45;&gt;\\Doctrine\\ORM\\EntityRepository</title>
<path fill="none" stroke="black" d="M745.93,-1444.8C730.711,-1448.46 714.738,-1452.6 700,-1457 584.861,-1491.39 453.444,-1542.18 382.354,-1570.65"/>
<polygon fill="none" stroke="black" points="380.707,-1567.54 372.732,-1574.51 383.316,-1574.04 380.707,-1567.54"/>
</g>
<!-- \\Glsr\\GestockBundle\\Entity\\Settings -->
<g id="node39" class="node"><title>\\Glsr\\GestockBundle\\Entity\\Settings</title>
<polygon fill="none" stroke="black" points="850,-1394 780,-1394 780,-1358 850,-1358 850,-1394"/>
<text text-anchor="middle" x="815" y="-1373.1" font-family="Courier,monospace" font-size="11.00">Settings</text>
</g>
<!-- \\Glsr\\GestockBundle\\Entity\\FamilyLogRepository -->
<g id="node40" class="node"><title>\\Glsr\\GestockBundle\\Entity\\FamilyLogRepository</title>
<polygon fill="none" stroke="black" points="887,-1340 743,-1340 743,-1304 887,-1304 887,-1340"/>
<text text-anchor="middle" x="815" y="-1319.1" font-family="Courier,monospace" font-size="11.00">FamilyLogRepository</text>
</g>
<!-- \\Glsr\\GestockBundle\\Entity\\FamilyLogRepository&#45;&gt;\\Doctrine\\ORM\\EntityRepository -->
<g id="edge60" class="edge"><title>\\Glsr\\GestockBundle\\Entity\\FamilyLogRepository&#45;&gt;\\Doctrine\\ORM\\EntityRepository</title>
<path fill="none" stroke="black" d="M742.285,-1334.99C727.973,-1338.68 713.284,-1343.29 700,-1349 562.093,-1408.26 419.246,-1518.54 359.27,-1567.5"/>
<polygon fill="none" stroke="black" points="356.874,-1564.94 351.366,-1573.99 361.316,-1570.35 356.874,-1564.94"/>
</g>
<!-- \\Glsr\\GestockBundle\\Entity\\FamilyLog -->
<g id="node41" class="node"><title>\\Glsr\\GestockBundle\\Entity\\FamilyLog</title>
<polygon fill="none" stroke="black" points="853,-1286 777,-1286 777,-1250 853,-1250 853,-1286"/>
<text text-anchor="middle" x="815" y="-1265.1" font-family="Courier,monospace" font-size="11.00">FamilyLog</text>
</g>
<!-- \\Glsr\\GestockBundle\\Entity\\CompanyRepository -->
<g id="node42" class="node"><title>\\Glsr\\GestockBundle\\Entity\\CompanyRepository</title>
<polygon fill="none" stroke="black" points="880,-1232 750,-1232 750,-1196 880,-1196 880,-1232"/>
<text text-anchor="middle" x="815" y="-1211.1" font-family="Courier,monospace" font-size="11.00">CompanyRepository</text>
</g>
<!-- \\Glsr\\GestockBundle\\Entity\\CompanyRepository&#45;&gt;\\Doctrine\\ORM\\EntityRepository -->
<g id="edge62" class="edge"><title>\\Glsr\\GestockBundle\\Entity\\CompanyRepository&#45;&gt;\\Doctrine\\ORM\\EntityRepository</title>
<path fill="none" stroke="black" d="M749.346,-1220.06C732.089,-1224.05 714.317,-1230.53 700,-1241 672.009,-1261.48 682.321,-1281.46 660,-1308 566.842,-1418.78 428.406,-1522.74 364.555,-1568.09"/>
<polygon fill="none" stroke="black" points="362.201,-1565.47 356.052,-1574.1 366.24,-1571.19 362.201,-1565.47"/>
</g>
<!-- \\Glsr\\GestockBundle\\Entity\\Company -->
<g id="node43" class="node"><title>\\Glsr\\GestockBundle\\Entity\\Company</title>
<polygon fill="none" stroke="black" points="847,-1178 783,-1178 783,-1142 847,-1142 847,-1178"/>
<text text-anchor="middle" x="815" y="-1157.1" font-family="Courier,monospace" font-size="11.00">Company</text>
</g>
<!-- \\Glsr\\GestockBundle\\Entity\\ArticleRepository -->
<g id="node44" class="node"><title>\\Glsr\\GestockBundle\\Entity\\ArticleRepository</title>
<polygon fill="none" stroke="black" points="880,-1124 750,-1124 750,-1088 880,-1088 880,-1124"/>
<text text-anchor="middle" x="815" y="-1103.1" font-family="Courier,monospace" font-size="11.00">ArticleRepository</text>
</g>
<!-- \\Glsr\\GestockBundle\\Entity\\ArticleRepository&#45;&gt;\\Doctrine\\ORM\\EntityRepository -->
<g id="edge64" class="edge"><title>\\Glsr\\GestockBundle\\Entity\\ArticleRepository&#45;&gt;\\Doctrine\\ORM\\EntityRepository</title>
<path fill="none" stroke="black" d="M749.361,-1108.76C731.291,-1112.61 713.085,-1119.84 700,-1133 643.751,-1189.58 701.187,-1239.67 660,-1308 586.096,-1430.61 440.916,-1527.25 370.378,-1569.23"/>
<polygon fill="none" stroke="black" points="368.587,-1566.22 361.749,-1574.32 372.141,-1572.26 368.587,-1566.22"/>
</g>
<!-- \\Glsr\\GestockBundle\\Entity\\Article -->
<g id="node45" class="node"><title>\\Glsr\\GestockBundle\\Entity\\Article</title>
<polygon fill="none" stroke="black" points="847,-1070 783,-1070 783,-1034 847,-1034 847,-1070"/>
<text text-anchor="middle" x="815" y="-1049.1" font-family="Courier,monospace" font-size="11.00">Article</text>
</g>
<!-- \\Glsr\\GestockBundle\\DependencyInjection\\GlsrGestockExtension -->
<g id="node47" class="node"><title>\\Glsr\\GestockBundle\\DependencyInjection\\GlsrGestockExtension</title>
<polygon fill="none" stroke="black" points="891,-988 739,-988 739,-952 891,-952 891,-988"/>
<text text-anchor="middle" x="815" y="-967.1" font-family="Courier,monospace" font-size="11.00">GlsrGestockExtension</text>
</g>
<!-- \\Glsr\\GestockBundle\\DependencyInjection\\GlsrGestockExtension&#45;&gt;\\Symfony\\Component\\HttpKernel\\DependencyInjection\\Extension -->
<g id="edge66" class="edge"><title>\\Glsr\\GestockBundle\\DependencyInjection\\GlsrGestockExtension&#45;&gt;\\Symfony\\Component\\HttpKernel\\DependencyInjection\\Extension</title>
<path fill="none" stroke="black" d="M755.814,-988.025C736.357,-996.093 715.711,-1007.2 700,-1022 672.214,-1048.17 686.694,-1070.72 660,-1098 582.393,-1177.32 463.002,-1231.79 391.104,-1259.57"/>
<polygon fill="none" stroke="black" points="389.812,-1256.32 381.715,-1263.15 392.306,-1262.86 389.812,-1256.32"/>
</g>
<!-- \\Glsr\\GestockBundle\\DependencyInjection\\Configuration -->
<g id="node48" class="node"><title>\\Glsr\\GestockBundle\\DependencyInjection\\Configuration</title>
<polygon fill="none" stroke="black" points="867,-934 763,-934 763,-898 867,-898 867,-934"/>
<text text-anchor="middle" x="815" y="-913.1" font-family="Courier,monospace" font-size="11.00">Configuration</text>
</g>
<!-- \\Glsr\\GestockBundle\\DependencyInjection\\Configuration&#45;&gt;\\Symfony\\Component\\Config\\Definition\\ConfigurationInterface -->
<g id="edge68" class="edge"><title>\\Glsr\\GestockBundle\\DependencyInjection\\Configuration&#45;&gt;\\Symfony\\Component\\Config\\Definition\\ConfigurationInterface</title>
<path fill="none" stroke="black" stroke-dasharray="1,5" d="M762.785,-924.903C742.754,-929.181 719.932,-935.126 700,-943 680.927,-950.534 678.767,-957.733 660,-966 577.275,-1002.44 477.889,-1032.3 409.949,-1050.73"/>
<polygon fill="none" stroke="black" points="408.905,-1047.39 400.159,-1053.37 410.725,-1054.15 408.905,-1047.39"/>
</g>
<!-- \\Glsr\\GestockBundle\\Controller\\SupplierController -->
<g id="node50" class="node"><title>\\Glsr\\GestockBundle\\Controller\\SupplierController</title>
<polygon fill="none" stroke="black" points="884,-238 746,-238 746,-202 884,-202 884,-238"/>
<text text-anchor="middle" x="815" y="-217.1" font-family="Courier,monospace" font-size="11.00">SupplierController</text>
</g>
<!-- \\Symfony\\Bundle\\FrameworkBundle\\Controller\\Controller -->
<g id="node91" class="node"><title>\\Symfony\\Bundle\\FrameworkBundle\\Controller\\Controller</title>
<ellipse fill="none" stroke="black" cx="330" cy="-139" rx="290.121" ry="18.3848"/>
<text text-anchor="middle" x="330" y="-135.4" font-family="Times Roman,serif" font-size="14.00" fill="gray">\Symfony\Bundle\FrameworkBundle\Controller\Controller</text>
</g>
<!-- \\Glsr\\GestockBundle\\Controller\\SupplierController&#45;&gt;\\Symfony\\Bundle\\FrameworkBundle\\Controller\\Controller -->
<g id="edge70" class="edge"><title>\\Glsr\\GestockBundle\\Controller\\SupplierController&#45;&gt;\\Symfony\\Bundle\\FrameworkBundle\\Controller\\Controller</title>
<path fill="none" stroke="black" d="M745.769,-208.438C666.35,-195.174 535.03,-173.242 441.224,-157.576"/>
<polygon fill="none" stroke="black" points="441.564,-154.084 431.124,-155.889 440.411,-160.988 441.564,-154.084"/>
</g>
<!-- \\Glsr\\GestockBundle\\Controller\\SettingsController -->
<g id="node51" class="node"><title>\\Glsr\\GestockBundle\\Controller\\SettingsController</title>
<polygon fill="none" stroke="black" points="884,-184 746,-184 746,-148 884,-148 884,-184"/>
<text text-anchor="middle" x="815" y="-163.1" font-family="Courier,monospace" font-size="11.00">SettingsController</text>
</g>
<!-- \\Glsr\\GestockBundle\\Controller\\SettingsController&#45;&gt;\\Symfony\\Bundle\\FrameworkBundle\\Controller\\Controller -->
<g id="edge72" class="edge"><title>\\Glsr\\GestockBundle\\Controller\\SettingsController&#45;&gt;\\Symfony\\Bundle\\FrameworkBundle\\Controller\\Controller</title>
<path fill="none" stroke="black" d="M745.769,-162.146C695.753,-159.361 625.152,-155.431 556.3,-151.598"/>
<polygon fill="none" stroke="black" points="556.336,-148.095 546.157,-151.033 555.947,-155.084 556.336,-148.095"/>
</g>
<!-- \\Glsr\\GestockBundle\\Controller\\GestockController -->
<g id="node52" class="node"><title>\\Glsr\\GestockBundle\\Controller\\GestockController</title>
<polygon fill="none" stroke="black" points="880,-130 750,-130 750,-94 880,-94 880,-130"/>
<text text-anchor="middle" x="815" y="-109.1" font-family="Courier,monospace" font-size="11.00">GestockController</text>
</g>
<!-- \\Glsr\\GestockBundle\\Controller\\GestockController&#45;&gt;\\Symfony\\Bundle\\FrameworkBundle\\Controller\\Controller -->
<g id="edge74" class="edge"><title>\\Glsr\\GestockBundle\\Controller\\GestockController&#45;&gt;\\Symfony\\Bundle\\FrameworkBundle\\Controller\\Controller</title>
<path fill="none" stroke="black" d="M749.339,-115.655C699.207,-118.446 626.979,-122.467 556.552,-126.388"/>
<polygon fill="none" stroke="black" points="555.967,-122.915 546.177,-126.965 556.356,-129.904 555.967,-122.915"/>
</g>
<!-- \\Glsr\\GestockBundle\\Controller\\ArticleController -->
<g id="node53" class="node"><title>\\Glsr\\GestockBundle\\Controller\\ArticleController</title>
<polygon fill="none" stroke="black" points="880,-76 750,-76 750,-40 880,-40 880,-76"/>
<text text-anchor="middle" x="815" y="-55.1" font-family="Courier,monospace" font-size="11.00">ArticleController</text>
</g>
<!-- \\Glsr\\GestockBundle\\Controller\\ArticleController&#45;&gt;\\Symfony\\Bundle\\FrameworkBundle\\Controller\\Controller -->
<g id="edge76" class="edge"><title>\\Glsr\\GestockBundle\\Controller\\ArticleController&#45;&gt;\\Symfony\\Bundle\\FrameworkBundle\\Controller\\Controller</title>
<path fill="none" stroke="black" d="M749.339,-68.9661C670.358,-82.1566 536.535,-104.506 441.316,-120.409"/>
<polygon fill="none" stroke="black" points="440.643,-116.973 431.356,-122.073 441.796,-123.877 440.643,-116.973"/>
</g>
<!-- \\Glsr\\GestockBundle\\GlsrGestockBundle -->
<g id="node54" class="node"><title>\\Glsr\\GestockBundle\\GlsrGestockBundle</title>
<polygon fill="none" stroke="black" points="880,-880 750,-880 750,-844 880,-844 880,-880"/>
<text text-anchor="middle" x="815" y="-859.1" font-family="Courier,monospace" font-size="11.00">GlsrGestockBundle</text>
</g>
<!-- \\Glsr\\GestockBundle\\GlsrGestockBundle&#45;&gt;\\Symfony\\Component\\HttpKernel\\Bundle\\Bundle -->
<g id="edge26" class="edge"><title>\\Glsr\\GestockBundle\\GlsrGestockBundle&#45;&gt;\\Symfony\\Component\\HttpKernel\\Bundle\\Bundle</title>
<path fill="none" stroke="black" d="M749.339,-872.425C670.858,-884.884 538.227,-905.941 443.128,-921.039"/>
<polygon fill="none" stroke="black" points="442.505,-917.595 433.177,-922.619 443.602,-924.508 442.505,-917.595"/>
</g>
</g>
</svg>
