<?xml version="1.0" encoding="UTF-8" standalone="no"?>
<!DOCTYPE svg PUBLIC "-//W3C//DTD SVG 1.1//EN"
 "http://www.w3.org/Graphics/SVG/1.1/DTD/svg11.dtd">
<!-- Generated by graphviz version 2.26.3 (20100126.1600)
 -->
<!-- Title: G Pages: 1 -->
<svg width="946pt" height="2644pt"
 viewBox="0.00 0.00 946.00 2644.00" xmlns="http://www.w3.org/2000/svg" xmlns:xlink="http://www.w3.org/1999/xlink">
<g id="graph1" class="graph" transform="scale(1 1) rotate(0) translate(4 2640)">
<title>G</title>
<polygon fill="white" stroke="white" points="-4,5 -4,-2640 943,-2640 943,5 -4,5"/>
<g id="graph2" class="cluster"><title>cluster_Global</title>
<polyline fill="none" stroke="gray" points="712,-8 918,-8 "/>
<path fill="none" stroke="gray" d="M918,-8C924,-8 930,-14 930,-20"/>
<polyline fill="none" stroke="gray" points="930,-20 930,-2616 "/>
<path fill="none" stroke="gray" d="M930,-2616C930,-2622 924,-2628 918,-2628"/>
<polyline fill="none" stroke="gray" points="918,-2628 712,-2628 "/>
<path fill="none" stroke="gray" d="M712,-2628C706,-2628 700,-2622 700,-2616"/>
<polyline fill="none" stroke="gray" points="700,-2616 700,-20 "/>
<path fill="none" stroke="gray" d="M700,-20C700,-14 706,-8 712,-8"/>
<text text-anchor="middle" x="815" y="-2614.1" font-family="Times Roman,serif" font-size="11.00" fill="gray">Global</text>
</g>
<g id="graph3" class="cluster"><title>cluster_\Glsr</title>
<polyline fill="none" stroke="gray" points="720,-16 910,-16 "/>
<path fill="none" stroke="gray" d="M910,-16C916,-16 922,-22 922,-28"/>
<polyline fill="none" stroke="gray" points="922,-28 922,-2586 "/>
<path fill="none" stroke="gray" d="M922,-2586C922,-2592 916,-2598 910,-2598"/>
<polyline fill="none" stroke="gray" points="910,-2598 720,-2598 "/>
<path fill="none" stroke="gray" d="M720,-2598C714,-2598 708,-2592 708,-2586"/>
<polyline fill="none" stroke="gray" points="708,-2586 708,-28 "/>
<path fill="none" stroke="gray" d="M708,-28C708,-22 714,-16 720,-16"/>
<text text-anchor="middle" x="815" y="-2584.1" font-family="Times Roman,serif" font-size="11.00" fill="gray">Glsr</text>
</g>
<g id="graph4" class="cluster"><title>cluster_\Glsr\GestockBundle</title>
<polyline fill="none" stroke="gray" points="728,-462 902,-462 "/>
<path fill="none" stroke="gray" d="M902,-462C908,-462 914,-468 914,-474"/>
<polyline fill="none" stroke="gray" points="914,-474 914,-2556 "/>
<path fill="none" stroke="gray" d="M914,-2556C914,-2562 908,-2568 902,-2568"/>
<polyline fill="none" stroke="gray" points="902,-2568 728,-2568 "/>
<path fill="none" stroke="gray" d="M728,-2568C722,-2568 716,-2562 716,-2556"/>
<polyline fill="none" stroke="gray" points="716,-2556 716,-474 "/>
<path fill="none" stroke="gray" d="M716,-474C716,-468 722,-462 728,-462"/>
<text text-anchor="middle" x="815" y="-2554.1" font-family="Times Roman,serif" font-size="11.00" fill="gray">GestockBundle</text>
</g>
<g id="graph5" class="cluster"><title>cluster_\Glsr\GestockBundle\Entity</title>
<polyline fill="none" stroke="gray" points="736,-1546 894,-1546 "/>
<path fill="none" stroke="gray" d="M894,-1546C900,-1546 906,-1552 906,-1558"/>
<polyline fill="none" stroke="gray" points="906,-1558 906,-2526 "/>
<path fill="none" stroke="gray" d="M906,-2526C906,-2532 900,-2538 894,-2538"/>
<polyline fill="none" stroke="gray" points="894,-2538 736,-2538 "/>
<path fill="none" stroke="gray" d="M736,-2538C730,-2538 724,-2532 724,-2526"/>
<polyline fill="none" stroke="gray" points="724,-2526 724,-1558 "/>
<path fill="none" stroke="gray" d="M724,-1558C724,-1552 730,-1546 736,-1546"/>
<text text-anchor="middle" x="815" y="-2524.1" font-family="Times Roman,serif" font-size="11.00" fill="gray">Entity</text>
</g>
<g id="graph6" class="cluster"><title>cluster_\Glsr\GestockBundle\Form</title>
<polyline fill="none" stroke="gray" points="746,-978 884,-978 "/>
<path fill="none" stroke="gray" d="M884,-978C890,-978 896,-984 896,-990"/>
<polyline fill="none" stroke="gray" points="896,-990 896,-1526 "/>
<path fill="none" stroke="gray" d="M896,-1526C896,-1532 890,-1538 884,-1538"/>
<polyline fill="none" stroke="gray" points="884,-1538 746,-1538 "/>
<path fill="none" stroke="gray" d="M746,-1538C740,-1538 734,-1532 734,-1526"/>
<polyline fill="none" stroke="gray" points="734,-1526 734,-990 "/>
<path fill="none" stroke="gray" d="M734,-990C734,-984 740,-978 746,-978"/>
<text text-anchor="middle" x="815" y="-1524.1" font-family="Times Roman,serif" font-size="11.00" fill="gray">Form</text>
</g>
<g id="graph7" class="cluster"><title>cluster_\Glsr\GestockBundle\DependencyInjection</title>
<polyline fill="none" stroke="gray" points="743,-842 887,-842 "/>
<path fill="none" stroke="gray" d="M887,-842C893,-842 899,-848 899,-854"/>
<polyline fill="none" stroke="gray" points="899,-854 899,-958 "/>
<path fill="none" stroke="gray" d="M899,-958C899,-964 893,-970 887,-970"/>
<polyline fill="none" stroke="gray" points="887,-970 743,-970 "/>
<path fill="none" stroke="gray" d="M743,-970C737,-970 731,-964 731,-958"/>
<polyline fill="none" stroke="gray" points="731,-958 731,-854 "/>
<path fill="none" stroke="gray" d="M731,-854C731,-848 737,-842 743,-842"/>
<text text-anchor="middle" x="815" y="-956.1" font-family="Times Roman,serif" font-size="11.00" fill="gray">DependencyInjection</text>
</g>
<g id="graph8" class="cluster"><title>cluster_\Glsr\GestockBundle\Controller</title>
<polyline fill="none" stroke="gray" points="750,-598 880,-598 "/>
<path fill="none" stroke="gray" d="M880,-598C886,-598 892,-604 892,-610"/>
<polyline fill="none" stroke="gray" points="892,-610 892,-822 "/>
<path fill="none" stroke="gray" d="M892,-822C892,-828 886,-834 880,-834"/>
<polyline fill="none" stroke="gray" points="880,-834 750,-834 "/>
<path fill="none" stroke="gray" d="M750,-834C744,-834 738,-828 738,-822"/>
<polyline fill="none" stroke="gray" points="738,-822 738,-610 "/>
<path fill="none" stroke="gray" d="M738,-610C738,-604 744,-598 750,-598"/>
<text text-anchor="middle" x="815" y="-820.1" font-family="Times Roman,serif" font-size="11.00" fill="gray">Controller</text>
</g>
<g id="graph9" class="cluster"><title>cluster_\Glsr\GestockBundle\Listener</title>
<polyline fill="none" stroke="gray" points="746,-516 884,-516 "/>
<path fill="none" stroke="gray" d="M884,-516C890,-516 896,-522 896,-528"/>
<polyline fill="none" stroke="gray" points="896,-528 896,-578 "/>
<path fill="none" stroke="gray" d="M896,-578C896,-584 890,-590 884,-590"/>
<polyline fill="none" stroke="gray" points="884,-590 746,-590 "/>
<path fill="none" stroke="gray" d="M746,-590C740,-590 734,-584 734,-578"/>
<polyline fill="none" stroke="gray" points="734,-578 734,-528 "/>
<path fill="none" stroke="gray" d="M734,-528C734,-522 740,-516 746,-516"/>
<text text-anchor="middle" x="815" y="-576.1" font-family="Times Roman,serif" font-size="11.00" fill="gray">Listener</text>
</g>
<g id="graph10" class="cluster"><title>cluster_\Glsr\UserBundle</title>
<polyline fill="none" stroke="gray" points="742,-24 888,-24 "/>
<path fill="none" stroke="gray" d="M888,-24C894,-24 900,-30 900,-36"/>
<polyline fill="none" stroke="gray" points="900,-36 900,-442 "/>
<path fill="none" stroke="gray" d="M900,-442C900,-448 894,-454 888,-454"/>
<polyline fill="none" stroke="gray" points="888,-454 742,-454 "/>
<path fill="none" stroke="gray" d="M742,-454C736,-454 730,-448 730,-442"/>
<polyline fill="none" stroke="gray" points="730,-442 730,-36 "/>
<path fill="none" stroke="gray" d="M730,-36C730,-30 736,-24 742,-24"/>
<text text-anchor="middle" x="815" y="-440.1" font-family="Times Roman,serif" font-size="11.00" fill="gray">UserBundle</text>
</g>
<g id="graph11" class="cluster"><title>cluster_\Glsr\UserBundle\Entity</title>
<polyline fill="none" stroke="gray" points="763,-160 867,-160 "/>
<path fill="none" stroke="gray" d="M867,-160C873,-160 879,-166 879,-172"/>
<polyline fill="none" stroke="gray" points="879,-172 879,-276 "/>
<path fill="none" stroke="gray" d="M879,-276C879,-282 873,-288 867,-288"/>
<polyline fill="none" stroke="gray" points="867,-288 763,-288 "/>
<path fill="none" stroke="gray" d="M763,-288C757,-288 751,-282 751,-276"/>
<polyline fill="none" stroke="gray" points="751,-276 751,-172 "/>
<path fill="none" stroke="gray" d="M751,-172C751,-166 757,-160 763,-160"/>
<text text-anchor="middle" x="815" y="-274.1" font-family="Times Roman,serif" font-size="11.00" fill="gray">Entity</text>
</g>
<g id="graph12" class="cluster"><title>cluster_\Glsr\UserBundle\DependencyInjection</title>
<polyline fill="none" stroke="gray" points="753,-296 877,-296 "/>
<path fill="none" stroke="gray" d="M877,-296C883,-296 889,-302 889,-308"/>
<polyline fill="none" stroke="gray" points="889,-308 889,-412 "/>
<path fill="none" stroke="gray" d="M889,-412C889,-418 883,-424 877,-424"/>
<polyline fill="none" stroke="gray" points="877,-424 753,-424 "/>
<path fill="none" stroke="gray" d="M753,-424C747,-424 741,-418 741,-412"/>
<polyline fill="none" stroke="gray" points="741,-412 741,-308 "/>
<path fill="none" stroke="gray" d="M741,-308C741,-302 747,-296 753,-296"/>
<text text-anchor="middle" x="815" y="-410.1" font-family="Times Roman,serif" font-size="11.00" fill="gray">DependencyInjection</text>
</g>
<g id="graph13" class="cluster"><title>cluster_\Glsr\UserBundle\Controller</title>
<polyline fill="none" stroke="gray" points="750,-32 880,-32 "/>
<path fill="none" stroke="gray" d="M880,-32C886,-32 892,-38 892,-44"/>
<polyline fill="none" stroke="gray" points="892,-44 892,-94 "/>
<path fill="none" stroke="gray" d="M892,-94C892,-100 886,-106 880,-106"/>
<polyline fill="none" stroke="gray" points="880,-106 750,-106 "/>
<path fill="none" stroke="gray" d="M750,-106C744,-106 738,-100 738,-94"/>
<polyline fill="none" stroke="gray" points="738,-94 738,-44 "/>
<path fill="none" stroke="gray" d="M738,-44C738,-38 744,-32 750,-32"/>
<text text-anchor="middle" x="815" y="-92.1" font-family="Times Roman,serif" font-size="11.00" fill="gray">Controller</text>
</g>
<!-- \\Glsr\\GestockBundle\\Entity\\Tva -->
<g id="node5" class="node"><title>\\Glsr\\GestockBundle\\Entity\\Tva</title>
<polygon fill="none" stroke="black" points="842,-2508 788,-2508 788,-2472 842,-2472 842,-2508"/>
<text text-anchor="middle" x="815" y="-2487.1" font-family="Courier,monospace" font-size="11.00">Tva</text>
</g>
<!-- \\Glsr\\GestockBundle\\Entity\\CompanyRepository -->
<g id="node6" class="node"><title>\\Glsr\\GestockBundle\\Entity\\CompanyRepository</title>
<polygon fill="none" stroke="black" points="880,-2454 750,-2454 750,-2418 880,-2418 880,-2454"/>
<text text-anchor="middle" x="815" y="-2433.1" font-family="Courier,monospace" font-size="11.00">CompanyRepository</text>
</g>
<!-- \\Doctrine\\ORM\\EntityRepository -->
<g id="node58" class="node"><title>\\Doctrine\\ORM\\EntityRepository</title>
<ellipse fill="none" stroke="black" cx="330" cy="-2193" rx="167.084" ry="18.3848"/>
<text text-anchor="middle" x="330" y="-2189.4" font-family="Times Roman,serif" font-size="14.00" fill="gray">\Doctrine\ORM\EntityRepository</text>
</g>
<!-- \\Glsr\\GestockBundle\\Entity\\CompanyRepository&#45;&gt;\\Doctrine\\ORM\\EntityRepository -->
<g id="edge16" class="edge"><title>\\Glsr\\GestockBundle\\Entity\\CompanyRepository&#45;&gt;\\Doctrine\\ORM\\EntityRepository</title>
<path fill="none" stroke="black" d="M749.487,-2424.17C733.033,-2420.24 715.62,-2415.23 700,-2409 567.37,-2356.1 425.593,-2261.08 362.969,-2216.85"/>
<polygon fill="none" stroke="black" points="364.848,-2213.89 354.667,-2210.96 360.795,-2219.6 364.848,-2213.89"/>
</g>
<!-- \\Glsr\\GestockBundle\\Entity\\SupplierRepository -->
<g id="node7" class="node"><title>\\Glsr\\GestockBundle\\Entity\\SupplierRepository</title>
<polygon fill="none" stroke="black" points="884,-2400 746,-2400 746,-2364 884,-2364 884,-2400"/>
<text text-anchor="middle" x="815" y="-2379.1" font-family="Courier,monospace" font-size="11.00">SupplierRepository</text>
</g>
<!-- \\Glsr\\GestockBundle\\Entity\\SupplierRepository&#45;&gt;\\Doctrine\\ORM\\EntityRepository -->
<g id="edge18" class="edge"><title>\\Glsr\\GestockBundle\\Entity\\SupplierRepository&#45;&gt;\\Doctrine\\ORM\\EntityRepository</title>
<path fill="none" stroke="black" d="M745.712,-2367.89C730.505,-2364.19 714.592,-2359.86 700,-2355 578.482,-2314.51 442.007,-2249.33 373.783,-2215.3"/>
<polygon fill="none" stroke="black" points="375.127,-2212.06 364.618,-2210.71 371.993,-2218.32 375.127,-2212.06"/>
</g>
<!-- \\Glsr\\GestockBundle\\Entity\\ZoneStorageRepository -->
<g id="node8" class="node"><title>\\Glsr\\GestockBundle\\Entity\\ZoneStorageRepository</title>
<polygon fill="none" stroke="black" points="894,-2346 736,-2346 736,-2310 894,-2310 894,-2346"/>
<text text-anchor="middle" x="815" y="-2325.1" font-family="Courier,monospace" font-size="11.00">ZoneStorageRepository</text>
</g>
<!-- \\Glsr\\GestockBundle\\Entity\\ZoneStorageRepository&#45;&gt;\\Doctrine\\ORM\\EntityRepository -->
<g id="edge20" class="edge"><title>\\Glsr\\GestockBundle\\Entity\\ZoneStorageRepository&#45;&gt;\\Doctrine\\ORM\\EntityRepository</title>
<path fill="none" stroke="black" d="M735.988,-2310.04C723.907,-2307.12 711.602,-2304.05 700,-2301 592.236,-2272.64 468.112,-2235.48 394.51,-2212.97"/>
<polygon fill="none" stroke="black" points="395.494,-2209.61 384.908,-2210.02 393.444,-2216.3 395.494,-2209.61"/>
</g>
<!-- \\Glsr\\GestockBundle\\Entity\\TvaRepository -->
<g id="node9" class="node"><title>\\Glsr\\GestockBundle\\Entity\\TvaRepository</title>
<polygon fill="none" stroke="black" points="867,-2292 763,-2292 763,-2256 867,-2256 867,-2292"/>
<text text-anchor="middle" x="815" y="-2271.1" font-family="Courier,monospace" font-size="11.00">TvaRepository</text>
</g>
<!-- \\Glsr\\GestockBundle\\Entity\\TvaRepository&#45;&gt;\\Doctrine\\ORM\\EntityRepository -->
<g id="edge22" class="edge"><title>\\Glsr\\GestockBundle\\Entity\\TvaRepository&#45;&gt;\\Doctrine\\ORM\\EntityRepository</title>
<path fill="none" stroke="black" d="M762.636,-2265.25C683.462,-2252.03 531.822,-2226.71 430.771,-2209.83"/>
<polygon fill="none" stroke="black" points="431.289,-2206.37 420.849,-2208.17 430.136,-2213.27 431.289,-2206.37"/>
</g>
<!-- \\Glsr\\GestockBundle\\Entity\\SettingsRepository -->
<g id="node10" class="node"><title>\\Glsr\\GestockBundle\\Entity\\SettingsRepository</title>
<polygon fill="none" stroke="black" points="884,-2238 746,-2238 746,-2202 884,-2202 884,-2238"/>
<text text-anchor="middle" x="815" y="-2217.1" font-family="Courier,monospace" font-size="11.00">SettingsRepository</text>
</g>
<!-- \\Glsr\\GestockBundle\\Entity\\SettingsRepository&#45;&gt;\\Doctrine\\ORM\\EntityRepository -->
<g id="edge24" class="edge"><title>\\Glsr\\GestockBundle\\Entity\\SettingsRepository&#45;&gt;\\Doctrine\\ORM\\EntityRepository</title>
<path fill="none" stroke="black" d="M745.769,-2216.15C679.116,-2212.44 575.907,-2206.69 488.997,-2201.85"/>
<polygon fill="none" stroke="black" points="488.933,-2198.34 478.753,-2201.28 488.543,-2205.33 488.933,-2198.34"/>
</g>
<!-- \\Glsr\\GestockBundle\\Entity\\ArticleRepository -->
<g id="node11" class="node"><title>\\Glsr\\GestockBundle\\Entity\\ArticleRepository</title>
<polygon fill="none" stroke="black" points="880,-2184 750,-2184 750,-2148 880,-2148 880,-2184"/>
<text text-anchor="middle" x="815" y="-2163.1" font-family="Courier,monospace" font-size="11.00">ArticleRepository</text>
</g>
<!-- \\Glsr\\GestockBundle\\Entity\\ArticleRepository&#45;&gt;\\Doctrine\\ORM\\EntityRepository -->
<g id="edge26" class="edge"><title>\\Glsr\\GestockBundle\\Entity\\ArticleRepository&#45;&gt;\\Doctrine\\ORM\\EntityRepository</title>
<path fill="none" stroke="black" d="M749.339,-2169.66C682.87,-2173.36 577.558,-2179.22 489.103,-2184.14"/>
<polygon fill="none" stroke="black" points="488.745,-2180.66 478.955,-2184.71 489.134,-2187.65 488.745,-2180.66"/>
</g>
<!-- \\Glsr\\GestockBundle\\Entity\\Settings -->
<g id="node12" class="node"><title>\\Glsr\\GestockBundle\\Entity\\Settings</title>
<polygon fill="none" stroke="black" points="850,-2130 780,-2130 780,-2094 850,-2094 850,-2130"/>
<text text-anchor="middle" x="815" y="-2109.1" font-family="Courier,monospace" font-size="11.00">Settings</text>
</g>
<!-- \\Glsr\\GestockBundle\\Entity\\UnitStorageRepository -->
<g id="node13" class="node"><title>\\Glsr\\GestockBundle\\Entity\\UnitStorageRepository</title>
<polygon fill="none" stroke="black" points="894,-2076 736,-2076 736,-2040 894,-2040 894,-2076"/>
<text text-anchor="middle" x="815" y="-2055.1" font-family="Courier,monospace" font-size="11.00">UnitStorageRepository</text>
</g>
<!-- \\Glsr\\GestockBundle\\Entity\\UnitStorageRepository&#45;&gt;\\Doctrine\\ORM\\EntityRepository -->
<g id="edge28" class="edge"><title>\\Glsr\\GestockBundle\\Entity\\UnitStorageRepository&#45;&gt;\\Doctrine\\ORM\\EntityRepository</title>
<path fill="none" stroke="black" d="M735.988,-2075.96C723.907,-2078.88 711.602,-2081.95 700,-2085 592.236,-2113.36 468.112,-2150.52 394.51,-2173.03"/>
<polygon fill="none" stroke="black" points="393.444,-2169.7 384.908,-2175.98 395.494,-2176.39 393.444,-2169.7"/>
</g>
<!-- \\Glsr\\GestockBundle\\Entity\\ZoneStorage -->
<g id="node14" class="node"><title>\\Glsr\\GestockBundle\\Entity\\ZoneStorage</title>
<polygon fill="none" stroke="black" points="860,-2022 770,-2022 770,-1986 860,-1986 860,-2022"/>
<text text-anchor="middle" x="815" y="-2001.1" font-family="Courier,monospace" font-size="11.00">ZoneStorage</text>
</g>
<!-- \\Glsr\\GestockBundle\\Entity\\UnitStorage -->
<g id="node15" class="node"><title>\\Glsr\\GestockBundle\\Entity\\UnitStorage</title>
<polygon fill="none" stroke="black" points="860,-1968 770,-1968 770,-1932 860,-1932 860,-1968"/>
<text text-anchor="middle" x="815" y="-1947.1" font-family="Courier,monospace" font-size="11.00">UnitStorage</text>
</g>
<!-- \\Glsr\\GestockBundle\\Entity\\Article -->
<g id="node16" class="node"><title>\\Glsr\\GestockBundle\\Entity\\Article</title>
<polygon fill="none" stroke="black" points="847,-1914 783,-1914 783,-1878 847,-1878 847,-1914"/>
<text text-anchor="middle" x="815" y="-1893.1" font-family="Courier,monospace" font-size="11.00">Article</text>
</g>
<!-- \\Glsr\\GestockBundle\\Entity\\Supplier -->
<g id="node17" class="node"><title>\\Glsr\\GestockBundle\\Entity\\Supplier</title>
<polygon fill="none" stroke="black" points="850,-1860 780,-1860 780,-1824 850,-1824 850,-1860"/>
<text text-anchor="middle" x="815" y="-1839.1" font-family="Courier,monospace" font-size="11.00">Supplier</text>
</g>
<!-- \\Glsr\\GestockBundle\\Entity\\FamilyLogRepository -->
<g id="node18" class="node"><title>\\Glsr\\GestockBundle\\Entity\\FamilyLogRepository</title>
<polygon fill="none" stroke="black" points="887,-1806 743,-1806 743,-1770 887,-1770 887,-1806"/>
<text text-anchor="middle" x="815" y="-1785.1" font-family="Courier,monospace" font-size="11.00">FamilyLogRepository</text>
</g>
<!-- \\Glsr\\GestockBundle\\Entity\\FamilyLogRepository&#45;&gt;\\Doctrine\\ORM\\EntityRepository -->
<g id="edge30" class="edge"><title>\\Glsr\\GestockBundle\\Entity\\FamilyLogRepository&#45;&gt;\\Doctrine\\ORM\\EntityRepository</title>
<path fill="none" stroke="black" d="M742.41,-1798.48C727.791,-1802.37 712.952,-1807.7 700,-1815 535.02,-1908.01 395.722,-2096.49 347.803,-2166.25"/>
<polygon fill="none" stroke="black" points="344.643,-2164.67 341.908,-2174.91 350.429,-2168.61 344.643,-2164.67"/>
</g>
<!-- \\Glsr\\GestockBundle\\Entity\\SubFamilyLog -->
<g id="node19" class="node"><title>\\Glsr\\GestockBundle\\Entity\\SubFamilyLog</title>
<polygon fill="none" stroke="black" points="864,-1752 766,-1752 766,-1716 864,-1716 864,-1752"/>
<text text-anchor="middle" x="815" y="-1731.1" font-family="Courier,monospace" font-size="11.00">SubFamilyLog</text>
</g>
<!-- \\Glsr\\GestockBundle\\Entity\\SubFamilyLogRepository -->
<g id="node20" class="node"><title>\\Glsr\\GestockBundle\\Entity\\SubFamilyLogRepository</title>
<polygon fill="none" stroke="black" points="897,-1698 733,-1698 733,-1662 897,-1662 897,-1698"/>
<text text-anchor="middle" x="815" y="-1677.1" font-family="Courier,monospace" font-size="11.00">SubFamilyLogRepository</text>
</g>
<!-- \\Glsr\\GestockBundle\\Entity\\SubFamilyLogRepository&#45;&gt;\\Doctrine\\ORM\\EntityRepository -->
<g id="edge32" class="edge"><title>\\Glsr\\GestockBundle\\Entity\\SubFamilyLogRepository&#45;&gt;\\Doctrine\\ORM\\EntityRepository</title>
<path fill="none" stroke="black" d="M732.344,-1692.05C720.949,-1695.77 709.808,-1700.64 700,-1707 511.481,-1829.26 381.558,-2082.07 342.38,-2165.57"/>
<polygon fill="none" stroke="black" points="339.088,-2164.35 338.054,-2174.89 345.438,-2167.3 339.088,-2164.35"/>
</g>
<!-- \\Glsr\\GestockBundle\\Entity\\Company -->
<g id="node21" class="node"><title>\\Glsr\\GestockBundle\\Entity\\Company</title>
<polygon fill="none" stroke="black" points="847,-1644 783,-1644 783,-1608 847,-1608 847,-1644"/>
<text text-anchor="middle" x="815" y="-1623.1" font-family="Courier,monospace" font-size="11.00">Company</text>
</g>
<!-- \\Glsr\\GestockBundle\\Entity\\FamilyLog -->
<g id="node22" class="node"><title>\\Glsr\\GestockBundle\\Entity\\FamilyLog</title>
<polygon fill="none" stroke="black" points="853,-1590 777,-1590 777,-1554 853,-1554 853,-1590"/>
<text text-anchor="middle" x="815" y="-1569.1" font-family="Courier,monospace" font-size="11.00">FamilyLog</text>
</g>
<!-- \\Glsr\\GestockBundle\\Form\\SupplierType -->
<g id="node24" class="node"><title>\\Glsr\\GestockBundle\\Form\\SupplierType</title>
<polygon fill="none" stroke="black" points="864,-1292 766,-1292 766,-1256 864,-1256 864,-1292"/>
<text text-anchor="middle" x="815" y="-1271.1" font-family="Courier,monospace" font-size="11.00">SupplierType</text>
</g>
<!-- \\Symfony\\Component\\Form\\AbstractType -->
<g id="node68" class="node"><title>\\Symfony\\Component\\Form\\AbstractType</title>
<ellipse fill="none" stroke="black" cx="330" cy="-1247" rx="210.217" ry="18.3848"/>
<text text-anchor="middle" x="330" y="-1243.4" font-family="Times Roman,serif" font-size="14.00" fill="gray">\Symfony\Component\Form\AbstractType</text>
</g>
<!-- \\Glsr\\GestockBundle\\Form\\SupplierType&#45;&gt;\\Symfony\\Component\\Form\\AbstractType -->
<g id="edge34" class="edge"><title>\\Glsr\\GestockBundle\\Form\\SupplierType&#45;&gt;\\Symfony\\Component\\Form\\AbstractType</title>
<path fill="none" stroke="black" d="M765.827,-1271.26C707.448,-1268.01 606.652,-1262.4 516.691,-1257.39"/>
<polygon fill="none" stroke="black" points="516.801,-1253.89 506.622,-1256.83 516.412,-1260.88 516.801,-1253.89"/>
</g>
<!-- \\Glsr\\GestockBundle\\Form\\FamilyLogType -->
<g id="node25" class="node"><title>\\Glsr\\GestockBundle\\Form\\FamilyLogType</title>
<polygon fill="none" stroke="black" points="867,-1238 763,-1238 763,-1202 867,-1202 867,-1238"/>
<text text-anchor="middle" x="815" y="-1217.1" font-family="Courier,monospace" font-size="11.00">FamilyLogType</text>
</g>
<!-- \\Glsr\\GestockBundle\\Form\\FamilyLogType&#45;&gt;\\Symfony\\Component\\Form\\AbstractType -->
<g id="edge36" class="edge"><title>\\Glsr\\GestockBundle\\Form\\FamilyLogType&#45;&gt;\\Symfony\\Component\\Form\\AbstractType</title>
<path fill="none" stroke="black" d="M762.636,-1222.92C703.849,-1226.19 605.114,-1231.68 516.798,-1236.6"/>
<polygon fill="none" stroke="black" points="516.426,-1233.12 506.636,-1237.17 516.815,-1240.11 516.426,-1233.12"/>
</g>
<!-- \\Glsr\\GestockBundle\\Form\\CompanyType -->
<g id="node26" class="node"><title>\\Glsr\\GestockBundle\\Form\\CompanyType</title>
<polygon fill="none" stroke="black" points="860,-1184 770,-1184 770,-1148 860,-1148 860,-1184"/>
<text text-anchor="middle" x="815" y="-1163.1" font-family="Courier,monospace" font-size="11.00">CompanyType</text>
</g>
<!-- \\Glsr\\GestockBundle\\Form\\CompanyType&#45;&gt;\\Symfony\\Component\\Form\\AbstractType -->
<g id="edge38" class="edge"><title>\\Glsr\\GestockBundle\\Form\\CompanyType&#45;&gt;\\Symfony\\Component\\Form\\AbstractType</title>
<path fill="none" stroke="black" d="M769.372,-1173.62C693.645,-1186.27 540.058,-1211.92 436.076,-1229.28"/>
<polygon fill="none" stroke="black" points="435.459,-1225.84 426.172,-1230.94 436.612,-1232.74 435.459,-1225.84"/>
</g>
<!-- \\Glsr\\GestockBundle\\Form\\SubFamilyLogType -->
<g id="node27" class="node"><title>\\Glsr\\GestockBundle\\Form\\SubFamilyLogType</title>
<polygon fill="none" stroke="black" points="877,-1130 753,-1130 753,-1094 877,-1094 877,-1130"/>
<text text-anchor="middle" x="815" y="-1109.1" font-family="Courier,monospace" font-size="11.00">SubFamilyLogType</text>
</g>
<!-- \\Glsr\\GestockBundle\\Form\\SubFamilyLogType&#45;&gt;\\Symfony\\Component\\Form\\AbstractType -->
<g id="edge40" class="edge"><title>\\Glsr\\GestockBundle\\Form\\SubFamilyLogType&#45;&gt;\\Symfony\\Component\\Form\\AbstractType</title>
<path fill="none" stroke="black" d="M752.48,-1126.04C735.415,-1130.04 716.957,-1134.54 700,-1139 592.856,-1167.19 469.539,-1204.09 395.784,-1226.64"/>
<polygon fill="none" stroke="black" points="394.692,-1223.32 386.155,-1229.59 396.742,-1230.01 394.692,-1223.32"/>
</g>
<!-- \\Glsr\\GestockBundle\\Form\\SettingsType -->
<g id="node28" class="node"><title>\\Glsr\\GestockBundle\\Form\\SettingsType</title>
<polygon fill="none" stroke="black" points="864,-1076 766,-1076 766,-1040 864,-1040 864,-1076"/>
<text text-anchor="middle" x="815" y="-1055.1" font-family="Courier,monospace" font-size="11.00">SettingsType</text>
</g>
<!-- \\Glsr\\GestockBundle\\Form\\SettingsType&#45;&gt;\\Symfony\\Component\\Form\\AbstractType -->
<g id="edge42" class="edge"><title>\\Glsr\\GestockBundle\\Form\\SettingsType&#45;&gt;\\Symfony\\Component\\Form\\AbstractType</title>
<path fill="none" stroke="black" d="M765.769,-1067.49C745.204,-1071.99 721.207,-1077.93 700,-1085 578.641,-1125.44 442.364,-1190.5 374.051,-1224.57"/>
<polygon fill="none" stroke="black" points="372.247,-1221.56 364.872,-1229.16 375.38,-1227.81 372.247,-1221.56"/>
</g>
<!-- \\Glsr\\GestockBundle\\Form\\TvaType -->
<g id="node29" class="node"><title>\\Glsr\\GestockBundle\\Form\\TvaType</title>
<polygon fill="none" stroke="black" points="847,-1022 783,-1022 783,-986 847,-986 847,-1022"/>
<text text-anchor="middle" x="815" y="-1001.1" font-family="Courier,monospace" font-size="11.00">TvaType</text>
</g>
<!-- \\Glsr\\GestockBundle\\Form\\TvaType&#45;&gt;\\Symfony\\Component\\Form\\AbstractType -->
<g id="edge44" class="edge"><title>\\Glsr\\GestockBundle\\Form\\TvaType&#45;&gt;\\Symfony\\Component\\Form\\AbstractType</title>
<path fill="none" stroke="black" d="M782.988,-1008.88C759.474,-1013.08 727.05,-1020.21 700,-1031 567.37,-1083.9 425.593,-1178.92 362.969,-1223.15"/>
<polygon fill="none" stroke="black" points="360.795,-1220.4 354.667,-1229.04 364.848,-1226.11 360.795,-1220.4"/>
</g>
<!-- \\Glsr\\GestockBundle\\Form\\UnitStorageType -->
<g id="node30" class="node"><title>\\Glsr\\GestockBundle\\Form\\UnitStorageType</title>
<polygon fill="none" stroke="black" points="874,-1508 756,-1508 756,-1472 874,-1472 874,-1508"/>
<text text-anchor="middle" x="815" y="-1487.1" font-family="Courier,monospace" font-size="11.00">UnitStorageType</text>
</g>
<!-- \\Glsr\\GestockBundle\\Form\\UnitStorageType&#45;&gt;\\Symfony\\Component\\Form\\AbstractType -->
<g id="edge46" class="edge"><title>\\Glsr\\GestockBundle\\Form\\UnitStorageType&#45;&gt;\\Symfony\\Component\\Form\\AbstractType</title>
<path fill="none" stroke="black" d="M755.754,-1479.63C737.521,-1475.5 717.62,-1470.03 700,-1463 567.37,-1410.1 425.593,-1315.08 362.969,-1270.85"/>
<polygon fill="none" stroke="black" points="364.848,-1267.89 354.667,-1264.96 360.795,-1273.6 364.848,-1267.89"/>
</g>
<!-- \\Glsr\\GestockBundle\\Form\\ArticleReassignType -->
<g id="node31" class="node"><title>\\Glsr\\GestockBundle\\Form\\ArticleReassignType</title>
<polygon fill="none" stroke="black" points="887,-1454 743,-1454 743,-1418 887,-1418 887,-1454"/>
<text text-anchor="middle" x="815" y="-1433.1" font-family="Courier,monospace" font-size="11.00">ArticleReassignType</text>
</g>
<!-- \\Glsr\\GestockBundle\\Form\\ArticleReassignType&#45;&gt;\\Symfony\\Component\\Form\\AbstractType -->
<g id="edge48" class="edge"><title>\\Glsr\\GestockBundle\\Form\\ArticleReassignType&#45;&gt;\\Symfony\\Component\\Form\\AbstractType</title>
<path fill="none" stroke="black" d="M742.356,-1421.06C728.178,-1417.56 713.522,-1413.51 700,-1409 578.641,-1368.56 442.364,-1303.5 374.051,-1269.43"/>
<polygon fill="none" stroke="black" points="375.38,-1266.19 364.872,-1264.84 372.247,-1272.44 375.38,-1266.19"/>
</g>
<!-- \\Glsr\\GestockBundle\\Form\\ArticleType -->
<g id="node32" class="node"><title>\\Glsr\\GestockBundle\\Form\\ArticleType</title>
<polygon fill="none" stroke="black" points="860,-1400 770,-1400 770,-1364 860,-1364 860,-1400"/>
<text text-anchor="middle" x="815" y="-1379.1" font-family="Courier,monospace" font-size="11.00">ArticleType</text>
</g>
<!-- \\Glsr\\GestockBundle\\Form\\ArticleType&#45;&gt;\\Symfony\\Component\\Form\\AbstractType -->
<g id="edge50" class="edge"><title>\\Glsr\\GestockBundle\\Form\\ArticleType&#45;&gt;\\Symfony\\Component\\Form\\AbstractType</title>
<path fill="none" stroke="black" d="M769.251,-1371.85C748.109,-1367.01 722.709,-1360.98 700,-1355 592.856,-1326.81 469.539,-1289.91 395.784,-1267.36"/>
<polygon fill="none" stroke="black" points="396.742,-1263.99 386.155,-1264.41 394.692,-1270.68 396.742,-1263.99"/>
</g>
<!-- \\Glsr\\GestockBundle\\Form\\ZoneStorageType -->
<g id="node33" class="node"><title>\\Glsr\\GestockBundle\\Form\\ZoneStorageType</title>
<polygon fill="none" stroke="black" points="874,-1346 756,-1346 756,-1310 874,-1310 874,-1346"/>
<text text-anchor="middle" x="815" y="-1325.1" font-family="Courier,monospace" font-size="11.00">ZoneStorageType</text>
</g>
<!-- \\Glsr\\GestockBundle\\Form\\ZoneStorageType&#45;&gt;\\Symfony\\Component\\Form\\AbstractType -->
<g id="edge52" class="edge"><title>\\Glsr\\GestockBundle\\Form\\ZoneStorageType&#45;&gt;\\Symfony\\Component\\Form\\AbstractType</title>
<path fill="none" stroke="black" d="M755.529,-1318.07C676.173,-1304.81 534.3,-1281.12 436.318,-1264.76"/>
<polygon fill="none" stroke="black" points="436.822,-1261.29 426.382,-1263.1 435.669,-1268.2 436.822,-1261.29"/>
</g>
<!-- \\Glsr\\GestockBundle\\DependencyInjection\\GlsrGestockExtension -->
<g id="node35" class="node"><title>\\Glsr\\GestockBundle\\DependencyInjection\\GlsrGestockExtension</title>
<polygon fill="none" stroke="black" points="891,-940 739,-940 739,-904 891,-904 891,-940"/>
<text text-anchor="middle" x="815" y="-919.1" font-family="Courier,monospace" font-size="11.00">GlsrGestockExtension</text>
</g>
<!-- \\Symfony\\Component\\HttpKernel\\DependencyInjection\\Extension -->
<g id="node79" class="node"><title>\\Symfony\\Component\\HttpKernel\\DependencyInjection\\Extension</title>
<ellipse fill="none" stroke="black" cx="330" cy="-854" rx="329.012" ry="18.3848"/>
<text text-anchor="middle" x="330" y="-850.4" font-family="Times Roman,serif" font-size="14.00" fill="gray">\Symfony\Component\HttpKernel\DependencyInjection\Extension</text>
</g>
<!-- \\Glsr\\GestockBundle\\DependencyInjection\\GlsrGestockExtension&#45;&gt;\\Symfony\\Component\\HttpKernel\\DependencyInjection\\Extension -->
<g id="edge54" class="edge"><title>\\Glsr\\GestockBundle\\DependencyInjection\\GlsrGestockExtension&#45;&gt;\\Symfony\\Component\\HttpKernel\\DependencyInjection\\Extension</title>
<path fill="none" stroke="black" d="M738.952,-911.338C664.306,-900.872 548.996,-884.705 459.823,-872.202"/>
<polygon fill="none" stroke="black" points="460.298,-868.734 449.909,-870.812 459.326,-875.667 460.298,-868.734"/>
</g>
<!-- \\Glsr\\GestockBundle\\DependencyInjection\\Configuration -->
<g id="node36" class="node"><title>\\Glsr\\GestockBundle\\DependencyInjection\\Configuration</title>
<polygon fill="none" stroke="black" points="867,-886 763,-886 763,-850 867,-850 867,-886"/>
<text text-anchor="middle" x="815" y="-865.1" font-family="Courier,monospace" font-size="11.00">Configuration</text>
</g>
<!-- \\Symfony\\Component\\Config\\Definition\\ConfigurationInterface -->
<g id="node81" class="node"><title>\\Symfony\\Component\\Config\\Definition\\ConfigurationInterface</title>
<ellipse fill="none" stroke="black" cx="330" cy="-766" rx="314.162" ry="18.3848"/>
<text text-anchor="middle" x="330" y="-762.4" font-family="Times Roman,serif" font-size="14.00" fill="gray">\Symfony\Component\Config\Definition\ConfigurationInterface</text>
</g>
<!-- \\Glsr\\GestockBundle\\DependencyInjection\\Configuration&#45;&gt;\\Symfony\\Component\\Config\\Definition\\ConfigurationInterface -->
<g id="edge56" class="edge"><title>\\Glsr\\GestockBundle\\DependencyInjection\\Configuration&#45;&gt;\\Symfony\\Component\\Config\\Definition\\ConfigurationInterface</title>
<path fill="none" stroke="black" stroke-dasharray="1,5" d="M762.866,-854.555C743.154,-849.431 720.528,-843.5 700,-838 682.19,-833.228 677.971,-831.124 660,-827 588.983,-810.703 508.599,-795.771 444.947,-784.76"/>
<polygon fill="none" stroke="black" points="445.328,-781.274 434.879,-783.027 444.14,-788.173 445.328,-781.274"/>
</g>
<!-- \\Glsr\\GestockBundle\\Controller\\SupplierController -->
<g id="node38" class="node"><title>\\Glsr\\GestockBundle\\Controller\\SupplierController</title>
<polygon fill="none" stroke="black" points="884,-804 746,-804 746,-768 884,-768 884,-804"/>
<text text-anchor="middle" x="815" y="-783.1" font-family="Courier,monospace" font-size="11.00">SupplierController</text>
</g>
<!-- \\Symfony\\Bundle\\FrameworkBundle\\Controller\\Controller -->
<g id="node83" class="node"><title>\\Symfony\\Bundle\\FrameworkBundle\\Controller\\Controller</title>
<ellipse fill="none" stroke="black" cx="330" cy="-695" rx="290.121" ry="18.3848"/>
<text text-anchor="middle" x="330" y="-691.4" font-family="Times Roman,serif" font-size="14.00" fill="gray">\Symfony\Bundle\FrameworkBundle\Controller\Controller</text>
</g>
<!-- \\Glsr\\GestockBundle\\Controller\\SupplierController&#45;&gt;\\Symfony\\Bundle\\FrameworkBundle\\Controller\\Controller -->
<g id="edge58" class="edge"><title>\\Glsr\\GestockBundle\\Controller\\SupplierController&#45;&gt;\\Symfony\\Bundle\\FrameworkBundle\\Controller\\Controller</title>
<path fill="none" stroke="black" d="M745.823,-772.516C730.535,-768.776 714.56,-764.268 700,-759 681.309,-752.238 679,-744.838 660,-739 617.496,-725.94 570.736,-716.756 526.116,-710.298"/>
<polygon fill="none" stroke="black" points="526.422,-706.807 516.032,-708.879 525.447,-713.738 526.422,-706.807"/>
</g>
<!-- \\Glsr\\GestockBundle\\Controller\\GestockController -->
<g id="node39" class="node"><title>\\Glsr\\GestockBundle\\Controller\\GestockController</title>
<polygon fill="none" stroke="black" points="880,-750 750,-750 750,-714 880,-714 880,-750"/>
<text text-anchor="middle" x="815" y="-729.1" font-family="Courier,monospace" font-size="11.00">GestockController</text>
</g>
<!-- \\Glsr\\GestockBundle\\Controller\\GestockController&#45;&gt;\\Symfony\\Bundle\\FrameworkBundle\\Controller\\Controller -->
<g id="edge60" class="edge"><title>\\Glsr\\GestockBundle\\Controller\\GestockController&#45;&gt;\\Symfony\\Bundle\\FrameworkBundle\\Controller\\Controller</title>
<path fill="none" stroke="black" d="M749.339,-726.991C691.329,-722.565 603.734,-715.883 523.58,-709.768"/>
<polygon fill="none" stroke="black" points="523.576,-706.258 513.339,-708.987 523.043,-713.237 523.576,-706.258"/>
</g>
<!-- \\Glsr\\GestockBundle\\Controller\\ArticleController -->
<g id="node40" class="node"><title>\\Glsr\\GestockBundle\\Controller\\ArticleController</title>
<polygon fill="none" stroke="black" points="880,-696 750,-696 750,-660 880,-660 880,-696"/>
<text text-anchor="middle" x="815" y="-675.1" font-family="Courier,monospace" font-size="11.00">ArticleController</text>
</g>
<!-- \\Glsr\\GestockBundle\\Controller\\ArticleController&#45;&gt;\\Symfony\\Bundle\\FrameworkBundle\\Controller\\Controller -->
<g id="edge62" class="edge"><title>\\Glsr\\GestockBundle\\Controller\\ArticleController&#45;&gt;\\Symfony\\Bundle\\FrameworkBundle\\Controller\\Controller</title>
<path fill="none" stroke="black" d="M749.339,-680.302C707.874,-681.755 651.293,-683.738 593.118,-685.777"/>
<polygon fill="none" stroke="black" points="592.879,-682.283 583.008,-686.132 593.124,-689.279 592.879,-682.283"/>
</g>
<!-- \\Glsr\\GestockBundle\\Controller\\SettingsController -->
<g id="node41" class="node"><title>\\Glsr\\GestockBundle\\Controller\\SettingsController</title>
<polygon fill="none" stroke="black" points="884,-642 746,-642 746,-606 884,-606 884,-642"/>
<text text-anchor="middle" x="815" y="-621.1" font-family="Courier,monospace" font-size="11.00">SettingsController</text>
</g>
<!-- \\Glsr\\GestockBundle\\Controller\\SettingsController&#45;&gt;\\Symfony\\Bundle\\FrameworkBundle\\Controller\\Controller -->
<g id="edge64" class="edge"><title>\\Glsr\\GestockBundle\\Controller\\SettingsController&#45;&gt;\\Symfony\\Bundle\\FrameworkBundle\\Controller\\Controller</title>
<path fill="none" stroke="black" d="M745.769,-634.135C669.759,-645.262 546.208,-663.349 453.504,-676.92"/>
<polygon fill="none" stroke="black" points="452.885,-673.473 443.497,-678.385 453.899,-680.399 452.885,-673.473"/>
</g>
<!-- \\Glsr\\GestockBundle\\Listener\\GlsrRequestListener -->
<g id="node43" class="node"><title>\\Glsr\\GestockBundle\\Listener\\GlsrRequestListener</title>
<polygon fill="none" stroke="black" points="887,-560 743,-560 743,-524 887,-524 887,-560"/>
<text text-anchor="middle" x="815" y="-539.1" font-family="Courier,monospace" font-size="11.00">GlsrRequestListener</text>
</g>
<!-- \\Glsr\\GestockBundle\\GlsrGestockBundle -->
<g id="node44" class="node"><title>\\Glsr\\GestockBundle\\GlsrGestockBundle</title>
<polygon fill="none" stroke="black" points="880,-506 750,-506 750,-470 880,-470 880,-506"/>
<text text-anchor="middle" x="815" y="-485.1" font-family="Courier,monospace" font-size="11.00">GlsrGestockBundle</text>
</g>
<!-- \\Symfony\\Component\\HttpKernel\\Bundle\\Bundle -->
<g id="node56" class="node"><title>\\Symfony\\Component\\HttpKernel\\Bundle\\Bundle</title>
<ellipse fill="none" stroke="black" cx="330" cy="-364" rx="246.78" ry="18.3848"/>
<text text-anchor="middle" x="330" y="-360.4" font-family="Times Roman,serif" font-size="14.00" fill="gray">\Symfony\Component\HttpKernel\Bundle\Bundle</text>
</g>
<!-- \\Glsr\\GestockBundle\\GlsrGestockBundle&#45;&gt;\\Symfony\\Component\\HttpKernel\\Bundle\\Bundle -->
<g id="edge14" class="edge"><title>\\Glsr\\GestockBundle\\GlsrGestockBundle&#45;&gt;\\Symfony\\Component\\HttpKernel\\Bundle\\Bundle</title>
<path fill="none" stroke="black" d="M749.339,-471.212C660.486,-448.495 502.223,-408.032 407.601,-383.84"/>
<polygon fill="none" stroke="black" points="408.355,-380.421 397.8,-381.334 406.621,-387.202 408.355,-380.421"/>
</g>
<!-- \\Glsr\\UserBundle\\Entity\\User -->
<g id="node47" class="node"><title>\\Glsr\\UserBundle\\Entity\\User</title>
<polygon fill="none" stroke="black" points="842,-204 788,-204 788,-168 842,-168 842,-204"/>
<text text-anchor="middle" x="815" y="-183.1" font-family="Courier,monospace" font-size="11.00">User</text>
</g>
<!-- \\FOS\\UserBundle\\Entity\\User -->
<g id="node89" class="node"><title>\\FOS\\UserBundle\\Entity\\User</title>
<ellipse fill="none" stroke="black" cx="330" cy="-186" rx="152.234" ry="18.3848"/>
<text text-anchor="middle" x="330" y="-182.4" font-family="Times Roman,serif" font-size="14.00" fill="gray">\FOS\UserBundle\Entity\User</text>
</g>
<!-- \\Glsr\\UserBundle\\Entity\\User&#45;&gt;\\FOS\\UserBundle\\Entity\\User -->
<g id="edge68" class="edge"><title>\\Glsr\\UserBundle\\Entity\\User&#45;&gt;\\FOS\\UserBundle\\Entity\\User</title>
<path fill="none" stroke="black" d="M787.885,-186C732.075,-186 600.544,-186 492.706,-186"/>
<polygon fill="none" stroke="black" points="492.679,-182.5 482.679,-186 492.679,-189.5 492.679,-182.5"/>
</g>
<!-- \\Glsr\\UserBundle\\Entity\\UserRepository -->
<g id="node48" class="node"><title>\\Glsr\\UserBundle\\Entity\\UserRepository</title>
<polygon fill="none" stroke="black" points="870,-258 760,-258 760,-222 870,-222 870,-258"/>
<text text-anchor="middle" x="815" y="-237.1" font-family="Courier,monospace" font-size="11.00">UserRepository</text>
</g>
<!-- \\Glsr\\UserBundle\\Entity\\UserRepository&#45;&gt;\\Doctrine\\ORM\\EntityRepository -->
<g id="edge70" class="edge"><title>\\Glsr\\UserBundle\\Entity\\UserRepository&#45;&gt;\\Doctrine\\ORM\\EntityRepository</title>
<path fill="none" stroke="black" d="M759.202,-251.743C737.028,-259.382 713.601,-271.837 700,-292 638.934,-382.532 680.916,-1166.82 660,-1274 588.524,-1640.26 395.972,-2056.14 343.413,-2165.5"/>
<polygon fill="none" stroke="black" points="340.102,-2164.31 338.907,-2174.83 346.406,-2167.35 340.102,-2164.31"/>
</g>
<!-- \\Glsr\\UserBundle\\DependencyInjection\\GlsrUserExtension -->
<g id="node50" class="node"><title>\\Glsr\\UserBundle\\DependencyInjection\\GlsrUserExtension</title>
<polygon fill="none" stroke="black" points="880,-394 750,-394 750,-358 880,-358 880,-394"/>
<text text-anchor="middle" x="815" y="-373.1" font-family="Courier,monospace" font-size="11.00">GlsrUserExtension</text>
</g>
<!-- \\Glsr\\UserBundle\\DependencyInjection\\GlsrUserExtension&#45;&gt;\\Symfony\\Component\\HttpKernel\\DependencyInjection\\Extension -->
<g id="edge72" class="edge"><title>\\Glsr\\UserBundle\\DependencyInjection\\GlsrUserExtension&#45;&gt;\\Symfony\\Component\\HttpKernel\\DependencyInjection\\Extension</title>
<path fill="none" stroke="black" d="M774.376,-394.1C748.63,-407.807 717.068,-429.208 700,-458 623.538,-586.986 762.585,-683.637 660,-793 641.096,-813.153 617.871,-827.932 592.574,-838.638"/>
<polygon fill="none" stroke="black" points="591.151,-835.437 583.165,-842.4 593.749,-841.937 591.151,-835.437"/>
</g>
<!-- \\Glsr\\UserBundle\\DependencyInjection\\Configuration -->
<g id="node51" class="node"><title>\\Glsr\\UserBundle\\DependencyInjection\\Configuration</title>
<polygon fill="none" stroke="black" points="867,-340 763,-340 763,-304 867,-304 867,-340"/>
<text text-anchor="middle" x="815" y="-319.1" font-family="Courier,monospace" font-size="11.00">Configuration</text>
</g>
<!-- \\Glsr\\UserBundle\\DependencyInjection\\Configuration&#45;&gt;\\Symfony\\Component\\Config\\Definition\\ConfigurationInterface -->
<g id="edge74" class="edge"><title>\\Glsr\\UserBundle\\DependencyInjection\\Configuration&#45;&gt;\\Symfony\\Component\\Config\\Definition\\ConfigurationInterface</title>
<path fill="none" stroke="black" stroke-dasharray="1,5" d="M762.98,-321.463C740.406,-324.08 715.613,-331.324 700,-349 589.623,-473.961 776.369,-602.599 660,-722 606.651,-776.739 520.356,-786.665 449.391,-783.47"/>
<polygon fill="none" stroke="black" points="449.213,-779.955 439.038,-782.907 448.833,-786.945 449.213,-779.955"/>
</g>
<!-- \\Glsr\\UserBundle\\Controller\\SecurityController -->
<g id="node53" class="node"><title>\\Glsr\\UserBundle\\Controller\\SecurityController</title>
<polygon fill="none" stroke="black" points="884,-76 746,-76 746,-40 884,-40 884,-76"/>
<text text-anchor="middle" x="815" y="-55.1" font-family="Courier,monospace" font-size="11.00">SecurityController</text>
</g>
<!-- \\FOS\\UserBundle\\Controller\\SecurityController -->
<g id="node94" class="node"><title>\\FOS\\UserBundle\\Controller\\SecurityController</title>
<ellipse fill="none" stroke="black" cx="330" cy="-58" rx="239.002" ry="18.3848"/>
<text text-anchor="middle" x="330" y="-54.4" font-family="Times Roman,serif" font-size="14.00" fill="gray">\FOS\UserBundle\Controller\SecurityController</text>
</g>
<!-- \\Glsr\\UserBundle\\Controller\\SecurityController&#45;&gt;\\FOS\\UserBundle\\Controller\\SecurityController -->
<g id="edge76" class="edge"><title>\\Glsr\\UserBundle\\Controller\\SecurityController&#45;&gt;\\FOS\\UserBundle\\Controller\\SecurityController</title>
<path fill="none" stroke="black" d="M745.769,-58C701.329,-58 640.637,-58 579.361,-58"/>
<polygon fill="none" stroke="black" points="579.125,-54.5001 569.125,-58 579.125,-61.5001 579.125,-54.5001"/>
</g>
<!-- \\Glsr\\UserBundle\\GlsrUserBundle -->
<g id="node54" class="node"><title>\\Glsr\\UserBundle\\GlsrUserBundle</title>
<polygon fill="none" stroke="black" points="870,-150 760,-150 760,-114 870,-114 870,-150"/>
<text text-anchor="middle" x="815" y="-129.1" font-family="Courier,monospace" font-size="11.00">GlsrUserBundle</text>
</g>
<!-- \\Glsr\\UserBundle\\GlsrUserBundle&#45;&gt;\\Symfony\\Component\\HttpKernel\\Bundle\\Bundle -->
<g id="edge66" class="edge"><title>\\Glsr\\UserBundle\\GlsrUserBundle&#45;&gt;\\Symfony\\Component\\HttpKernel\\Bundle\\Bundle</title>
<path fill="none" stroke="black" d="M759.377,-135.138C739.374,-138.365 717.46,-144.503 700,-156 674.152,-173.021 683.79,-193.204 660,-213 582.523,-277.469 473.01,-320.331 401.756,-343.414"/>
<polygon fill="none" stroke="black" points="400.425,-340.165 391.963,-346.54 402.554,-346.834 400.425,-340.165"/>
</g>
</g>
</svg>
