<?xml version="1.0" encoding="UTF-8" standalone="no"?>
<!DOCTYPE svg PUBLIC "-//W3C//DTD SVG 1.1//EN"
 "http://www.w3.org/Graphics/SVG/1.1/DTD/svg11.dtd">
<!-- Generated by graphviz version 2.26.3 (20100126.1600)
 -->
<!-- Title: G Pages: 1 -->
<svg width="946pt" height="2644pt"
 viewBox="0.00 0.00 946.00 2644.00" xmlns="http://www.w3.org/2000/svg" xmlns:xlink="http://www.w3.org/1999/xlink">
<g id="graph1" class="graph" transform="scale(1 1) rotate(0) translate(4 2640)">
<title>G</title>
<polygon fill="white" stroke="white" points="-4,5 -4,-2640 943,-2640 943,5 -4,5"/>
<g id="graph2" class="cluster"><title>cluster_Global</title>
<polyline fill="none" stroke="gray" points="712,-8 918,-8 "/>
<path fill="none" stroke="gray" d="M918,-8C924,-8 930,-14 930,-20"/>
<polyline fill="none" stroke="gray" points="930,-20 930,-2616 "/>
<path fill="none" stroke="gray" d="M930,-2616C930,-2622 924,-2628 918,-2628"/>
<polyline fill="none" stroke="gray" points="918,-2628 712,-2628 "/>
<path fill="none" stroke="gray" d="M712,-2628C706,-2628 700,-2622 700,-2616"/>
<polyline fill="none" stroke="gray" points="700,-2616 700,-20 "/>
<path fill="none" stroke="gray" d="M700,-20C700,-14 706,-8 712,-8"/>
<text text-anchor="middle" x="815" y="-2614.1" font-family="Times Roman,serif" font-size="11.00" fill="gray">Global</text>
</g>
<g id="graph3" class="cluster"><title>cluster_\Glsr</title>
<polyline fill="none" stroke="gray" points="720,-16 910,-16 "/>
<path fill="none" stroke="gray" d="M910,-16C916,-16 922,-22 922,-28"/>
<polyline fill="none" stroke="gray" points="922,-28 922,-2586 "/>
<path fill="none" stroke="gray" d="M922,-2586C922,-2592 916,-2598 910,-2598"/>
<polyline fill="none" stroke="gray" points="910,-2598 720,-2598 "/>
<path fill="none" stroke="gray" d="M720,-2598C714,-2598 708,-2592 708,-2586"/>
<polyline fill="none" stroke="gray" points="708,-2586 708,-28 "/>
<path fill="none" stroke="gray" d="M708,-28C708,-22 714,-16 720,-16"/>
<text text-anchor="middle" x="815" y="-2584.1" font-family="Times Roman,serif" font-size="11.00" fill="gray">Glsr</text>
</g>
<g id="graph4" class="cluster"><title>cluster_\Glsr\GestockBundle</title>
<polyline fill="none" stroke="gray" points="728,-462 902,-462 "/>
<path fill="none" stroke="gray" d="M902,-462C908,-462 914,-468 914,-474"/>
<polyline fill="none" stroke="gray" points="914,-474 914,-2556 "/>
<path fill="none" stroke="gray" d="M914,-2556C914,-2562 908,-2568 902,-2568"/>
<polyline fill="none" stroke="gray" points="902,-2568 728,-2568 "/>
<path fill="none" stroke="gray" d="M728,-2568C722,-2568 716,-2562 716,-2556"/>
<polyline fill="none" stroke="gray" points="716,-2556 716,-474 "/>
<path fill="none" stroke="gray" d="M716,-474C716,-468 722,-462 728,-462"/>
<text text-anchor="middle" x="815" y="-2554.1" font-family="Times Roman,serif" font-size="11.00" fill="gray">GestockBundle</text>
</g>
<g id="graph5" class="cluster"><title>cluster_\Glsr\GestockBundle\Controller</title>
<polyline fill="none" stroke="gray" points="750,-2302 880,-2302 "/>
<path fill="none" stroke="gray" d="M880,-2302C886,-2302 892,-2308 892,-2314"/>
<polyline fill="none" stroke="gray" points="892,-2314 892,-2526 "/>
<path fill="none" stroke="gray" d="M892,-2526C892,-2532 886,-2538 880,-2538"/>
<polyline fill="none" stroke="gray" points="880,-2538 750,-2538 "/>
<path fill="none" stroke="gray" d="M750,-2538C744,-2538 738,-2532 738,-2526"/>
<polyline fill="none" stroke="gray" points="738,-2526 738,-2314 "/>
<path fill="none" stroke="gray" d="M738,-2314C738,-2308 744,-2302 750,-2302"/>
<text text-anchor="middle" x="815" y="-2524.1" font-family="Times Roman,serif" font-size="11.00" fill="gray">Controller</text>
</g>
<g id="graph6" class="cluster"><title>cluster_\Glsr\GestockBundle\Listener</title>
<polyline fill="none" stroke="gray" points="746,-2220 884,-2220 "/>
<path fill="none" stroke="gray" d="M884,-2220C890,-2220 896,-2226 896,-2232"/>
<polyline fill="none" stroke="gray" points="896,-2232 896,-2282 "/>
<path fill="none" stroke="gray" d="M896,-2282C896,-2288 890,-2294 884,-2294"/>
<polyline fill="none" stroke="gray" points="884,-2294 746,-2294 "/>
<path fill="none" stroke="gray" d="M746,-2294C740,-2294 734,-2288 734,-2282"/>
<polyline fill="none" stroke="gray" points="734,-2282 734,-2232 "/>
<path fill="none" stroke="gray" d="M734,-2232C734,-2226 740,-2220 746,-2220"/>
<text text-anchor="middle" x="815" y="-2280.1" font-family="Times Roman,serif" font-size="11.00" fill="gray">Listener</text>
</g>
<g id="graph7" class="cluster"><title>cluster_\Glsr\GestockBundle\Form</title>
<polyline fill="none" stroke="gray" points="746,-1652 884,-1652 "/>
<path fill="none" stroke="gray" d="M884,-1652C890,-1652 896,-1658 896,-1664"/>
<polyline fill="none" stroke="gray" points="896,-1664 896,-2200 "/>
<path fill="none" stroke="gray" d="M896,-2200C896,-2206 890,-2212 884,-2212"/>
<polyline fill="none" stroke="gray" points="884,-2212 746,-2212 "/>
<path fill="none" stroke="gray" d="M746,-2212C740,-2212 734,-2206 734,-2200"/>
<polyline fill="none" stroke="gray" points="734,-2200 734,-1664 "/>
<path fill="none" stroke="gray" d="M734,-1664C734,-1658 740,-1652 746,-1652"/>
<text text-anchor="middle" x="815" y="-2198.1" font-family="Times Roman,serif" font-size="11.00" fill="gray">Form</text>
</g>
<g id="graph8" class="cluster"><title>cluster_\Glsr\GestockBundle\Entity</title>
<polyline fill="none" stroke="gray" points="736,-652 894,-652 "/>
<path fill="none" stroke="gray" d="M894,-652C900,-652 906,-658 906,-664"/>
<polyline fill="none" stroke="gray" points="906,-664 906,-1632 "/>
<path fill="none" stroke="gray" d="M906,-1632C906,-1638 900,-1644 894,-1644"/>
<polyline fill="none" stroke="gray" points="894,-1644 736,-1644 "/>
<path fill="none" stroke="gray" d="M736,-1644C730,-1644 724,-1638 724,-1632"/>
<polyline fill="none" stroke="gray" points="724,-1632 724,-664 "/>
<path fill="none" stroke="gray" d="M724,-664C724,-658 730,-652 736,-652"/>
<text text-anchor="middle" x="815" y="-1630.1" font-family="Times Roman,serif" font-size="11.00" fill="gray">Entity</text>
</g>
<g id="graph9" class="cluster"><title>cluster_\Glsr\GestockBundle\DependencyInjection</title>
<polyline fill="none" stroke="gray" points="743,-516 887,-516 "/>
<path fill="none" stroke="gray" d="M887,-516C893,-516 899,-522 899,-528"/>
<polyline fill="none" stroke="gray" points="899,-528 899,-632 "/>
<path fill="none" stroke="gray" d="M899,-632C899,-638 893,-644 887,-644"/>
<polyline fill="none" stroke="gray" points="887,-644 743,-644 "/>
<path fill="none" stroke="gray" d="M743,-644C737,-644 731,-638 731,-632"/>
<polyline fill="none" stroke="gray" points="731,-632 731,-528 "/>
<path fill="none" stroke="gray" d="M731,-528C731,-522 737,-516 743,-516"/>
<text text-anchor="middle" x="815" y="-630.1" font-family="Times Roman,serif" font-size="11.00" fill="gray">DependencyInjection</text>
</g>
<g id="graph10" class="cluster"><title>cluster_\Glsr\UserBundle</title>
<polyline fill="none" stroke="gray" points="742,-24 888,-24 "/>
<path fill="none" stroke="gray" d="M888,-24C894,-24 900,-30 900,-36"/>
<polyline fill="none" stroke="gray" points="900,-36 900,-442 "/>
<path fill="none" stroke="gray" d="M900,-442C900,-448 894,-454 888,-454"/>
<polyline fill="none" stroke="gray" points="888,-454 742,-454 "/>
<path fill="none" stroke="gray" d="M742,-454C736,-454 730,-448 730,-442"/>
<polyline fill="none" stroke="gray" points="730,-442 730,-36 "/>
<path fill="none" stroke="gray" d="M730,-36C730,-30 736,-24 742,-24"/>
<text text-anchor="middle" x="815" y="-440.1" font-family="Times Roman,serif" font-size="11.00" fill="gray">UserBundle</text>
</g>
<g id="graph11" class="cluster"><title>cluster_\Glsr\UserBundle\Controller</title>
<polyline fill="none" stroke="gray" points="750,-32 880,-32 "/>
<path fill="none" stroke="gray" d="M880,-32C886,-32 892,-38 892,-44"/>
<polyline fill="none" stroke="gray" points="892,-44 892,-94 "/>
<path fill="none" stroke="gray" d="M892,-94C892,-100 886,-106 880,-106"/>
<polyline fill="none" stroke="gray" points="880,-106 750,-106 "/>
<path fill="none" stroke="gray" d="M750,-106C744,-106 738,-100 738,-94"/>
<polyline fill="none" stroke="gray" points="738,-94 738,-44 "/>
<path fill="none" stroke="gray" d="M738,-44C738,-38 744,-32 750,-32"/>
<text text-anchor="middle" x="815" y="-92.1" font-family="Times Roman,serif" font-size="11.00" fill="gray">Controller</text>
</g>
<g id="graph12" class="cluster"><title>cluster_\Glsr\UserBundle\Entity</title>
<polyline fill="none" stroke="gray" points="763,-160 867,-160 "/>
<path fill="none" stroke="gray" d="M867,-160C873,-160 879,-166 879,-172"/>
<polyline fill="none" stroke="gray" points="879,-172 879,-276 "/>
<path fill="none" stroke="gray" d="M879,-276C879,-282 873,-288 867,-288"/>
<polyline fill="none" stroke="gray" points="867,-288 763,-288 "/>
<path fill="none" stroke="gray" d="M763,-288C757,-288 751,-282 751,-276"/>
<polyline fill="none" stroke="gray" points="751,-276 751,-172 "/>
<path fill="none" stroke="gray" d="M751,-172C751,-166 757,-160 763,-160"/>
<text text-anchor="middle" x="815" y="-274.1" font-family="Times Roman,serif" font-size="11.00" fill="gray">Entity</text>
</g>
<g id="graph13" class="cluster"><title>cluster_\Glsr\UserBundle\DependencyInjection</title>
<polyline fill="none" stroke="gray" points="753,-296 877,-296 "/>
<path fill="none" stroke="gray" d="M877,-296C883,-296 889,-302 889,-308"/>
<polyline fill="none" stroke="gray" points="889,-308 889,-412 "/>
<path fill="none" stroke="gray" d="M889,-412C889,-418 883,-424 877,-424"/>
<polyline fill="none" stroke="gray" points="877,-424 753,-424 "/>
<path fill="none" stroke="gray" d="M753,-424C747,-424 741,-418 741,-412"/>
<polyline fill="none" stroke="gray" points="741,-412 741,-308 "/>
<path fill="none" stroke="gray" d="M741,-308C741,-302 747,-296 753,-296"/>
<text text-anchor="middle" x="815" y="-410.1" font-family="Times Roman,serif" font-size="11.00" fill="gray">DependencyInjection</text>
</g>
<!-- \\Glsr\\GestockBundle\\Controller\\GestockController -->
<g id="node5" class="node"><title>\\Glsr\\GestockBundle\\Controller\\GestockController</title>
<polygon fill="none" stroke="black" points="880,-2508 750,-2508 750,-2472 880,-2472 880,-2508"/>
<text text-anchor="middle" x="815" y="-2487.1" font-family="Courier,monospace" font-size="11.00">GestockController</text>
</g>
<!-- \\Symfony\\Bundle\\FrameworkBundle\\Controller\\Controller -->
<g id="node58" class="node"><title>\\Symfony\\Bundle\\FrameworkBundle\\Controller\\Controller</title>
<ellipse fill="none" stroke="black" cx="330" cy="-2409" rx="290.121" ry="18.3848"/>
<text text-anchor="middle" x="330" y="-2405.4" font-family="Times Roman,serif" font-size="14.00" fill="gray">\Symfony\Bundle\FrameworkBundle\Controller\Controller</text>
</g>
<!-- \\Glsr\\GestockBundle\\Controller\\GestockController&#45;&gt;\\Symfony\\Bundle\\FrameworkBundle\\Controller\\Controller -->
<g id="edge16" class="edge"><title>\\Glsr\\GestockBundle\\Controller\\GestockController&#45;&gt;\\Symfony\\Bundle\\FrameworkBundle\\Controller\\Controller</title>
<path fill="none" stroke="black" d="M749.339,-2479.03C670.358,-2465.84 536.535,-2443.49 441.316,-2427.59"/>
<polygon fill="none" stroke="black" points="441.796,-2424.12 431.356,-2425.93 440.643,-2431.03 441.796,-2424.12"/>
</g>
<!-- \\Glsr\\GestockBundle\\Controller\\SettingsController -->
<g id="node6" class="node"><title>\\Glsr\\GestockBundle\\Controller\\SettingsController</title>
<polygon fill="none" stroke="black" points="884,-2454 746,-2454 746,-2418 884,-2418 884,-2454"/>
<text text-anchor="middle" x="815" y="-2433.1" font-family="Courier,monospace" font-size="11.00">SettingsController</text>
</g>
<!-- \\Glsr\\GestockBundle\\Controller\\SettingsController&#45;&gt;\\Symfony\\Bundle\\FrameworkBundle\\Controller\\Controller -->
<g id="edge18" class="edge"><title>\\Glsr\\GestockBundle\\Controller\\SettingsController&#45;&gt;\\Symfony\\Bundle\\FrameworkBundle\\Controller\\Controller</title>
<path fill="none" stroke="black" d="M745.769,-2432.15C695.753,-2429.36 625.152,-2425.43 556.3,-2421.6"/>
<polygon fill="none" stroke="black" points="556.336,-2418.09 546.157,-2421.03 555.947,-2425.08 556.336,-2418.09"/>
</g>
<!-- \\Glsr\\GestockBundle\\Controller\\SupplierController -->
<g id="node7" class="node"><title>\\Glsr\\GestockBundle\\Controller\\SupplierController</title>
<polygon fill="none" stroke="black" points="884,-2400 746,-2400 746,-2364 884,-2364 884,-2400"/>
<text text-anchor="middle" x="815" y="-2379.1" font-family="Courier,monospace" font-size="11.00">SupplierController</text>
</g>
<!-- \\Glsr\\GestockBundle\\Controller\\SupplierController&#45;&gt;\\Symfony\\Bundle\\FrameworkBundle\\Controller\\Controller -->
<g id="edge20" class="edge"><title>\\Glsr\\GestockBundle\\Controller\\SupplierController&#45;&gt;\\Symfony\\Bundle\\FrameworkBundle\\Controller\\Controller</title>
<path fill="none" stroke="black" d="M745.769,-2385.85C695.753,-2388.64 625.152,-2392.57 556.3,-2396.4"/>
<polygon fill="none" stroke="black" points="555.947,-2392.92 546.157,-2396.97 556.336,-2399.91 555.947,-2392.92"/>
</g>
<!-- \\Glsr\\GestockBundle\\Controller\\ArticleController -->
<g id="node8" class="node"><title>\\Glsr\\GestockBundle\\Controller\\ArticleController</title>
<polygon fill="none" stroke="black" points="880,-2346 750,-2346 750,-2310 880,-2310 880,-2346"/>
<text text-anchor="middle" x="815" y="-2325.1" font-family="Courier,monospace" font-size="11.00">ArticleController</text>
</g>
<!-- \\Glsr\\GestockBundle\\Controller\\ArticleController&#45;&gt;\\Symfony\\Bundle\\FrameworkBundle\\Controller\\Controller -->
<g id="edge22" class="edge"><title>\\Glsr\\GestockBundle\\Controller\\ArticleController&#45;&gt;\\Symfony\\Bundle\\FrameworkBundle\\Controller\\Controller</title>
<path fill="none" stroke="black" d="M749.339,-2338.97C670.358,-2352.16 536.535,-2374.51 441.316,-2390.41"/>
<polygon fill="none" stroke="black" points="440.643,-2386.97 431.356,-2392.07 441.796,-2393.88 440.643,-2386.97"/>
</g>
<!-- \\Glsr\\GestockBundle\\Listener\\GlsrRequestListener -->
<g id="node10" class="node"><title>\\Glsr\\GestockBundle\\Listener\\GlsrRequestListener</title>
<polygon fill="none" stroke="black" points="887,-2264 743,-2264 743,-2228 887,-2228 887,-2264"/>
<text text-anchor="middle" x="815" y="-2243.1" font-family="Courier,monospace" font-size="11.00">GlsrRequestListener</text>
</g>
<!-- \\Glsr\\GestockBundle\\Form\\ArticleReassignType -->
<g id="node12" class="node"><title>\\Glsr\\GestockBundle\\Form\\ArticleReassignType</title>
<polygon fill="none" stroke="black" points="887,-2182 743,-2182 743,-2146 887,-2146 887,-2182"/>
<text text-anchor="middle" x="815" y="-2161.1" font-family="Courier,monospace" font-size="11.00">ArticleReassignType</text>
</g>
<!-- \\Symfony\\Component\\Form\\AbstractType -->
<g id="node63" class="node"><title>\\Symfony\\Component\\Form\\AbstractType</title>
<ellipse fill="none" stroke="black" cx="330" cy="-1921" rx="210.217" ry="18.3848"/>
<text text-anchor="middle" x="330" y="-1917.4" font-family="Times Roman,serif" font-size="14.00" fill="gray">\Symfony\Component\Form\AbstractType</text>
</g>
<!-- \\Glsr\\GestockBundle\\Form\\ArticleReassignType&#45;&gt;\\Symfony\\Component\\Form\\AbstractType -->
<g id="edge24" class="edge"><title>\\Glsr\\GestockBundle\\Form\\ArticleReassignType&#45;&gt;\\Symfony\\Component\\Form\\AbstractType</title>
<path fill="none" stroke="black" d="M742.21,-2150.37C727.975,-2146.75 713.334,-2142.32 700,-2137 567.37,-2084.1 425.593,-1989.08 362.969,-1944.85"/>
<polygon fill="none" stroke="black" points="364.848,-1941.89 354.667,-1938.96 360.795,-1947.6 364.848,-1941.89"/>
</g>
<!-- \\Glsr\\GestockBundle\\Form\\CompanyType -->
<g id="node13" class="node"><title>\\Glsr\\GestockBundle\\Form\\CompanyType</title>
<polygon fill="none" stroke="black" points="860,-2128 770,-2128 770,-2092 860,-2092 860,-2128"/>
<text text-anchor="middle" x="815" y="-2107.1" font-family="Courier,monospace" font-size="11.00">CompanyType</text>
</g>
<!-- \\Glsr\\GestockBundle\\Form\\CompanyType&#45;&gt;\\Symfony\\Component\\Form\\AbstractType -->
<g id="edge26" class="edge"><title>\\Glsr\\GestockBundle\\Form\\CompanyType&#45;&gt;\\Symfony\\Component\\Form\\AbstractType</title>
<path fill="none" stroke="black" d="M769.411,-2101.3C748.076,-2096.72 722.472,-2090.49 700,-2083 578.641,-2042.56 442.364,-1977.5 374.051,-1943.43"/>
<polygon fill="none" stroke="black" points="375.38,-1940.19 364.872,-1938.84 372.247,-1946.44 375.38,-1940.19"/>
</g>
<!-- \\Glsr\\GestockBundle\\Form\\SupplierType -->
<g id="node14" class="node"><title>\\Glsr\\GestockBundle\\Form\\SupplierType</title>
<polygon fill="none" stroke="black" points="864,-2074 766,-2074 766,-2038 864,-2038 864,-2074"/>
<text text-anchor="middle" x="815" y="-2053.1" font-family="Courier,monospace" font-size="11.00">SupplierType</text>
</g>
<!-- \\Glsr\\GestockBundle\\Form\\SupplierType&#45;&gt;\\Symfony\\Component\\Form\\AbstractType -->
<g id="edge28" class="edge"><title>\\Glsr\\GestockBundle\\Form\\SupplierType&#45;&gt;\\Symfony\\Component\\Form\\AbstractType</title>
<path fill="none" stroke="black" d="M765.893,-2045.08C745.455,-2040.38 721.519,-2034.66 700,-2029 592.856,-2000.81 469.539,-1963.91 395.784,-1941.36"/>
<polygon fill="none" stroke="black" points="396.742,-1937.99 386.155,-1938.41 394.692,-1944.68 396.742,-1937.99"/>
</g>
<!-- \\Glsr\\GestockBundle\\Form\\ArticleType -->
<g id="node15" class="node"><title>\\Glsr\\GestockBundle\\Form\\ArticleType</title>
<polygon fill="none" stroke="black" points="860,-2020 770,-2020 770,-1984 860,-1984 860,-2020"/>
<text text-anchor="middle" x="815" y="-1999.1" font-family="Courier,monospace" font-size="11.00">ArticleType</text>
</g>
<!-- \\Glsr\\GestockBundle\\Form\\ArticleType&#45;&gt;\\Symfony\\Component\\Form\\AbstractType -->
<g id="edge30" class="edge"><title>\\Glsr\\GestockBundle\\Form\\ArticleType&#45;&gt;\\Symfony\\Component\\Form\\AbstractType</title>
<path fill="none" stroke="black" d="M769.372,-1994.38C693.645,-1981.73 540.058,-1956.08 436.076,-1938.72"/>
<polygon fill="none" stroke="black" points="436.612,-1935.26 426.172,-1937.06 435.459,-1942.16 436.612,-1935.26"/>
</g>
<!-- \\Glsr\\GestockBundle\\Form\\TvaType -->
<g id="node16" class="node"><title>\\Glsr\\GestockBundle\\Form\\TvaType</title>
<polygon fill="none" stroke="black" points="847,-1966 783,-1966 783,-1930 847,-1930 847,-1966"/>
<text text-anchor="middle" x="815" y="-1945.1" font-family="Courier,monospace" font-size="11.00">TvaType</text>
</g>
<!-- \\Glsr\\GestockBundle\\Form\\TvaType&#45;&gt;\\Symfony\\Component\\Form\\AbstractType -->
<g id="edge32" class="edge"><title>\\Glsr\\GestockBundle\\Form\\TvaType&#45;&gt;\\Symfony\\Component\\Form\\AbstractType</title>
<path fill="none" stroke="black" d="M782.802,-1946.21C728.803,-1943.2 616.117,-1936.93 516.675,-1931.39"/>
<polygon fill="none" stroke="black" points="516.658,-1927.89 506.479,-1930.82 516.269,-1934.88 516.658,-1927.89"/>
</g>
<!-- \\Glsr\\GestockBundle\\Form\\ZoneStorageType -->
<g id="node17" class="node"><title>\\Glsr\\GestockBundle\\Form\\ZoneStorageType</title>
<polygon fill="none" stroke="black" points="874,-1912 756,-1912 756,-1876 874,-1876 874,-1912"/>
<text text-anchor="middle" x="815" y="-1891.1" font-family="Courier,monospace" font-size="11.00">ZoneStorageType</text>
</g>
<!-- \\Glsr\\GestockBundle\\Form\\ZoneStorageType&#45;&gt;\\Symfony\\Component\\Form\\AbstractType -->
<g id="edge34" class="edge"><title>\\Glsr\\GestockBundle\\Form\\ZoneStorageType&#45;&gt;\\Symfony\\Component\\Form\\AbstractType</title>
<path fill="none" stroke="black" d="M755.529,-1897.31C696.039,-1900.62 601.415,-1905.89 516.486,-1910.62"/>
<polygon fill="none" stroke="black" points="516.237,-1907.13 506.447,-1911.18 516.626,-1914.12 516.237,-1907.13"/>
</g>
<!-- \\Glsr\\GestockBundle\\Form\\UnitStorageType -->
<g id="node18" class="node"><title>\\Glsr\\GestockBundle\\Form\\UnitStorageType</title>
<polygon fill="none" stroke="black" points="874,-1858 756,-1858 756,-1822 874,-1822 874,-1858"/>
<text text-anchor="middle" x="815" y="-1837.1" font-family="Courier,monospace" font-size="11.00">UnitStorageType</text>
</g>
<!-- \\Glsr\\GestockBundle\\Form\\UnitStorageType&#45;&gt;\\Symfony\\Component\\Form\\AbstractType -->
<g id="edge36" class="edge"><title>\\Glsr\\GestockBundle\\Form\\UnitStorageType&#45;&gt;\\Symfony\\Component\\Form\\AbstractType</title>
<path fill="none" stroke="black" d="M755.529,-1849.93C676.173,-1863.19 534.3,-1886.88 436.318,-1903.24"/>
<polygon fill="none" stroke="black" points="435.669,-1899.8 426.382,-1904.9 436.822,-1906.71 435.669,-1899.8"/>
</g>
<!-- \\Glsr\\GestockBundle\\Form\\FamilyLogType -->
<g id="node19" class="node"><title>\\Glsr\\GestockBundle\\Form\\FamilyLogType</title>
<polygon fill="none" stroke="black" points="867,-1804 763,-1804 763,-1768 867,-1768 867,-1804"/>
<text text-anchor="middle" x="815" y="-1783.1" font-family="Courier,monospace" font-size="11.00">FamilyLogType</text>
</g>
<!-- \\Glsr\\GestockBundle\\Form\\FamilyLogType&#45;&gt;\\Symfony\\Component\\Form\\AbstractType -->
<g id="edge38" class="edge"><title>\\Glsr\\GestockBundle\\Form\\FamilyLogType&#45;&gt;\\Symfony\\Component\\Form\\AbstractType</title>
<path fill="none" stroke="black" d="M762.759,-1797.64C743.034,-1802.2 720.428,-1807.62 700,-1813 592.856,-1841.19 469.539,-1878.09 395.784,-1900.64"/>
<polygon fill="none" stroke="black" points="394.692,-1897.32 386.155,-1903.59 396.742,-1904.01 394.692,-1897.32"/>
</g>
<!-- \\Glsr\\GestockBundle\\Form\\SettingsType -->
<g id="node20" class="node"><title>\\Glsr\\GestockBundle\\Form\\SettingsType</title>
<polygon fill="none" stroke="black" points="864,-1750 766,-1750 766,-1714 864,-1714 864,-1750"/>
<text text-anchor="middle" x="815" y="-1729.1" font-family="Courier,monospace" font-size="11.00">SettingsType</text>
</g>
<!-- \\Glsr\\GestockBundle\\Form\\SettingsType&#45;&gt;\\Symfony\\Component\\Form\\AbstractType -->
<g id="edge40" class="edge"><title>\\Glsr\\GestockBundle\\Form\\SettingsType&#45;&gt;\\Symfony\\Component\\Form\\AbstractType</title>
<path fill="none" stroke="black" d="M765.769,-1741.49C745.204,-1745.99 721.207,-1751.93 700,-1759 578.641,-1799.44 442.364,-1864.5 374.051,-1898.57"/>
<polygon fill="none" stroke="black" points="372.247,-1895.56 364.872,-1903.16 375.38,-1901.81 372.247,-1895.56"/>
</g>
<!-- \\Glsr\\GestockBundle\\Form\\SubFamilyLogType -->
<g id="node21" class="node"><title>\\Glsr\\GestockBundle\\Form\\SubFamilyLogType</title>
<polygon fill="none" stroke="black" points="877,-1696 753,-1696 753,-1660 877,-1660 877,-1696"/>
<text text-anchor="middle" x="815" y="-1675.1" font-family="Courier,monospace" font-size="11.00">SubFamilyLogType</text>
</g>
<!-- \\Glsr\\GestockBundle\\Form\\SubFamilyLogType&#45;&gt;\\Symfony\\Component\\Form\\AbstractType -->
<g id="edge42" class="edge"><title>\\Glsr\\GestockBundle\\Form\\SubFamilyLogType&#45;&gt;\\Symfony\\Component\\Form\\AbstractType</title>
<path fill="none" stroke="black" d="M752.485,-1689.12C735.163,-1693.15 716.573,-1698.39 700,-1705 567.37,-1757.9 425.593,-1852.92 362.969,-1897.15"/>
<polygon fill="none" stroke="black" points="360.795,-1894.4 354.667,-1903.04 364.848,-1900.11 360.795,-1894.4"/>
</g>
<!-- \\Glsr\\GestockBundle\\Entity\\FamilyLog -->
<g id="node23" class="node"><title>\\Glsr\\GestockBundle\\Entity\\FamilyLog</title>
<polygon fill="none" stroke="black" points="853,-1614 777,-1614 777,-1578 853,-1578 853,-1614"/>
<text text-anchor="middle" x="815" y="-1593.1" font-family="Courier,monospace" font-size="11.00">FamilyLog</text>
</g>
<!-- \\Glsr\\GestockBundle\\Entity\\SettingsRepository -->
<g id="node24" class="node"><title>\\Glsr\\GestockBundle\\Entity\\SettingsRepository</title>
<polygon fill="none" stroke="black" points="884,-1560 746,-1560 746,-1524 884,-1524 884,-1560"/>
<text text-anchor="middle" x="815" y="-1539.1" font-family="Courier,monospace" font-size="11.00">SettingsRepository</text>
</g>
<!-- \\Doctrine\\ORM\\EntityRepository -->
<g id="node74" class="node"><title>\\Doctrine\\ORM\\EntityRepository</title>
<ellipse fill="none" stroke="black" cx="330" cy="-1137" rx="167.084" ry="18.3848"/>
<text text-anchor="middle" x="330" y="-1133.4" font-family="Times Roman,serif" font-size="14.00" fill="gray">\Doctrine\ORM\EntityRepository</text>
</g>
<!-- \\Glsr\\GestockBundle\\Entity\\SettingsRepository&#45;&gt;\\Doctrine\\ORM\\EntityRepository -->
<g id="edge44" class="edge"><title>\\Glsr\\GestockBundle\\Entity\\SettingsRepository&#45;&gt;\\Doctrine\\ORM\\EntityRepository</title>
<path fill="none" stroke="black" d="M745.733,-1532.39C730.054,-1528.43 713.935,-1522.86 700,-1515 535.02,-1421.99 395.722,-1233.51 347.803,-1163.75"/>
<polygon fill="none" stroke="black" points="350.429,-1161.39 341.908,-1155.09 344.643,-1165.33 350.429,-1161.39"/>
</g>
<!-- \\Glsr\\GestockBundle\\Entity\\FamilyLogRepository -->
<g id="node25" class="node"><title>\\Glsr\\GestockBundle\\Entity\\FamilyLogRepository</title>
<polygon fill="none" stroke="black" points="887,-1506 743,-1506 743,-1470 887,-1470 887,-1506"/>
<text text-anchor="middle" x="815" y="-1485.1" font-family="Courier,monospace" font-size="11.00">FamilyLogRepository</text>
</g>
<!-- \\Glsr\\GestockBundle\\Entity\\FamilyLogRepository&#45;&gt;\\Doctrine\\ORM\\EntityRepository -->
<g id="edge46" class="edge"><title>\\Glsr\\GestockBundle\\Entity\\FamilyLogRepository&#45;&gt;\\Doctrine\\ORM\\EntityRepository</title>
<path fill="none" stroke="black" d="M742.222,-1476.59C727.768,-1472.77 713.041,-1467.7 700,-1461 545.936,-1381.79 403.671,-1224.62 351.274,-1162.82"/>
<polygon fill="none" stroke="black" points="353.884,-1160.49 344.767,-1155.09 348.528,-1164.99 353.884,-1160.49"/>
</g>
<!-- \\Glsr\\GestockBundle\\Entity\\ZoneStorageRepository -->
<g id="node26" class="node"><title>\\Glsr\\GestockBundle\\Entity\\ZoneStorageRepository</title>
<polygon fill="none" stroke="black" points="894,-1452 736,-1452 736,-1416 894,-1416 894,-1452"/>
<text text-anchor="middle" x="815" y="-1431.1" font-family="Courier,monospace" font-size="11.00">ZoneStorageRepository</text>
</g>
<!-- \\Glsr\\GestockBundle\\Entity\\ZoneStorageRepository&#45;&gt;\\Doctrine\\ORM\\EntityRepository -->
<g id="edge48" class="edge"><title>\\Glsr\\GestockBundle\\Entity\\ZoneStorageRepository&#45;&gt;\\Doctrine\\ORM\\EntityRepository</title>
<path fill="none" stroke="black" d="M735.96,-1419.87C723.644,-1416.42 711.275,-1412.18 700,-1407 556.786,-1341.23 413.57,-1215.48 356.182,-1162.03"/>
<polygon fill="none" stroke="black" points="358.352,-1159.27 348.663,-1154.99 353.565,-1164.38 358.352,-1159.27"/>
</g>
<!-- \\Glsr\\GestockBundle\\Entity\\Supplier -->
<g id="node27" class="node"><title>\\Glsr\\GestockBundle\\Entity\\Supplier</title>
<polygon fill="none" stroke="black" points="850,-1398 780,-1398 780,-1362 850,-1362 850,-1398"/>
<text text-anchor="middle" x="815" y="-1377.1" font-family="Courier,monospace" font-size="11.00">Supplier</text>
</g>
<!-- \\Glsr\\GestockBundle\\Entity\\UnitStorage -->
<g id="node28" class="node"><title>\\Glsr\\GestockBundle\\Entity\\UnitStorage</title>
<polygon fill="none" stroke="black" points="860,-1344 770,-1344 770,-1308 860,-1308 860,-1344"/>
<text text-anchor="middle" x="815" y="-1323.1" font-family="Courier,monospace" font-size="11.00">UnitStorage</text>
</g>
<!-- \\Glsr\\GestockBundle\\Entity\\Tva -->
<g id="node29" class="node"><title>\\Glsr\\GestockBundle\\Entity\\Tva</title>
<polygon fill="none" stroke="black" points="842,-1290 788,-1290 788,-1254 842,-1254 842,-1290"/>
<text text-anchor="middle" x="815" y="-1269.1" font-family="Courier,monospace" font-size="11.00">Tva</text>
</g>
<!-- \\Glsr\\GestockBundle\\Entity\\ArticleRepository -->
<g id="node30" class="node"><title>\\Glsr\\GestockBundle\\Entity\\ArticleRepository</title>
<polygon fill="none" stroke="black" points="880,-1236 750,-1236 750,-1200 880,-1200 880,-1236"/>
<text text-anchor="middle" x="815" y="-1215.1" font-family="Courier,monospace" font-size="11.00">ArticleRepository</text>
</g>
<!-- \\Glsr\\GestockBundle\\Entity\\ArticleRepository&#45;&gt;\\Doctrine\\ORM\\EntityRepository -->
<g id="edge50" class="edge"><title>\\Glsr\\GestockBundle\\Entity\\ArticleRepository&#45;&gt;\\Doctrine\\ORM\\EntityRepository</title>
<path fill="none" stroke="black" d="M749.339,-1207.03C667.359,-1193.34 526.292,-1169.78 430.64,-1153.81"/>
<polygon fill="none" stroke="black" points="431.1,-1150.34 420.66,-1152.14 429.947,-1157.24 431.1,-1150.34"/>
</g>
<!-- \\Glsr\\GestockBundle\\Entity\\UnitStorageRepository -->
<g id="node31" class="node"><title>\\Glsr\\GestockBundle\\Entity\\UnitStorageRepository</title>
<polygon fill="none" stroke="black" points="894,-1182 736,-1182 736,-1146 894,-1146 894,-1182"/>
<text text-anchor="middle" x="815" y="-1161.1" font-family="Courier,monospace" font-size="11.00">UnitStorageRepository</text>
</g>
<!-- \\Glsr\\GestockBundle\\Entity\\UnitStorageRepository&#45;&gt;\\Doctrine\\ORM\\EntityRepository -->
<g id="edge52" class="edge"><title>\\Glsr\\GestockBundle\\Entity\\UnitStorageRepository&#45;&gt;\\Doctrine\\ORM\\EntityRepository</title>
<path fill="none" stroke="black" d="M735.997,-1159.6C669.321,-1155.89 571.778,-1150.46 489.014,-1145.85"/>
<polygon fill="none" stroke="black" points="489.176,-1142.36 478.997,-1145.29 488.787,-1149.35 489.176,-1142.36"/>
</g>
<!-- \\Glsr\\GestockBundle\\Entity\\CompanyRepository -->
<g id="node32" class="node"><title>\\Glsr\\GestockBundle\\Entity\\CompanyRepository</title>
<polygon fill="none" stroke="black" points="880,-1128 750,-1128 750,-1092 880,-1092 880,-1128"/>
<text text-anchor="middle" x="815" y="-1107.1" font-family="Courier,monospace" font-size="11.00">CompanyRepository</text>
</g>
<!-- \\Glsr\\GestockBundle\\Entity\\CompanyRepository&#45;&gt;\\Doctrine\\ORM\\EntityRepository -->
<g id="edge54" class="edge"><title>\\Glsr\\GestockBundle\\Entity\\CompanyRepository&#45;&gt;\\Doctrine\\ORM\\EntityRepository</title>
<path fill="none" stroke="black" d="M749.339,-1113.66C682.87,-1117.36 577.558,-1123.22 489.103,-1128.14"/>
<polygon fill="none" stroke="black" points="488.745,-1124.66 478.955,-1128.71 489.134,-1131.65 488.745,-1124.66"/>
</g>
<!-- \\Glsr\\GestockBundle\\Entity\\ZoneStorage -->
<g id="node33" class="node"><title>\\Glsr\\GestockBundle\\Entity\\ZoneStorage</title>
<polygon fill="none" stroke="black" points="860,-1074 770,-1074 770,-1038 860,-1038 860,-1074"/>
<text text-anchor="middle" x="815" y="-1053.1" font-family="Courier,monospace" font-size="11.00">ZoneStorage</text>
</g>
<!-- \\Glsr\\GestockBundle\\Entity\\SupplierRepository -->
<g id="node34" class="node"><title>\\Glsr\\GestockBundle\\Entity\\SupplierRepository</title>
<polygon fill="none" stroke="black" points="884,-1020 746,-1020 746,-984 884,-984 884,-1020"/>
<text text-anchor="middle" x="815" y="-999.1" font-family="Courier,monospace" font-size="11.00">SupplierRepository</text>
</g>
<!-- \\Glsr\\GestockBundle\\Entity\\SupplierRepository&#45;&gt;\\Doctrine\\ORM\\EntityRepository -->
<g id="edge56" class="edge"><title>\\Glsr\\GestockBundle\\Entity\\SupplierRepository&#45;&gt;\\Doctrine\\ORM\\EntityRepository</title>
<path fill="none" stroke="black" d="M745.831,-1017.61C730.691,-1021.2 714.776,-1025.11 700,-1029 592.236,-1057.36 468.112,-1094.52 394.51,-1117.03"/>
<polygon fill="none" stroke="black" points="393.444,-1113.7 384.908,-1119.98 395.494,-1120.39 393.444,-1113.7"/>
</g>
<!-- \\Glsr\\GestockBundle\\Entity\\SubFamilyLogRepository -->
<g id="node35" class="node"><title>\\Glsr\\GestockBundle\\Entity\\SubFamilyLogRepository</title>
<polygon fill="none" stroke="black" points="897,-966 733,-966 733,-930 897,-930 897,-966"/>
<text text-anchor="middle" x="815" y="-945.1" font-family="Courier,monospace" font-size="11.00">SubFamilyLogRepository</text>
</g>
<!-- \\Glsr\\GestockBundle\\Entity\\SubFamilyLogRepository&#45;&gt;\\Doctrine\\ORM\\EntityRepository -->
<g id="edge58" class="edge"><title>\\Glsr\\GestockBundle\\Entity\\SubFamilyLogRepository&#45;&gt;\\Doctrine\\ORM\\EntityRepository</title>
<path fill="none" stroke="black" d="M732.199,-965.525C721.283,-968.393 710.312,-971.564 700,-975 578.482,-1015.49 442.007,-1080.67 373.783,-1114.7"/>
<polygon fill="none" stroke="black" points="371.993,-1111.68 364.618,-1119.29 375.127,-1117.94 371.993,-1111.68"/>
</g>
<!-- \\Glsr\\GestockBundle\\Entity\\SubFamilyLog -->
<g id="node36" class="node"><title>\\Glsr\\GestockBundle\\Entity\\SubFamilyLog</title>
<polygon fill="none" stroke="black" points="864,-912 766,-912 766,-876 864,-876 864,-912"/>
<text text-anchor="middle" x="815" y="-891.1" font-family="Courier,monospace" font-size="11.00">SubFamilyLog</text>
</g>
<!-- \\Glsr\\GestockBundle\\Entity\\Article -->
<g id="node37" class="node"><title>\\Glsr\\GestockBundle\\Entity\\Article</title>
<polygon fill="none" stroke="black" points="847,-858 783,-858 783,-822 847,-822 847,-858"/>
<text text-anchor="middle" x="815" y="-837.1" font-family="Courier,monospace" font-size="11.00">Article</text>
</g>
<!-- \\Glsr\\GestockBundle\\Entity\\TvaRepository -->
<g id="node38" class="node"><title>\\Glsr\\GestockBundle\\Entity\\TvaRepository</title>
<polygon fill="none" stroke="black" points="867,-804 763,-804 763,-768 867,-768 867,-804"/>
<text text-anchor="middle" x="815" y="-783.1" font-family="Courier,monospace" font-size="11.00">TvaRepository</text>
</g>
<!-- \\Glsr\\GestockBundle\\Entity\\TvaRepository&#45;&gt;\\Doctrine\\ORM\\EntityRepository -->
<g id="edge60" class="edge"><title>\\Glsr\\GestockBundle\\Entity\\TvaRepository&#45;&gt;\\Doctrine\\ORM\\EntityRepository</title>
<path fill="none" stroke="black" d="M762.734,-792.708C742.372,-796.722 719.333,-803.06 700,-813 545.936,-892.213 403.671,-1049.38 351.274,-1111.18"/>
<polygon fill="none" stroke="black" points="348.528,-1109.01 344.767,-1118.91 353.884,-1113.51 348.528,-1109.01"/>
</g>
<!-- \\Glsr\\GestockBundle\\Entity\\Settings -->
<g id="node39" class="node"><title>\\Glsr\\GestockBundle\\Entity\\Settings</title>
<polygon fill="none" stroke="black" points="850,-750 780,-750 780,-714 850,-714 850,-750"/>
<text text-anchor="middle" x="815" y="-729.1" font-family="Courier,monospace" font-size="11.00">Settings</text>
</g>
<!-- \\Glsr\\GestockBundle\\Entity\\Company -->
<g id="node40" class="node"><title>\\Glsr\\GestockBundle\\Entity\\Company</title>
<polygon fill="none" stroke="black" points="847,-696 783,-696 783,-660 847,-660 847,-696"/>
<text text-anchor="middle" x="815" y="-675.1" font-family="Courier,monospace" font-size="11.00">Company</text>
</g>
<!-- \\Glsr\\GestockBundle\\DependencyInjection\\GlsrGestockExtension -->
<g id="node42" class="node"><title>\\Glsr\\GestockBundle\\DependencyInjection\\GlsrGestockExtension</title>
<polygon fill="none" stroke="black" points="891,-614 739,-614 739,-578 891,-578 891,-614"/>
<text text-anchor="middle" x="815" y="-593.1" font-family="Courier,monospace" font-size="11.00">GlsrGestockExtension</text>
</g>
<!-- \\Symfony\\Component\\HttpKernel\\DependencyInjection\\Extension -->
<g id="node84" class="node"><title>\\Symfony\\Component\\HttpKernel\\DependencyInjection\\Extension</title>
<ellipse fill="none" stroke="black" cx="330" cy="-486" rx="329.012" ry="18.3848"/>
<text text-anchor="middle" x="330" y="-482.4" font-family="Times Roman,serif" font-size="14.00" fill="gray">\Symfony\Component\HttpKernel\DependencyInjection\Extension</text>
</g>
<!-- \\Glsr\\GestockBundle\\DependencyInjection\\GlsrGestockExtension&#45;&gt;\\Symfony\\Component\\HttpKernel\\DependencyInjection\\Extension -->
<g id="edge62" class="edge"><title>\\Glsr\\GestockBundle\\DependencyInjection\\GlsrGestockExtension&#45;&gt;\\Symfony\\Component\\HttpKernel\\DependencyInjection\\Extension</title>
<path fill="none" stroke="black" d="M738.952,-578.752C651.626,-558.946 508.649,-526.518 416.973,-505.726"/>
<polygon fill="none" stroke="black" points="417.688,-502.299 407.161,-503.501 416.14,-509.126 417.688,-502.299"/>
</g>
<!-- \\Glsr\\GestockBundle\\DependencyInjection\\Configuration -->
<g id="node43" class="node"><title>\\Glsr\\GestockBundle\\DependencyInjection\\Configuration</title>
<polygon fill="none" stroke="black" points="867,-560 763,-560 763,-524 867,-524 867,-560"/>
<text text-anchor="middle" x="815" y="-539.1" font-family="Courier,monospace" font-size="11.00">Configuration</text>
</g>
<!-- \\Symfony\\Component\\Config\\Definition\\ConfigurationInterface -->
<g id="node86" class="node"><title>\\Symfony\\Component\\Config\\Definition\\ConfigurationInterface</title>
<ellipse fill="none" stroke="black" cx="330" cy="-377" rx="314.162" ry="18.3848"/>
<text text-anchor="middle" x="330" y="-373.4" font-family="Times Roman,serif" font-size="14.00" fill="gray">\Symfony\Component\Config\Definition\ConfigurationInterface</text>
</g>
<!-- \\Glsr\\GestockBundle\\DependencyInjection\\Configuration&#45;&gt;\\Symfony\\Component\\Config\\Definition\\ConfigurationInterface -->
<g id="edge64" class="edge"><title>\\Glsr\\GestockBundle\\DependencyInjection\\Configuration&#45;&gt;\\Symfony\\Component\\Config\\Definition\\ConfigurationInterface</title>
<path fill="none" stroke="black" stroke-dasharray="1,5" d="M762.717,-540.721C741.78,-538.086 718.33,-532.265 700,-520 673.056,-501.971 686.443,-477.757 660,-459 613.765,-426.203 555.785,-406.473 501.377,-394.621"/>
<polygon fill="none" stroke="black" points="501.769,-391.127 491.263,-392.499 500.331,-397.978 501.769,-391.127"/>
</g>
<!-- \\Glsr\\GestockBundle\\GlsrGestockBundle -->
<g id="node44" class="node"><title>\\Glsr\\GestockBundle\\GlsrGestockBundle</title>
<polygon fill="none" stroke="black" points="880,-506 750,-506 750,-470 880,-470 880,-506"/>
<text text-anchor="middle" x="815" y="-485.1" font-family="Courier,monospace" font-size="11.00">GlsrGestockBundle</text>
</g>
<!-- \\Symfony\\Component\\HttpKernel\\Bundle\\Bundle -->
<g id="node56" class="node"><title>\\Symfony\\Component\\HttpKernel\\Bundle\\Bundle</title>
<ellipse fill="none" stroke="black" cx="330" cy="-309" rx="246.78" ry="18.3848"/>
<text text-anchor="middle" x="330" y="-305.4" font-family="Times Roman,serif" font-size="14.00" fill="gray">\Symfony\Component\HttpKernel\Bundle\Bundle</text>
</g>
<!-- \\Glsr\\GestockBundle\\GlsrGestockBundle&#45;&gt;\\Symfony\\Component\\HttpKernel\\Bundle\\Bundle -->
<g id="edge14" class="edge"><title>\\Glsr\\GestockBundle\\GlsrGestockBundle&#45;&gt;\\Symfony\\Component\\HttpKernel\\Bundle\\Bundle</title>
<path fill="none" stroke="black" d="M764.801,-469.912C742.872,-460.107 718.089,-446.217 700,-428 672.549,-400.355 691.927,-372.327 660,-350 637.041,-333.944 610.928,-322.502 583.682,-314.501"/>
<polygon fill="none" stroke="black" points="584.572,-311.116 574,-311.813 582.699,-317.861 584.572,-311.116"/>
</g>
<!-- \\Glsr\\UserBundle\\Controller\\SecurityController -->
<g id="node47" class="node"><title>\\Glsr\\UserBundle\\Controller\\SecurityController</title>
<polygon fill="none" stroke="black" points="884,-76 746,-76 746,-40 884,-40 884,-76"/>
<text text-anchor="middle" x="815" y="-55.1" font-family="Courier,monospace" font-size="11.00">SecurityController</text>
</g>
<!-- \\FOS\\UserBundle\\Controller\\SecurityController -->
<g id="node88" class="node"><title>\\FOS\\UserBundle\\Controller\\SecurityController</title>
<ellipse fill="none" stroke="black" cx="330" cy="-58" rx="239.002" ry="18.3848"/>
<text text-anchor="middle" x="330" y="-54.4" font-family="Times Roman,serif" font-size="14.00" fill="gray">\FOS\UserBundle\Controller\SecurityController</text>
</g>
<!-- \\Glsr\\UserBundle\\Controller\\SecurityController&#45;&gt;\\FOS\\UserBundle\\Controller\\SecurityController -->
<g id="edge66" class="edge"><title>\\Glsr\\UserBundle\\Controller\\SecurityController&#45;&gt;\\FOS\\UserBundle\\Controller\\SecurityController</title>
<path fill="none" stroke="black" d="M745.769,-58C701.329,-58 640.637,-58 579.361,-58"/>
<polygon fill="none" stroke="black" points="579.125,-54.5001 569.125,-58 579.125,-61.5001 579.125,-54.5001"/>
</g>
<!-- \\Glsr\\UserBundle\\Entity\\User -->
<g id="node49" class="node"><title>\\Glsr\\UserBundle\\Entity\\User</title>
<polygon fill="none" stroke="black" points="842,-204 788,-204 788,-168 842,-168 842,-204"/>
<text text-anchor="middle" x="815" y="-183.1" font-family="Courier,monospace" font-size="11.00">User</text>
</g>
<!-- \\FOS\\UserBundle\\Entity\\User -->
<g id="node90" class="node"><title>\\FOS\\UserBundle\\Entity\\User</title>
<ellipse fill="none" stroke="black" cx="330" cy="-186" rx="152.234" ry="18.3848"/>
<text text-anchor="middle" x="330" y="-182.4" font-family="Times Roman,serif" font-size="14.00" fill="gray">\FOS\UserBundle\Entity\User</text>
</g>
<!-- \\Glsr\\UserBundle\\Entity\\User&#45;&gt;\\FOS\\UserBundle\\Entity\\User -->
<g id="edge68" class="edge"><title>\\Glsr\\UserBundle\\Entity\\User&#45;&gt;\\FOS\\UserBundle\\Entity\\User</title>
<path fill="none" stroke="black" d="M787.885,-186C732.075,-186 600.544,-186 492.706,-186"/>
<polygon fill="none" stroke="black" points="492.679,-182.5 482.679,-186 492.679,-189.5 492.679,-182.5"/>
</g>
<!-- \\Glsr\\UserBundle\\Entity\\UserRepository -->
<g id="node50" class="node"><title>\\Glsr\\UserBundle\\Entity\\UserRepository</title>
<polygon fill="none" stroke="black" points="870,-258 760,-258 760,-222 870,-222 870,-258"/>
<text text-anchor="middle" x="815" y="-237.1" font-family="Courier,monospace" font-size="11.00">UserRepository</text>
</g>
<!-- \\Glsr\\UserBundle\\Entity\\UserRepository&#45;&gt;\\Doctrine\\ORM\\EntityRepository -->
<g id="edge70" class="edge"><title>\\Glsr\\UserBundle\\Entity\\UserRepository&#45;&gt;\\Doctrine\\ORM\\EntityRepository</title>
<path fill="none" stroke="black" d="M759.325,-253.121C737.722,-260.948 714.692,-273.17 700,-292 638.595,-370.696 692.606,-418.657 660,-513 575.028,-758.862 404.089,-1026.01 348.163,-1110.11"/>
<polygon fill="none" stroke="black" points="345.16,-1108.31 342.517,-1118.57 350.982,-1112.2 345.16,-1108.31"/>
</g>
<!-- \\Glsr\\UserBundle\\DependencyInjection\\GlsrUserExtension -->
<g id="node52" class="node"><title>\\Glsr\\UserBundle\\DependencyInjection\\GlsrUserExtension</title>
<polygon fill="none" stroke="black" points="880,-394 750,-394 750,-358 880,-358 880,-394"/>
<text text-anchor="middle" x="815" y="-373.1" font-family="Courier,monospace" font-size="11.00">GlsrUserExtension</text>
</g>
<!-- \\Glsr\\UserBundle\\DependencyInjection\\GlsrUserExtension&#45;&gt;\\Symfony\\Component\\HttpKernel\\DependencyInjection\\Extension -->
<g id="edge72" class="edge"><title>\\Glsr\\UserBundle\\DependencyInjection\\GlsrUserExtension&#45;&gt;\\Symfony\\Component\\HttpKernel\\DependencyInjection\\Extension</title>
<path fill="none" stroke="black" d="M749.339,-390.892C663.485,-410.364 512.828,-444.534 417.395,-466.178"/>
<polygon fill="none" stroke="black" points="416.454,-462.803 407.476,-468.428 418.002,-469.63 416.454,-462.803"/>
</g>
<!-- \\Glsr\\UserBundle\\DependencyInjection\\Configuration -->
<g id="node53" class="node"><title>\\Glsr\\UserBundle\\DependencyInjection\\Configuration</title>
<polygon fill="none" stroke="black" points="867,-340 763,-340 763,-304 867,-304 867,-340"/>
<text text-anchor="middle" x="815" y="-319.1" font-family="Courier,monospace" font-size="11.00">Configuration</text>
</g>
<!-- \\Glsr\\UserBundle\\DependencyInjection\\Configuration&#45;&gt;\\Symfony\\Component\\Config\\Definition\\ConfigurationInterface -->
<g id="edge74" class="edge"><title>\\Glsr\\UserBundle\\DependencyInjection\\Configuration&#45;&gt;\\Symfony\\Component\\Config\\Definition\\ConfigurationInterface</title>
<path fill="none" stroke="black" stroke-dasharray="1,5" d="M762.636,-327.938C695.982,-335.497 577.97,-348.88 482.02,-359.761"/>
<polygon fill="none" stroke="black" points="481.462,-356.301 471.92,-360.906 482.25,-363.257 481.462,-356.301"/>
</g>
<!-- \\Glsr\\UserBundle\\GlsrUserBundle -->
<g id="node54" class="node"><title>\\Glsr\\UserBundle\\GlsrUserBundle</title>
<polygon fill="none" stroke="black" points="870,-150 760,-150 760,-114 870,-114 870,-150"/>
<text text-anchor="middle" x="815" y="-129.1" font-family="Courier,monospace" font-size="11.00">GlsrUserBundle</text>
</g>
<!-- \\Glsr\\UserBundle\\GlsrUserBundle&#45;&gt;\\Symfony\\Component\\HttpKernel\\Bundle\\Bundle -->
<g id="edge76" class="edge"><title>\\Glsr\\UserBundle\\GlsrUserBundle&#45;&gt;\\Symfony\\Component\\HttpKernel\\Bundle\\Bundle</title>
<path fill="none" stroke="black" d="M759.377,-135.138C739.374,-138.365 717.46,-144.503 700,-156 674.152,-173.021 685.171,-194.993 660,-213 602.537,-254.11 527.627,-277.728 463.705,-291.241"/>
<polygon fill="none" stroke="black" points="462.638,-287.887 453.545,-293.325 464.044,-294.745 462.638,-287.887"/>
</g>
</g>
</svg>
